<svg width="675" height="552" viewBox="0 0 675 552" fill="none" xmlns="http://www.w3.org/2000/svg">
<g id="undraw_Ride_a_bicycle_2yok 1" clip-path="url(#clip0)">
<path id="Vector" d="M6.42645 460.626C6.42645 460.626 21.3789 460.12 25.8845 456.582C30.39 453.045 48.8589 448.847 50.0012 454.473C51.1435 460.098 72.4714 482.678 55.5916 482.826C38.7118 482.974 16.3693 479.929 11.8765 476.933C7.38372 473.937 6.42645 460.626 6.42645 460.626Z" fill="#C83312"/>
<path id="Vector_2" opacity="0.2" d="M55.898 480.878C39.0182 481.026 16.6756 477.981 12.1764 474.964C8.74941 472.665 7.38371 464.416 6.93061 460.612H6.43283C6.43283 460.612 7.37733 473.902 11.8765 476.919C16.3756 479.936 38.7182 482.988 55.598 482.833C60.4737 482.791 62.1521 480.878 62.0627 478.051C61.3863 479.781 59.5228 480.843 55.898 480.878Z" fill="black"/>
<g id="back-wheel">
<path id="Vector_3" d="M162.882 504.189L158.881 435.318L158.798 435.17L154.764 436.717L136.206 496.384L106.69 473.326L153.705 435.768L153.75 435.62L154.018 435.515L157.049 433.088L107.756 402.633L95.6819 417.259L97.5965 430.972L154.279 432.111V433.517L96.5371 432.378L94.3545 416.809L110.883 396.796L135.613 365.011L136.053 366.326L141.286 359.998L160.725 363.837V362.986L162.001 363.028V364.09L190.949 369.8L163.961 429.298L160.023 432.441V432.793V433.187L222.437 409.222L215.027 473.361L162.059 436.183L160.195 435.029L191.428 490.498L162.882 504.189ZM160.329 437.849L164.063 502.108L189.622 489.886L160.329 437.849ZM108.905 473.312L135.574 494.148L153.022 438.074L108.905 473.312ZM161.44 434.171L162.773 434.994L214.051 470.998L220.943 411.317L161.44 434.171ZM156.909 429.108L158.51 431.956L158.791 431.731L160.706 365.258L141.726 361.516L136.519 367.845L156.909 429.108ZM108.777 401.641L156.539 431.176L155.709 429.678L135.555 369.013L111.821 397.753L108.777 401.641ZM162.001 365.504L160.087 430.705L162.971 428.398L189.079 370.862L162.001 365.504Z" fill="#535461"/>
<path id="Vector_4" d="M232.884 414.854C230.324 402.324 225.143 390.626 217.752 380.693C215.009 377.002 211.984 373.576 208.709 370.454C196.121 358.478 180.279 351.446 163.671 350.463C147.063 349.48 130.629 354.601 116.948 365.022C103.267 375.443 93.1139 390.575 88.0813 408.042C83.0487 425.509 83.422 444.323 89.1425 461.532C94.8631 478.74 105.607 493.368 119.688 503.12C133.77 512.873 150.391 517.197 166.944 515.415C183.497 513.633 199.044 505.846 211.146 493.274C223.248 480.703 231.219 464.06 233.809 445.957C234.412 441.695 234.715 437.388 234.715 433.074C234.719 426.945 234.105 420.834 232.884 414.854ZM159.372 495.266C147.737 495.252 136.387 491.29 126.867 483.919C117.347 476.548 110.119 466.124 106.165 454.067C102.21 442.009 101.722 428.902 104.766 416.527C107.811 404.153 114.24 393.112 123.179 384.906C132.119 376.7 143.136 371.727 154.731 370.663C166.326 369.598 177.937 372.495 187.986 378.959C198.034 385.423 206.032 395.14 210.892 406.789C215.752 418.437 217.238 431.453 215.149 444.065C212.755 458.441 205.863 471.437 195.672 480.792C185.481 490.147 172.636 495.269 159.372 495.266V495.266Z" fill="#535461"/>
<path id="Vector_5" d="M159.372 441.801C163.887 441.801 167.547 437.768 167.547 432.793C167.547 427.818 163.887 423.785 159.372 423.785C154.857 423.785 151.197 427.818 151.197 432.793C151.197 437.768 154.857 441.801 159.372 441.801Z" fill="#535461"/>
</g>
<g id="front-wheel">
<path id="Vector_6" d="M435.398 504.847L431.403 436.003L431.32 435.856L427.287 437.403L408.722 497.041L379.207 473.976L426.234 436.418L426.279 436.27L426.547 436.165L429.578 433.739L380.285 403.283L368.205 417.91L370.119 431.622L426.789 432.733V434.14L369.047 433.001L366.877 417.453L383.4 397.447L408.11 365.683L408.55 366.998L413.783 360.669L433.273 364.516V363.665L434.549 363.707V364.769L463.497 370.479L436.483 430.005L432.546 433.148V433.5V433.894L494.966 409.928L487.556 474.068L434.588 436.889L432.724 435.736L463.957 491.212L435.398 504.847ZM432.846 438.507L436.579 502.765L462.138 490.544L432.846 438.507ZM381.428 473.976L408.097 494.812L425.545 438.739L381.428 473.976ZM433.962 434.836L435.296 435.659L486.574 471.663L493.466 411.982L433.962 434.836ZM429.431 429.773L431.033 432.621L431.314 432.396L433.228 365.922L414.249 362.167L409.042 368.496L429.431 429.773ZM381.319 402.313L429.08 431.847L428.251 430.349L408.097 369.684L384.357 398.431L381.319 402.313ZM434.524 366.175L432.609 431.355L435.494 429.049L461.602 371.512L434.524 366.175Z" fill="#535461"/>
<path id="Vector_7" d="M432.15 351C425.377 350.992 418.634 351.995 412.105 353.982C408.738 355.005 405.44 356.29 402.239 357.828C385.18 365.976 371.47 380.806 363.761 399.449C356.052 418.092 354.892 439.223 360.505 458.754C366.118 478.285 378.105 494.828 394.148 505.183C410.191 515.538 429.149 518.969 447.354 514.812C465.56 510.655 481.72 499.206 492.707 482.68C503.695 466.153 508.892 445.902 507 425.522C505.108 405.141 496.26 386.079 482.462 372.347C468.665 358.614 450.736 351.008 432.144 351H432.15ZM431.895 495.923C418.952 495.917 406.4 491.033 396.324 482.082C386.248 473.131 379.254 460.651 376.504 446.715C373.754 432.779 375.412 418.226 381.205 405.472C386.997 392.718 396.574 382.532 408.346 376.604C411.34 375.093 414.45 373.877 417.638 372.968C425.431 370.739 433.566 370.364 441.501 371.869C449.437 373.374 456.99 376.724 463.659 381.696C470.328 386.668 475.959 393.148 480.178 400.704C484.397 408.261 487.107 416.721 488.128 425.522C489.149 434.322 488.457 443.262 486.099 451.745C483.74 460.228 479.769 468.06 474.45 474.72C469.131 481.381 462.585 486.716 455.248 490.372C447.912 494.028 439.953 495.92 431.901 495.923H431.895Z" fill="#535461"/>
<path id="Vector_8" d="M431.895 442.459C436.41 442.459 440.07 438.426 440.07 433.451C440.07 428.476 436.41 424.443 431.895 424.443C427.38 424.443 423.72 428.476 423.72 433.451C423.72 438.426 427.38 442.459 431.895 442.459Z" fill="#535461"/>
</g>
<g id="man-bik-plant">
<path id="Vector_9" d="M537.409 315.26C537.409 315.26 548.577 339.415 539.477 352.628C530.376 365.841 540.306 401.852 540.306 401.852" stroke="#3FE724" stroke-miterlimit="10"/>
<path id="Vector_10" d="M540.715 307.743C540.715 312.398 537.613 316.181 537.613 316.181C537.613 316.181 534.512 312.405 534.512 307.743C534.512 303.08 537.613 299.304 537.613 299.304C537.613 299.304 540.715 303.087 540.715 307.743Z" fill="#34D31A"/>
<path id="Vector_11" d="M543.197 315.26C543.197 315.26 532.029 339.415 541.13 352.628C550.23 365.841 540.3 401.852 540.3 401.852" stroke="#3FE724" stroke-miterlimit="10"/>
<path id="Vector_12" d="M539.892 307.743C539.892 312.398 542.993 316.181 542.993 316.181C542.993 316.181 546.095 312.405 546.095 307.743C546.095 303.08 542.993 299.304 542.993 299.304C542.993 299.304 539.892 303.087 539.892 307.743Z" fill="#34D31A"/>
<path id="Vector_13" opacity="0.1" d="M539.892 307.743C539.892 312.398 542.993 316.181 542.993 316.181C542.993 316.181 546.095 312.405 546.095 307.743C546.095 303.08 542.993 299.304 542.993 299.304C542.993 299.304 539.892 303.087 539.892 307.743Z" fill="black"/>
<path id="Vector_14" d="M547.747 315.26C547.747 315.26 558.916 339.415 549.815 352.628C540.715 365.841 550.645 401.852 550.645 401.852" stroke="#3FE724" stroke-miterlimit="10"/>
<path id="Vector_15" d="M551.053 307.743C551.053 312.398 547.952 316.181 547.952 316.181C547.952 316.181 544.85 312.405 544.85 307.743C544.85 303.08 547.952 299.304 547.952 299.304C547.952 299.304 551.053 303.087 551.053 307.743Z" fill="#34D31A"/>
<path id="Vector_16" d="M549.317 327.095C546.388 330.449 541.774 330.801 541.774 330.801C541.774 330.801 541.915 325.709 544.844 322.362C547.773 319.015 552.387 318.656 552.387 318.656C552.387 318.656 552.247 323.74 549.317 327.095Z" fill="#34D31A"/>
<path id="Vector_17" d="M549.611 343.761C546.682 347.115 542.068 347.466 542.068 347.466C542.068 347.466 542.208 342.375 545.137 339.028C548.067 335.681 552.681 335.322 552.681 335.322C552.681 335.322 552.566 340.399 549.611 343.761Z" fill="#34D31A"/>
<path id="Vector_18" d="M533.72 352.923C536.49 356.439 536.394 361.531 536.394 361.531C536.394 361.531 531.806 360.919 529.036 357.403C526.266 353.887 526.362 348.796 526.362 348.796C526.362 348.796 530.951 349.407 533.72 352.923Z" fill="#34D31A"/>
<path id="Vector_19" d="M536.292 317.39C539.815 319.964 540.957 324.901 540.957 324.901C540.957 324.901 536.388 325.667 532.865 323.093C529.342 320.52 528.2 315.583 528.2 315.583C528.2 315.583 532.782 314.817 536.292 317.39Z" fill="#34D31A"/>
<path id="Vector_20" opacity="0.1" d="M536.292 317.39C539.815 319.964 540.957 324.901 540.957 324.901C540.957 324.901 536.388 325.667 532.865 323.093C529.342 320.52 528.2 315.583 528.2 315.583C528.2 315.583 532.782 314.817 536.292 317.39Z" fill="black"/>
<path id="Vector_21" d="M553.536 315.26C553.536 315.26 542.355 339.415 551.468 352.649C560.581 365.883 550.638 401.873 550.638 401.873" stroke="#3FE724" stroke-miterlimit="10"/>
<path id="Vector_22" d="M550.23 307.743C550.23 312.398 553.332 316.181 553.332 316.181C553.332 316.181 556.433 312.405 556.433 307.743C556.433 303.08 553.332 299.304 553.332 299.304C553.332 299.304 550.23 303.087 550.23 307.743Z" fill="#34D31A"/>
<path id="Vector_23" opacity="0.1" d="M550.23 307.743C550.23 312.398 553.332 316.181 553.332 316.181C553.332 316.181 556.433 312.405 556.433 307.743C556.433 303.08 553.332 299.304 553.332 299.304C553.332 299.304 550.23 303.087 550.23 307.743Z" fill="black"/>
<path id="Vector_24" d="M551.123 327.453C548.156 330.772 547.933 335.892 547.933 335.892C547.933 335.892 552.547 335.603 555.514 332.284C558.482 328.965 558.705 323.846 558.705 323.846C558.705 323.846 554.085 324.134 551.123 327.453Z" fill="#34D31A"/>
<path id="Vector_25" opacity="0.1" d="M551.123 327.453C548.156 330.772 547.933 335.892 547.933 335.892C547.933 335.892 552.547 335.603 555.514 332.284C558.482 328.965 558.705 323.846 558.705 323.846C558.705 323.846 554.085 324.134 551.123 327.453Z" fill="black"/>
<path id="Vector_26" d="M556.937 350.539C553.97 353.859 553.746 358.978 553.746 358.978C553.746 358.978 558.36 358.69 561.328 355.37C564.295 352.051 564.519 346.932 564.519 346.932C564.519 346.932 559.905 347.206 556.937 350.539Z" fill="#34D31A"/>
<path id="Vector_27" d="M548.379 345.455C548.379 345.455 555.099 333.782 564.538 333.501" stroke="#34D31A" stroke-miterlimit="10"/>
<path id="Vector_28" d="M543.146 338.402C543.146 338.402 536.426 326.729 526.988 326.448" stroke="#3FE724" stroke-miterlimit="10"/>
<path id="Vector_29" d="M542.272 355.068C542.272 355.068 548.992 343.395 558.431 343.114" stroke="#34D31A" stroke-miterlimit="10"/>
<path id="Vector_30" d="M564.232 335.357C565.194 335.357 565.974 334.498 565.974 333.438C565.974 332.377 565.194 331.518 564.232 331.518C563.269 331.518 562.489 332.377 562.489 333.438C562.489 334.498 563.269 335.357 564.232 335.357Z" fill="#34D31A"/>
<path id="Vector_31" d="M527.154 328.466C528.116 328.466 528.896 327.606 528.896 326.546C528.896 325.486 528.116 324.626 527.154 324.626C526.191 324.626 525.411 325.486 525.411 326.546C525.411 327.606 526.191 328.466 527.154 328.466Z" fill="#34D31A"/>
<path id="Vector_32" d="M547.218 358.915C547.218 358.915 540.498 347.241 531.059 346.96" stroke="#34D31A" stroke-miterlimit="10"/>
<path id="Vector_33" d="M531.225 348.978C532.187 348.978 532.967 348.119 532.967 347.059C532.967 345.998 532.187 345.139 531.225 345.139C530.263 345.139 529.483 345.998 529.483 347.059C529.483 348.119 530.263 348.978 531.225 348.978Z" fill="#34D31A"/>
<path id="Vector_34" d="M558.558 345.132C559.52 345.132 560.3 344.272 560.3 343.212C560.3 342.152 559.52 341.292 558.558 341.292C557.596 341.292 556.816 342.152 556.816 343.212C556.816 344.272 557.596 345.132 558.558 345.132Z" fill="#34D31A"/>
<path id="Vector_35" d="M584.372 387.809C584.372 387.809 568.176 384.237 563.855 379.476C559.535 374.716 540.096 366.411 537.939 372.339C535.782 378.267 508.78 398.519 527.141 402.091C545.501 405.664 570.339 406.852 575.738 404.468C581.137 402.084 584.372 387.809 584.372 387.809Z" fill="#910808"/>
<path id="Vector_36" opacity="0.2" d="M527.134 399.897C545.495 403.47 570.333 404.658 575.732 402.274C579.841 400.46 582.7 391.726 583.83 387.704L584.372 387.83C584.372 387.83 581.131 402.112 575.732 404.489C570.333 406.866 545.495 405.678 527.134 402.112C521.838 401.079 520.319 398.66 520.893 395.601C521.346 397.591 523.21 399.131 527.134 399.897Z" fill="black"/>
<path id="Vector_37" d="M42.9174 413.589C42.9174 413.589 48.2653 421.324 40.4477 432.927C32.63 444.53 26.1844 454.381 28.7945 461.646C28.7945 461.646 40.5881 440.036 50.1862 439.734C59.7844 439.431 53.4729 426.584 42.9174 413.589Z" fill="#19861D"/>
<path id="Vector_38" opacity="0.1" d="M42.9174 413.589C43.3834 414.334 43.7509 415.148 44.0087 416.008C53.3771 428.131 58.3613 439.445 49.363 439.734C40.9774 440.001 30.9197 456.519 28.5074 460.696C28.587 461.018 28.6829 461.335 28.7946 461.646C28.7946 461.646 40.5881 440.036 50.1863 439.734C59.7844 439.431 53.4729 426.584 42.9174 413.589Z" fill="black"/>
<path id="Vector_39" d="M52.873 423.405C52.873 426.12 52.5986 428.328 52.2348 428.328C51.871 428.328 51.5966 426.127 51.5966 423.405C51.5966 420.684 51.9412 421.999 52.2795 421.999C52.6177 421.999 52.873 420.698 52.873 423.405Z" fill="#FFD037"/>
<path id="Vector_40" d="M56.2681 426.647C54.1047 427.948 52.2221 428.757 52.0625 428.398C51.903 428.039 53.5176 426.746 55.681 425.452C57.8444 424.158 56.9892 425.1 57.1552 425.452C57.3211 425.803 58.4315 425.346 56.2681 426.647Z" fill="#FFD037"/>
<path id="Vector_41" d="M14.6653 413.589C14.6653 413.589 9.31739 421.324 17.1351 432.927C24.9527 444.53 31.3983 454.381 28.7882 461.638C28.7882 461.638 16.9947 440.029 7.39647 439.727C-2.20172 439.424 4.10986 426.584 14.6653 413.589Z" fill="#19861D"/>
<path id="Vector_42" opacity="0.1" d="M14.6653 413.589C14.1993 414.334 13.8319 415.148 13.574 416.008C4.21199 428.131 -0.778558 439.445 8.2006 439.727C16.5862 439.994 26.6439 456.512 29.0562 460.689C28.9766 461.011 28.8808 461.328 28.769 461.638C28.769 461.638 16.9755 440.029 7.37735 439.727C-2.22084 439.424 4.10988 426.584 14.6653 413.589Z" fill="black"/>
<path id="Vector_43" d="M4.72891 423.405C4.72891 426.12 5.00333 428.328 5.36709 428.328C5.73085 428.328 6.00527 426.127 6.00527 423.405C6.00527 420.684 5.66065 421.999 5.32242 421.999C4.98418 421.999 4.72891 420.698 4.72891 423.405Z" fill="#FFD037"/>
<path id="Vector_44" d="M1.31466 426.647C3.47808 427.948 5.3607 428.757 5.52025 428.398C5.67979 428.039 4.0652 426.746 1.90178 425.452C-0.261641 424.158 0.593518 425.1 0.427592 425.452C0.261666 425.803 -0.848763 425.346 1.31466 426.647Z" fill="#FFD037"/>
<path id="Vector_45" d="M445.677 354.435C438.869 354.431 432.089 355.359 425.5 357.197L401.3 277.016L400.985 275.973L403.046 275.325C407.903 263.861 394.952 262.142 394.952 262.142L393.863 262.536C387.017 260.423 375.156 259.302 362.849 258.781V242.773C362.88 233.994 364.358 225.289 367.214 217.063C367.562 216.055 367.87 215.111 368.107 214.209C368.159 214.026 368.212 213.843 368.258 213.667L368.343 213.335C368.402 213.103 368.468 212.863 368.52 212.631C368.573 212.398 368.599 212.307 368.632 212.138C368.665 211.968 368.711 211.806 368.743 211.644L368.789 211.412C368.842 211.172 368.888 210.94 368.934 210.707C368.934 210.609 368.967 210.51 368.986 210.411C369.006 210.313 369.058 210.017 369.091 209.819C369.124 209.622 369.131 209.552 369.15 209.418C369.17 209.284 369.196 209.122 369.216 208.981C369.236 208.84 369.216 208.798 369.249 208.706C369.282 208.615 369.295 208.361 369.314 208.192V208.058C369.314 207.854 369.36 207.649 369.374 207.452C369.387 207.255 369.374 207.276 369.374 207.184C369.374 207.093 369.374 206.895 369.374 206.755C369.374 206.614 369.374 206.614 369.374 206.543C369.374 206.473 369.374 206.247 369.374 206.099C369.374 205.951 369.374 205.803 369.374 205.662C369.374 205.522 369.374 205.55 369.374 205.493C369.374 205.437 369.374 205.261 369.374 205.148C369.374 205.035 369.374 205 369.374 204.937C369.374 204.873 369.374 204.768 369.374 204.683C369.374 204.599 369.374 204.507 369.374 204.422C369.374 204.338 369.374 204.253 369.374 204.169C369.374 204.084 369.374 204.021 369.374 203.95C369.12 201.225 369.085 198.481 369.269 195.749L370.187 183.405C372.892 182.516 375.414 181.081 377.618 179.177C377.618 179.177 378.202 160.766 379.961 146.196C381.093 137.132 380.072 127.908 376.993 119.381C373.914 110.855 368.877 103.302 362.35 97.4243C361.169 96.3744 359.941 95.3669 358.662 94.4298C358.904 93.4333 359.088 92.4214 359.213 91.4001C359.798 90.2488 360.498 89.1691 361.3 88.1801C362.403 87.0105 363.926 86.3412 365.186 85.3618C367.936 83.1565 369.124 79.5631 369.912 76.1247C371.526 69.0789 371.992 61.42 369.255 54.7124C366.518 48.0048 359.863 42.5301 352.623 42.8824C350.404 42.9881 348.238 43.587 346.059 43.8618C340.296 44.4889 334.592 42.4526 328.81 42.0792C327.133 41.8585 325.432 42.101 323.867 42.7838C322.693 43.4739 321.677 44.4368 320.894 45.6021C318.247 49.2788 316.432 53.5648 315.59 58.1226C314.881 61.5539 314.881 64.6611 310.923 65.1684C306.467 65.7673 292.164 62.5544 295.17 72.6722C296.608 77.4564 303.506 77.6043 307.044 81.1272C308.882 82.9592 309.729 85.6648 311.75 87.2994L311.829 87.3558C302.64 87.5037 287.471 91.4071 278.531 113.242C265.049 146.189 256.956 156.926 246.165 165.529C235.9 173.71 231.128 200.054 230.688 202.576C227.846 210.277 226.297 224.418 235.375 247.895C243.067 267.8 249.762 281.349 254.482 291.53L253.556 291.438C251.587 291.277 249.628 290.997 247.688 290.6C240.081 289.05 220.908 285.809 215.749 291.305C209.271 298.181 211.43 310.223 228.699 311.942C232.648 312.297 236.613 312.396 240.573 312.238V342.429L240.199 342.676C236.819 344.839 233.563 346.776 231.371 348.052L230.57 348.517C229.938 347.401 229.41 346.221 228.995 344.994L211.168 357.578L220.016 365.462L211.017 375.446C210.734 375.178 210.459 374.904 210.176 374.636C195.729 361.372 177.333 354.103 158.323 354.146C114.51 354.146 79 391.877 79 438.415C79 484.952 114.516 522.683 158.323 522.683C197.561 522.683 230.143 492.386 236.517 452.661C251.613 453.866 265.647 454.233 274.862 452.788V462.497H315.315V450.759L316.325 450.689C334.527 449.279 325.088 440.662 325.088 440.662C320.913 440.662 316.319 438.168 313.089 435.991C311.954 435.223 310.786 434.525 309.591 433.877C310.687 429.701 310.354 425.242 308.652 421.307L400.919 319.143L415.018 360.995L414.079 361.411C385.993 374.375 366.348 404.116 366.348 438.732C366.348 485.277 401.864 523 445.671 523C489.477 523 525 485.241 525 438.739C525 392.236 489.47 354.435 445.677 354.435ZM449.904 501.877L446.622 447.49C447.229 447.398 447.826 447.238 448.401 447.011L475.509 493.436C467.676 498.285 458.923 501.171 449.904 501.877V501.877ZM396.994 475.891L438.509 443.925L438.588 444.037L421.562 496.804C411.791 492.293 403.312 485.076 396.994 475.891V475.891ZM473.527 382.231L450.744 430.587C449.679 429.524 448.381 428.768 446.97 428.388L446.419 426.564L447.988 374.847C456.906 375.238 465.631 377.758 473.527 382.224V382.231ZM445.218 422.533L431.342 376.573C435.948 375.397 440.667 374.803 445.401 374.805H446.662L445.218 422.533ZM420.551 380.519C420.86 380.371 421.207 380.237 421.483 380.089L438.601 430.988C437.925 431.728 437.37 432.586 436.96 433.525L393.075 407.385C394.726 404.284 396.616 401.338 398.727 398.578L403.623 392.863C408.566 387.739 414.292 383.564 420.551 380.519ZM392.491 408.639L436.56 434.892C436.361 435.668 436.26 436.469 436.258 437.273C436.258 437.393 436.258 437.513 436.258 437.633L385.547 436.674C385.784 426.88 388.153 417.281 392.465 408.646L392.491 408.639ZM454.013 437.435L502.598 419.447C505.181 428.269 505.929 437.592 504.789 446.758C503.65 455.924 500.65 464.71 496.001 472.495L452.759 443.22C453.608 441.785 454.063 440.122 454.072 438.422C454.06 438.094 454.032 437.767 453.987 437.442L454.013 437.435ZM502.204 418.08L453.757 436.019C453.272 434.506 452.61 433.064 451.788 431.728L474.761 382.908C487.636 390.595 497.403 403.127 502.178 418.087L502.204 418.08ZM388.133 281.18L391.539 291.283L332.781 310.716L332.17 297.688L365.645 287.119C365.715 287.925 365.668 288.738 365.508 289.529C366.353 288.577 367.116 287.544 367.785 286.443L387.752 280.144L388.133 281.18ZM162.55 501.574L159.268 447.321C159.932 447.31 160.593 447.218 161.237 447.046L188.149 493.175C180.314 498.009 171.563 500.88 162.55 501.574V501.574ZM109.64 475.603L151.155 443.671L151.234 443.784L134.208 496.515C124.436 492.004 115.958 484.787 109.64 475.603V475.603ZM98.1727 436.385C98.414 426.59 100.788 416.991 105.104 408.357L149.921 435.054C149.679 435.788 149.527 436.553 149.468 437.33L98.1727 436.385ZM186.173 381.942L165.412 426.056L162.235 429.579C161.244 429.17 160.192 428.96 159.13 428.959H159.006L160.627 374.565C169.547 374.954 178.275 377.474 186.173 381.942V381.942ZM206.035 400.05C209.826 405.425 212.791 411.417 214.817 417.799L171.175 433.955L206.035 400.05ZM168.654 436.407L215.257 419.165C215.694 420.72 216.097 422.301 216.465 423.907C216.543 424.274 216.616 424.612 216.688 424.999C195.743 429.671 176.209 434.828 168.037 437.034L168.654 436.407ZM157.653 428.98C156.353 429.037 155.08 429.408 153.932 430.065L136.282 378.849C143.226 375.975 150.605 374.506 158.047 374.516C158.467 374.516 158.887 374.516 159.307 374.516L157.653 428.98ZM152.75 430.883C151.805 431.653 151.018 432.624 150.44 433.736L105.754 407.096C107.401 403.988 109.29 401.035 111.399 398.268L116.308 392.532C121.725 386.924 128.075 382.459 135.028 379.371L152.75 430.883ZM216.76 450.717C215.315 458.356 212.56 465.641 208.634 472.199L166.193 443.467C174.85 444.946 195.224 448.258 216.76 450.717ZM235.709 419.856C233.079 407.484 227.858 395.919 220.442 386.036L222.523 384.014L240.613 402.974V420.081C239.064 420.368 237.504 420.664 235.933 420.969C235.86 420.596 235.795 420.229 235.716 419.863L235.709 419.856ZM240.613 383.845L240.219 383.436L240.613 383.781V383.845ZM254.646 359.022L254.692 358.987L255.683 358.282L256.123 357.965L256.608 357.62L257.16 357.233L257.672 356.88L258.295 356.45L258.814 356.098L259.575 355.591L260.041 355.281L260.855 354.752C261.177 357.949 261.92 361.08 263.061 364.053L263.317 389.298C259.511 384.706 256.567 379.369 254.646 373.579V359.022ZM329.873 248.403C331.468 249.924 332.498 250.869 332.498 250.869C332.498 250.869 335.879 254.138 339.725 258.365C336.305 258.365 333.129 258.365 330.339 258.443L329.873 248.403ZM331.048 273.521C336.529 273.725 343.657 273.93 351.244 273.986C351.297 274.162 351.35 274.338 351.382 274.5C352.932 275.014 354.447 275.64 355.918 276.374L331.593 285.238L331.048 273.521ZM337.231 227.23C337.231 227.23 332.223 213.138 326.112 202.485C329.335 192.353 335.341 181.636 346.558 176.887L346.479 177.853L346.44 178.374C346.085 182.82 345.678 188.238 345.331 193.804V194.128C345.291 194.791 345.25 195.455 345.206 196.122V196.468L345.16 197.285L345.114 198.088L345.075 198.793C345.048 199.262 345.022 199.732 344.996 200.202V200.604C344.996 201.007 344.976 201.411 344.937 201.815V202.287C344.915 202.757 344.893 203.241 344.871 203.739V203.823C344.845 204.364 344.823 204.899 344.805 205.43V205.669C344.805 206.139 344.788 206.628 344.753 207.135V207.248C344.714 208.323 344.683 209.373 344.661 210.397V210.51C344.661 211.532 344.622 212.518 344.609 213.469V213.554C344.609 214.512 344.609 215.428 344.609 216.295C344.609 216.713 344.609 217.121 344.609 217.521V217.598C344.609 218.387 344.654 219.127 344.694 219.81V219.937C344.733 220.6 344.786 221.213 344.845 221.755V221.882C344.871 222.112 344.9 222.331 344.93 222.537V222.65C344.97 222.875 345.002 223.094 345.048 223.284V223.362C345.081 223.524 345.121 223.672 345.16 223.805L345.193 223.925C345.235 224.063 345.285 224.197 345.344 224.327C346.466 226.708 347.004 234.036 347.247 241.794C341.465 233.775 337.224 227.216 337.224 227.216L337.231 227.23ZM254.646 416.587V396.274L263.468 404.123L263.592 416.601C260.77 416.897 257.77 417.305 254.639 417.742L254.646 416.587ZM254.646 311.096C256.93 310.786 259.175 310.392 261.347 310.011C261.671 311.755 261.795 313.534 261.715 315.31V326.055H262.168C259.569 327.822 257.059 329.734 254.646 331.783V311.103V311.096ZM197.581 390.355L168.562 422.533L187.348 382.619C190.672 384.605 193.813 386.927 196.727 389.552C197.023 389.813 197.298 390.123 197.581 390.355ZM98.153 438.133C98.153 438.027 98.153 437.921 98.153 437.816L149.468 438.788C149.551 440.063 149.884 441.304 150.446 442.431L108.878 474.44C101.893 463.819 98.1456 451.134 98.153 438.133V438.133ZM158.054 501.764C150.31 501.773 142.637 500.18 135.455 497.071L152.278 444.932C153.832 446.425 155.837 447.263 157.922 447.292L161.204 501.665C160.161 501.729 159.111 501.764 158.054 501.764ZM189.31 492.407L162.537 446.56C163.565 446.09 164.499 445.41 165.287 444.559L207.886 473.404C203.045 481.104 196.708 487.587 189.31 492.407V492.407ZM297.73 411.33C296.178 410.86 294.572 410.623 292.958 410.626H292.42H291.882C289.153 410.617 286.461 411.301 284.025 412.62C282.883 405.053 282.305 395.414 284.859 387.995C286.379 383.513 287.521 378.893 288.272 374.192L293.753 340.921L395.734 303.776L396.981 307.482L297.73 411.33ZM385.507 438.422C385.507 438.316 385.507 438.21 385.507 438.105L436.396 439.07C436.772 440.321 437.232 441.541 437.774 442.72L396.206 474.729C389.23 464.104 385.492 451.42 385.507 438.422V438.422ZM445.408 502.053C437.664 502.062 429.991 500.469 422.809 497.36L439.632 445.221C441.186 446.713 443.191 447.552 445.277 447.581L448.559 501.961C447.513 502.022 446.463 502.053 445.408 502.053V502.053ZM476.671 492.703L449.635 446.412C450.514 445.885 451.3 445.199 451.959 444.383L495.279 473.7C490.428 481.403 484.08 487.886 476.671 492.703V492.703Z" fill="url(#paint0_linear)"/>
<path id="Vector_46" d="M246.974 389.788L219.72 360.152L211.203 369.662L238.457 399.298L246.974 389.788Z" fill="#63FFCB"/>
<path id="Vector_47" d="M226.221 345.969C226.221 345.969 242.041 336.771 248.155 330.85C251.836 327.302 255.793 324.118 259.981 321.335L279.828 308.024L321.309 304.508L323.224 312.243C323.224 312.243 326.415 323.494 294.506 333.339C262.597 343.184 246.643 358.654 246.643 358.654C246.643 358.654 226.221 366.362 226.221 345.969Z" fill="#DB8B8B"/>
<path id="Vector_48" opacity="0.1" d="M248.334 357.128C247.204 358.078 246.643 358.626 246.643 358.626C246.643 358.626 226.221 366.362 226.221 345.969C226.221 345.969 227.21 345.392 228.774 344.429C230.353 347.263 232.566 349.604 235.201 351.228C237.835 352.851 240.803 353.704 243.822 353.704H245.985L248.334 357.128Z" fill="black"/>
<path id="Vector_49" opacity="0.05" d="M322.624 316.125C320.85 320.267 314.73 327.074 294.506 333.311C268.59 341.306 253.197 353.001 248.334 357.128C247.204 358.078 246.643 358.626 246.643 358.626C246.643 358.626 226.221 366.362 226.221 345.969C226.221 345.969 227.21 345.392 228.774 344.429C233.515 341.567 243.554 335.287 248.136 330.822C251.816 327.272 255.773 324.089 259.961 321.307L279.809 307.996L287.199 307.37L321.29 304.48L323.205 312.215C323.205 312.215 323.652 313.727 322.624 316.125Z" fill="black"/>
<path id="Vector_50" opacity="0.1" d="M322.624 316.125C312.413 310.689 287.486 310.105 287.486 310.105L287.218 307.37L321.309 304.48L323.224 312.215C323.224 312.215 323.652 313.727 322.624 316.125Z" fill="black"/>
<path id="Vector_51" d="M287.486 308.699C287.486 308.699 317.48 309.402 325.139 316.434L321.309 231.347H279.828L287.486 308.699Z" fill="#ABB1D1"/>
<path id="Vector_52" d="M311.584 256.634C311.584 256.634 386.665 253.821 388.197 264.517C389.728 275.212 313.115 270.705 313.115 270.705C313.115 270.705 306.989 263.947 311.584 256.634Z" fill="#535461"/>
<path id="Vector_53" opacity="0.1" d="M250.804 299.403V309.198C246.387 309.831 241.869 310.232 237.523 310.387V299.403H250.804Z" fill="black"/>
<path id="Vector_54" opacity="0.1" d="M417.1 372.592C413.912 373.5 410.802 374.717 407.808 376.227L401.707 357.445C404.909 355.907 408.206 354.622 411.573 353.598L417.1 372.592Z" fill="black"/>
<path id="Vector_55" opacity="0.1" d="M389.614 274.622L377.156 278.7L374.923 271.83L386.672 264.51L389.614 274.622Z" fill="black"/>
<path id="Vector_56" opacity="0.1" d="M234.715 433.074C234.715 437.388 234.412 441.695 233.809 445.957C227.682 445.472 221.352 444.769 215.149 444.065C216.527 435.704 216.355 427.121 214.645 418.835C220.688 417.428 226.859 416.085 232.884 414.868C234.104 420.844 234.719 426.95 234.715 433.074V433.074Z" fill="black"/>
<path id="Vector_57" opacity="0.1" d="M250.804 411.641V426.598H237.523V413.94C242.118 413.061 246.585 412.281 250.804 411.641Z" fill="black"/>
<path id="Vector_58" opacity="0.1" d="M217.752 380.693L204.121 394.44C201.707 391.026 198.978 387.896 195.978 385.102L208.703 370.454C211.979 373.576 215.007 377.001 217.752 380.693V380.693Z" fill="black"/>
<path id="Vector_59" opacity="0.1" d="M160.399 441.801C164.914 441.801 168.575 437.768 168.575 432.793C168.575 427.818 164.914 423.785 160.399 423.785C155.885 423.785 152.224 427.818 152.224 432.793C152.224 437.768 155.885 441.801 160.399 441.801Z" fill="black"/>
<path id="Vector_60" opacity="0.1" d="M430.853 440.957C435.368 440.957 439.028 436.924 439.028 431.949C439.028 426.974 435.368 422.941 430.853 422.941C426.338 422.941 422.678 426.974 422.678 431.949C422.678 436.924 426.338 440.957 430.853 440.957Z" fill="black"/>
<path id="Vector_61" opacity="0.1" d="M286.044 441.801C295.07 441.801 302.387 433.738 302.387 423.792C302.387 413.846 295.07 405.783 286.044 405.783C277.017 405.783 269.7 413.846 269.7 423.792C269.7 433.738 277.017 441.801 286.044 441.801Z" fill="black"/>
<path id="Vector_62" d="M282.708 422.439L282.702 422.443C280.783 424.025 280.391 427.022 281.826 429.137L294.798 448.25C296.233 450.365 298.953 450.797 300.872 449.216L300.877 449.211C302.796 447.63 303.189 444.633 301.753 442.518L288.782 423.405C287.346 421.29 284.627 420.858 282.708 422.439Z" fill="#63FFCB"/>
<path id="Vector_63" d="M360.876 173.684L359.358 194.857C359.183 197.539 359.215 200.233 359.453 202.909C359.651 205.279 359.453 209.428 357.347 215.757C354.643 223.841 353.246 232.385 353.218 241.002V265.1L338.54 262.288C338.54 262.288 339.178 228.534 336.626 222.908C334.073 217.283 338.54 167.355 338.54 167.355L360.876 173.684Z" fill="#DB8B8B"/>
<path id="Vector_64" opacity="0.1" d="M290.817 316.153C281.966 321.947 266.567 323.586 260.287 324.015C261.563 316.476 261.959 305.886 261.959 305.886C261.959 305.886 272.17 286.9 284.295 299.557C288.762 304.22 290.46 310.316 290.817 316.153Z" fill="black"/>
<path id="Vector_65" opacity="0.1" d="M360.876 173.684L360.123 184.176C349.019 187.692 341.093 176.497 341.093 176.497C339.935 176.839 338.797 177.259 337.685 177.756C338.164 171.603 338.54 167.355 338.54 167.355L360.876 173.684Z" fill="black"/>
<path id="Vector_66" opacity="0.1" d="M315.228 220.377C314.928 223.661 314.928 225.721 314.928 225.721C314.928 225.721 300.25 239.082 275.361 218.689C250.472 198.296 228.136 203.922 228.136 203.922C228.136 203.922 228.397 202.29 228.927 199.703C230.688 195.729 232.603 194.077 232.603 194.077L312.375 210.954L315.228 220.377Z" fill="black"/>
<path id="Vector_67" opacity="0.05" d="M317.646 204.224C316.002 210.534 315.089 217.049 314.928 223.611C314.928 223.611 311.048 227.127 303.9 227.831C303.699 227.383 303.544 226.911 303.441 226.424C302.164 220.095 292.591 208.844 292.591 208.844C286.21 202.515 284.933 191.264 284.933 191.264L274.403 157.159L270.893 153.994C270.893 153.994 285.572 141.337 298.335 151.885C311.099 162.433 307.27 184.935 307.27 184.935L309.822 192.67C312.471 195.132 315.164 199.47 317.646 204.224Z" fill="black"/>
<path id="Vector_68" opacity="0.1" d="M281.104 419.805L264.512 429.65L259.406 425.431V422.618C265.14 422.169 270.71 420.317 275.712 417.196C277.243 416.24 278.686 415.297 279.841 414.468C280.511 417.723 281.104 419.805 281.104 419.805Z" fill="black"/>
<path id="Vector_69" opacity="0.1" d="M300.25 123.757L309.184 162.433C309.184 162.433 281.742 167.355 275.999 162.433C270.255 157.51 259.406 156.104 259.406 156.104C259.406 156.104 270.893 119.537 277.275 115.318C283.657 111.099 300.25 123.757 300.25 123.757Z" fill="black"/>
<path id="Vector_70" opacity="0.1" d="M345.796 104.419C344.009 107.137 341.736 109.424 339.116 111.139C336.497 112.854 333.587 113.96 330.565 114.389C327.543 114.819 324.474 114.562 321.546 113.636C318.617 112.71 315.891 111.133 313.536 109.003C312.747 106.711 312.151 104.343 311.756 101.929L342.388 96.3036C342.388 96.3036 346.058 95.1715 345.796 104.419Z" fill="black"/>
<path id="Vector_71" opacity="0.1" d="M350.027 89.2997C350.029 91.568 349.746 93.8257 349.185 96.0082C347.459 96.4229 345.658 96.2412 344.029 95.4879C341.642 94.4542 339.593 92.6751 337.302 91.3952C330.85 87.7948 323.173 88.5051 316.025 89.6935C312.477 90.2842 308.45 90.8327 305.661 88.3433C305.565 88.26 305.474 88.1708 305.387 88.0761C305.534 81.5486 308.029 75.3529 312.322 70.8519C316.615 66.351 322.354 63.9136 328.278 64.0758C334.202 64.2381 339.825 66.9867 343.91 71.7171C347.995 76.4475 350.207 82.7722 350.059 89.2997H350.027Z" fill="black"/>
<path id="Vector_72" opacity="0.05" d="M245.685 164.894C245.685 164.894 262.278 169.816 267.383 182.474C272.489 195.132 286.299 197.445 286.299 197.445" fill="black"/>
<path id="Vector_73" d="M308.227 443.362H269.936V456.723H308.227V443.362Z" fill="#63FFCB"/>
<g id="Vector_74" opacity="0.1" filter="url(#filter0_d)">
<path d="M308.227 443.362H269.936V456.723H308.227V443.362Z" fill="#392828"/>
<path d="M270.436 443.862H307.727V456.223H270.436V443.862Z" stroke="black"/>
</g>
<path id="Vector_75" opacity="0.1" d="M246.974 389.788L219.72 360.152L211.203 369.662L238.457 399.298L246.974 389.788Z" fill="black"/>
<path id="Vector_76" d="M226.54 341.398L209.628 353.704L259.151 399.412C259.151 399.412 266.426 394.49 262.597 388.864C262.597 388.864 249.834 376.91 249.195 360.033L245.366 354.407H243.203C239.545 354.408 235.977 353.156 232.992 350.826C230.007 348.495 227.752 345.201 226.54 341.398V341.398Z" fill="#ABB1D1"/>
<path id="Vector_77" opacity="0.05" d="M287.486 308.347C287.486 308.347 317.48 309.051 325.139 316.083L321.309 230.995H279.828L287.486 308.347Z" fill="black"/>
<path id="Vector_78" opacity="0.05" d="M311.584 256.634C311.584 256.634 386.665 253.821 388.197 264.517C389.728 275.212 313.115 270.705 313.115 270.705C313.115 270.705 306.989 263.947 311.584 256.634Z" fill="black"/>
<path id="Vector_79" d="M250.804 299.41H237.523V426.605H250.804V299.41Z" fill="#FF6363"/>
<path id="Vector_80" d="M249.808 288.862C247.945 288.703 246.091 288.428 244.256 288.039C237.057 286.52 218.908 283.334 214.025 288.742C207.899 295.493 209.941 307.314 226.285 309.001C242.629 310.689 270.721 306.188 276.344 299.431C276.344 299.403 266.177 290.247 249.808 288.862Z" fill="#535461"/>
<path id="Vector_81" d="M247.23 334.303L386.672 286.464L391.266 298.284L248.251 352.312L247.23 334.303Z" fill="#FF6363"/>
<path id="Vector_82" d="M288.603 409.721L389.224 300.535L394.84 309.536L298.814 419.847L288.603 409.721Z" fill="#FF6363"/>
<path id="Vector_83" d="M434.171 427.73L427.023 432.23L377.156 278.7L374.923 271.83L386.672 264.51L389.614 274.622L434.171 427.73Z" fill="#FF6363"/>
<path id="Vector_84" d="M313.626 286.464L383.602 260.009C383.602 260.009 395.861 261.697 391.26 272.955L320.78 296.027C320.78 296.027 310.058 297.152 313.626 286.464Z" fill="#535461"/>
<path id="Vector_85" d="M164.994 432.814C164.994 432.814 272.259 401.873 280.938 413.68C289.618 425.487 298.814 441.253 271.768 446.878C244.722 452.504 162.971 437.308 162.971 437.308L164.994 432.814Z" fill="#FF6363"/>
<path id="Vector_86" d="M161.421 426.605L241.608 334.303L244.167 355.687L165.505 435.043L161.421 426.605Z" fill="#FF6363"/>
<path id="Vector_87" d="M287.071 441.801C296.098 441.801 303.415 433.738 303.415 423.792C303.415 413.846 296.098 405.783 287.071 405.783C278.045 405.783 270.728 413.846 270.728 423.792C270.728 433.738 278.045 441.801 287.071 441.801Z" fill="#535461"/>
<path id="Vector_88" opacity="0.05" d="M360.123 184.176L359.358 194.857C359.185 197.537 359.219 200.229 359.46 202.902C359.657 205.272 359.46 209.421 357.354 215.757C354.65 223.841 353.252 232.385 353.225 241.002V265.1L338.547 262.288C338.547 262.288 339.185 228.534 336.632 222.908C334.826 218.921 336.536 192.713 337.691 177.756C338.17 171.603 338.547 167.355 338.547 167.355L360.883 173.684L360.123 184.176Z" fill="black"/>
<path id="Vector_89" d="M288.137 335.421L282.617 370.018C281.921 374.637 280.853 379.179 279.426 383.59C276.19 393.336 278.258 407 279.828 414.454C280.524 417.745 281.104 419.826 281.104 419.826L264.512 429.671L259.406 425.452V422.639L258.768 360.054C254.939 350.209 256.215 335.442 258.768 329.816C259.494 327.968 260.004 326.025 260.287 324.036C261.563 316.497 261.959 305.907 261.959 305.907C261.959 305.907 272.17 286.921 284.295 299.578C288.762 304.241 290.46 310.337 290.817 316.174C291.443 326.166 288.137 335.421 288.137 335.421Z" fill="#DB8B8B"/>
<path id="Vector_90" d="M312.375 298.854C305.589 302.836 299.176 307.547 293.23 312.918C283.019 322.06 257.492 322.763 257.492 322.763V312.215C258.13 299.557 247.281 285.493 232.603 246.114C223.228 220.967 225.825 206.735 228.927 199.703C230.688 195.729 232.603 194.077 232.603 194.077L312.375 210.954L315.228 220.377L321.309 240.488C321.309 240.488 298.973 241.895 295.144 244.004C291.315 246.114 293.868 265.1 293.868 265.1C290.039 284.79 312.375 298.854 312.375 298.854Z" fill="#ABB1D1"/>
<path id="Vector_91" d="M369.479 146.224C367.813 160.534 367.258 178.571 367.258 178.571C352.58 191.229 341.093 175.055 341.093 175.055C327.232 179.155 320.716 192.523 317.646 204.189C316.002 210.499 315.089 217.013 314.928 223.576C314.928 223.576 311.048 227.092 303.9 227.795C297.142 228.421 287.454 226.48 275.361 216.544C250.472 196.151 228.136 201.777 228.136 201.777C228.136 201.777 232.603 173.649 242.814 165.21C253.025 156.772 260.683 146.224 273.446 113.877C286.21 81.5293 312.375 89.2645 312.375 89.2645C312.375 89.2645 313.651 82.9357 337.264 89.2645C343.015 90.9255 348.339 94.0329 352.816 98.3429C365.446 110.044 371.572 128.194 369.479 146.224Z" fill="#4D399C"/>
<path id="Vector_92" d="M345.796 105.122C345.764 106.057 345.694 107.098 345.579 108.258C344.303 120.916 343.027 119.509 328.987 122.322C320.256 124.073 315.719 116.035 313.536 109.707C312.747 107.414 312.151 105.046 311.756 102.632L342.388 97.0068C342.388 97.0068 346.058 95.8747 345.796 105.122Z" fill="#DB8B8B"/>
<path id="Vector_93" d="M272.808 153.291L286.848 190.561C286.848 190.561 288.124 201.812 294.506 208.141C294.506 208.141 304.079 219.392 305.355 225.721C306.631 232.05 324.5 248.927 324.5 248.927C324.5 248.927 341.093 265.804 342.369 272.132C342.369 272.132 357.686 277.055 355.771 286.9C355.771 286.9 367.258 274.242 355.771 262.288C344.284 250.333 328.968 225.721 328.968 225.721C328.968 225.721 320.033 199.703 311.737 191.967L309.184 184.232C309.184 184.232 313.013 161.73 300.25 151.182C287.486 140.634 272.808 153.291 272.808 153.291Z" fill="#DB8B8B"/>
<path id="Vector_94" d="M300.25 122.35L309.184 161.026C309.184 161.026 281.742 165.949 275.999 161.026C270.255 156.104 259.406 154.698 259.406 154.698C259.406 154.698 270.893 118.131 277.275 113.912C283.657 109.693 300.25 122.35 300.25 122.35Z" fill="#2421A8"/>
<path id="Vector_95" d="M350.027 89.2997C350.027 95.8272 347.674 102.087 343.485 106.703C339.296 111.319 333.615 113.912 327.691 113.912C321.767 113.912 316.086 111.319 311.897 106.703C307.708 102.087 305.355 95.8272 305.355 89.2997C305.355 88.8918 305.355 88.484 305.355 88.0761C305.502 81.5486 307.997 75.3529 312.29 70.8519C316.583 66.351 322.323 63.9136 328.246 64.0758C334.17 64.2381 339.793 66.9867 343.878 71.7171C347.963 76.4475 350.175 82.7722 350.027 89.2997V89.2997Z" fill="#DB8B8B"/>
<path id="Vector_96" d="M289.196 74.0754C290.556 78.7728 297.084 78.9204 300.435 82.3802C302.177 84.1804 302.987 86.8385 304.902 88.4418C307.563 90.678 311.405 90.1857 314.794 89.6513C321.616 88.5824 328.942 87.9425 335.094 91.1843C337.277 92.3305 339.236 93.9338 341.514 94.8691C343.792 95.8043 346.62 95.9168 348.47 94.2573C349.951 92.9282 350.493 90.7413 351.833 89.2786C352.874 88.1253 354.322 87.4784 355.509 86.4658C358.113 84.2999 359.236 80.7698 359.977 77.3945C361.508 70.4468 361.949 62.9577 359.338 56.3687C356.728 49.7797 350.449 44.4143 343.595 44.7588C341.495 44.8643 339.446 45.462 337.353 45.7152C331.897 46.327 326.504 44.3088 321.029 43.9642C319.44 43.7513 317.829 43.9935 316.351 44.6674C315.236 45.3501 314.275 46.2992 313.536 47.4451C311.03 51.0634 309.313 55.2695 308.52 59.7371C307.882 63.1054 307.85 66.1573 304.104 66.6777C299.848 67.2965 286.318 64.1391 289.196 74.0754Z" fill="#472727"/>
<path id="Vector_97" d="M275.686 418.567C279.113 416.458 282.119 414.348 282.381 413.476C282.381 413.476 291.028 423.532 298.731 426.654C301.321 427.708 303.801 429.066 306.127 430.705C309.178 432.814 313.53 435.297 317.48 435.297C317.48 435.297 326.415 443.735 309.184 445.141C291.953 446.548 251.748 441.625 251.748 441.625L254.301 424.045C261.759 424.527 269.185 422.625 275.686 418.567Z" fill="#ABB1D1"/>
</g>
</g>
<defs>
<filter id="filter0_d" x="265.936" y="443.362" width="46.2906" height="21.3609" filterUnits="userSpaceOnUse" color-interpolation-filters="sRGB">
<feFlood flood-opacity="0" result="BackgroundImageFix"/>
<feColorMatrix in="SourceAlpha" type="matrix" values="0 0 0 0 0 0 0 0 0 0 0 0 0 0 0 0 0 0 127 0"/>
<feOffset dy="4"/>
<feGaussianBlur stdDeviation="2"/>
<feColorMatrix type="matrix" values="0 0 0 0 0 0 0 0 0 0 0 0 0 0 0 0 0 0 0.25 0"/>
<feBlend mode="normal" in2="BackgroundImageFix" result="effect1_dropShadow"/>
<feBlend mode="normal" in="SourceGraphic" in2="effect1_dropShadow" result="shape"/>
</filter>
<linearGradient id="paint0_linear" x1="301.997" y1="522.979" x2="301.997" y2="42.0581" gradientUnits="userSpaceOnUse">
<stop stop-color="#808080" stop-opacity="0.25"/>
<stop offset="0.54" stop-color="#808080" stop-opacity="0.12"/>
<stop offset="1" stop-color="#808080" stop-opacity="0.1"/>
</linearGradient>
<clipPath id="clip0">
<rect width="675" height="552" fill="white"/>
</clipPath>
</defs>
</svg>
