<svg width="559" height="375" viewBox="0 0 559 375" fill="none" xmlns="http://www.w3.org/2000/svg">
<g clip-path="url(#clip0)">
<g opacity="0.1" filter="url(#filter0_d)">
<path d="M290.791 375C388.953 375 468.529 371.138 468.529 366.375C468.529 361.611 388.953 357.75 290.791 357.75C192.629 357.75 113.053 361.611 113.053 366.375C113.053 371.138 192.629 375 290.791 375Z" fill="#864E0C"/>
</g>
<path d="M391.468 332.559L389.94 334.569L380.488 347.178L372.463 349.348L366.476 344.095L366.766 340.627L368.259 322.623C368.259 322.623 331.217 303.084 327.905 299.429C324.593 295.774 311.855 292.462 311.855 292.462C311.855 292.462 292.365 284.353 285.105 270.191C277.844 256.029 297.206 253.859 297.206 253.859L369.941 316.227L391.468 332.559Z" fill="#FFC1C7"/>
<path d="M400.385 339.869L377.329 359.17C377.329 359.17 364.081 361.455 352.235 359.856C344.663 358.832 346.12 355.109 348.113 352.546L348.148 352.5C349.342 351.035 351.086 350.006 353.06 349.604C362.863 347.484 366.247 341.12 366.247 341.12L373.38 346.603L385.736 333.692L394.872 337.539L400.385 339.869Z" fill="#575988"/>
<path opacity="0.1" d="M394.872 337.548L389.445 335.264L389.955 334.569L391.483 332.559L369.941 316.227L297.206 253.868C297.206 253.868 277.844 256.029 285.105 270.191C292.365 284.353 311.855 292.462 311.855 292.462C311.855 292.462 324.593 295.774 327.905 299.429C331.217 303.084 368.285 322.614 368.285 322.614L366.792 340.618L366.721 341.477L366.247 341.116C366.247 341.116 362.863 347.48 353.06 349.6C351.086 350.001 349.342 351.03 348.148 352.496L348.113 352.542C346.075 355.1 344.663 358.823 352.235 359.851C364.081 361.45 377.329 359.166 377.329 359.166L400.385 339.864L394.872 337.548Z" fill="black"/>
<path opacity="0.1" d="M6.03787 196.434C14.8832 230.331 33.6083 259.633 63.1964 273.846C124.701 303.367 263.399 288.14 366.909 270.648C419.216 261.841 466.695 237.505 501.699 201.559L6.03787 196.434Z" fill="#918EC6"/>
<path opacity="0.1" d="M548.86 36.8764H492.064C490.789 36.8396 489.58 36.3597 488.693 35.5383C487.806 34.7168 487.31 33.6182 487.31 32.4747C487.31 31.3313 487.806 30.2327 488.693 29.4112C489.58 28.5898 490.789 28.1099 492.064 28.0731H501.882C500.581 28.0731 499.333 27.6095 498.413 26.7845C497.492 25.9595 496.975 24.8404 496.975 23.6737C496.975 22.5069 497.492 21.3879 498.413 20.5628C499.333 19.7378 500.581 19.2743 501.882 19.2743H494.871C493.597 19.2374 492.388 18.7575 491.501 17.9361C490.614 17.1146 490.118 16.016 490.118 14.8726C490.118 13.7291 490.614 12.6305 491.501 11.809C492.388 10.9876 493.597 10.5077 494.871 10.4709H524.515C517.937 7.72981 510.249 5.77909 501.388 4.75576C420.557 -4.55014 391.697 1.60354 381.517 7.95367C368.957 15.7657 354.945 21.5128 339.97 24.2813C290.098 33.5049 196.83 44.6017 112.294 20.727C70.2788 8.84908 39.0551 28.9136 20.3351 62.4277H558.72C558.017 52.6878 555.912 43.6971 552.05 35.8211C551.162 36.5032 550.03 36.8775 548.86 36.8764V36.8764Z" fill="#918EC6"/>
<path opacity="0.1" d="M1.21775 125.678C-0.963775 145.393 -0.223625 165.28 3.4189 184.821L502.081 201.171C515.964 186.856 527.62 170.919 536.729 153.796L1.21775 125.678ZM198.445 167.858H188.626C189.284 167.839 189.94 167.939 190.554 168.151C191.168 168.364 191.728 168.685 192.201 169.096C192.674 169.506 193.05 169.998 193.307 170.542C193.564 171.085 193.696 171.669 193.696 172.26C193.696 172.85 193.564 173.434 193.307 173.978C193.05 174.521 192.674 175.013 192.201 175.424C191.728 175.834 191.168 176.155 190.554 176.368C189.94 176.581 189.284 176.68 188.626 176.661H131.829C130.555 176.625 129.346 176.145 128.459 175.323C127.572 174.502 127.076 173.403 127.076 172.26C127.076 171.116 127.572 170.018 128.459 169.196C129.346 168.375 130.555 167.895 131.829 167.858H141.648C140.347 167.858 139.099 167.395 138.178 166.569C137.258 165.744 136.741 164.625 136.741 163.459C136.741 162.292 137.258 161.173 138.178 160.348C139.099 159.523 140.347 159.059 141.648 159.059H134.637C133.362 159.022 132.154 158.542 131.266 157.721C130.379 156.9 129.883 155.801 129.883 154.658C129.883 153.514 130.379 152.415 131.266 151.594C132.154 150.773 133.362 150.293 134.637 150.256H191.434C192.708 150.293 193.917 150.773 194.804 151.594C195.691 152.415 196.187 153.514 196.187 154.658C196.187 155.801 195.691 156.9 194.804 157.721C193.917 158.542 192.708 159.022 191.434 159.059H198.445C199.746 159.059 200.994 159.523 201.914 160.348C202.835 161.173 203.351 162.292 203.351 163.459C203.351 164.625 202.835 165.744 201.914 166.569C200.994 167.395 199.746 167.858 198.445 167.858V167.858Z" fill="#918EC6"/>
<path opacity="0.1" d="M558.745 62.72L14.3278 74.598C7.70402 89.8611 3.33739 107.098 1.29929 125.002H549.207C552.783 114.495 555.429 103.752 557.12 92.8717C558.75 82.3597 559.403 72.1904 558.745 62.72ZM111.825 101.616H102.007C102.665 101.597 103.32 101.696 103.935 101.909C104.549 102.122 105.109 102.443 105.582 102.854C106.055 103.264 106.431 103.756 106.688 104.299C106.945 104.843 107.077 105.427 107.077 106.017C107.077 106.608 106.945 107.192 106.688 107.735C106.431 108.279 106.055 108.771 105.582 109.181C105.109 109.592 104.549 109.913 103.935 110.126C103.32 110.338 102.665 110.438 102.007 110.419H45.2102C43.9355 110.382 42.7268 109.902 41.8397 109.081C40.9525 108.259 40.4565 107.161 40.4565 106.017C40.4565 104.874 40.9525 103.775 41.8397 102.954C42.7268 102.132 43.9355 101.653 45.2102 101.616H55.0287C53.7274 101.616 52.4793 101.152 51.5591 100.327C50.6389 99.5021 50.122 98.3831 50.122 97.2163C50.122 96.0495 50.6389 94.9305 51.5591 94.1055C52.4793 93.2804 53.7274 92.8169 55.0287 92.8169H48.0176C46.743 92.7801 45.5343 92.3002 44.6472 91.4787C43.76 90.6573 43.264 89.5587 43.264 88.4152C43.264 87.2718 43.76 86.1731 44.6472 85.3517C45.5343 84.5302 46.743 84.0503 48.0176 84.0135H104.814C106.089 84.0503 107.298 84.5302 108.185 85.3517C109.072 86.1731 109.568 87.2718 109.568 88.4152C109.568 89.5587 109.072 90.6573 108.185 91.4787C107.298 92.3002 106.089 92.7801 104.814 92.8169H111.825C113.127 92.8169 114.375 93.2804 115.295 94.1055C116.215 94.9305 116.732 96.0495 116.732 97.2163C116.732 98.3831 116.215 99.5021 115.295 100.327C114.375 101.152 113.127 101.616 111.825 101.616V101.616Z" fill="#918EC6"/>
<g opacity="0.1">
<path opacity="0.1" d="M406.249 225.507C406.249 225.507 420.618 193.756 447.45 181.979C458.74 177.104 467.96 169.076 473.726 159.1C476.422 154.347 478.628 149.381 480.314 144.267" stroke="#535461" stroke-width="2" stroke-miterlimit="10"/>
<path opacity="0.1" d="M497.174 136.756C494.377 139.908 479.901 144.522 479.901 144.522C479.901 144.522 481.644 130.84 484.441 127.688C485.079 126.871 485.897 126.18 486.844 125.657C487.791 125.134 488.848 124.79 489.949 124.647C491.05 124.504 492.171 124.564 493.245 124.824C494.319 125.085 495.322 125.539 496.193 126.16C497.063 126.781 497.783 127.554 498.308 128.434C498.832 129.313 499.15 130.28 499.243 131.274C499.335 132.268 499.2 133.268 498.845 134.213C498.49 135.158 497.923 136.028 497.179 136.77L497.174 136.756Z" fill="#6C63FF"/>
<path opacity="0.1" d="M492.206 161.723C487.947 163.006 473.007 159.813 473.007 159.813C473.007 159.813 482.765 149.178 487.024 147.894C488.056 147.515 489.164 147.329 490.279 147.349C491.394 147.369 492.492 147.594 493.506 148.01C494.52 148.426 495.428 149.023 496.175 149.766C496.921 150.509 497.489 151.382 497.844 152.33C498.199 153.277 498.334 154.28 498.239 155.276C498.145 156.273 497.823 157.241 497.295 158.121C496.767 159.002 496.042 159.776 495.167 160.395C494.292 161.014 493.284 161.466 492.206 161.723V161.723Z" fill="#6C63FF"/>
<path opacity="0.1" d="M465.273 191.239C460.876 190.417 449.773 180.901 449.773 180.901C449.773 180.901 464.188 176.136 468.585 176.954C470.586 177.445 472.303 178.601 473.386 180.187C474.47 181.774 474.838 183.671 474.416 185.492C473.993 187.313 472.813 188.921 471.114 189.989C469.415 191.057 467.326 191.504 465.273 191.239V191.239Z" fill="#6C63FF"/>
<path opacity="0.1" d="M439.287 209.454C434.798 209.317 422.06 201.614 422.06 201.614C422.06 201.614 435.369 194.734 439.858 194.876C440.973 194.844 442.084 195.019 443.121 195.388C444.159 195.758 445.1 196.314 445.888 197.023C446.676 197.732 447.293 198.578 447.701 199.51C448.109 200.441 448.299 201.438 448.26 202.438C448.221 203.438 447.953 204.42 447.473 205.324C446.993 206.227 446.312 207.033 445.47 207.691C444.629 208.348 443.646 208.844 442.583 209.147C441.519 209.451 440.397 209.555 439.287 209.454V209.454Z" fill="#6C63FF"/>
<path opacity="0.1" d="M459.097 150.891C459.668 154.888 469.4 165.542 469.4 165.542C469.4 165.542 475.81 153.024 475.234 149.032C474.836 147.211 473.68 145.594 472.002 144.51C470.323 143.425 468.247 142.953 466.195 143.189C464.143 143.426 462.268 144.353 460.95 145.783C459.632 147.213 458.969 149.039 459.097 150.891Z" fill="#6C63FF"/>
<path opacity="0.1" d="M429.005 172.541C430.885 176.195 443.73 183.756 443.73 183.756C443.73 183.756 445.661 170.097 443.781 166.437C442.793 164.808 441.151 163.576 439.188 162.992C437.224 162.408 435.087 162.515 433.208 163.291C431.33 164.067 429.85 165.454 429.07 167.172C428.289 168.889 428.266 170.808 429.005 172.541Z" fill="#6C63FF"/>
<path opacity="0.1" d="M402.978 197.183C404.145 201.075 415.375 210.468 415.375 210.468C415.375 210.468 419.859 197.297 418.697 193.405C418.037 191.641 416.652 190.168 414.824 189.288C412.995 188.408 410.861 188.187 408.857 188.668C406.852 189.15 405.128 190.299 404.036 191.881C402.944 193.463 402.565 195.359 402.978 197.183V197.183Z" fill="#6C63FF"/>
<path opacity="0.25" d="M497.174 136.756C494.377 139.908 479.901 144.522 479.901 144.522C479.901 144.522 481.644 130.84 484.441 127.688C485.079 126.871 485.897 126.18 486.844 125.657C487.791 125.134 488.848 124.79 489.949 124.647C491.05 124.504 492.171 124.564 493.245 124.824C494.319 125.085 495.322 125.539 496.193 126.16C497.063 126.781 497.783 127.554 498.308 128.434C498.832 129.313 499.15 130.28 499.243 131.274C499.335 132.268 499.2 133.268 498.845 134.213C498.49 135.158 497.923 136.028 497.179 136.77L497.174 136.756Z" fill="black"/>
<path opacity="0.25" d="M492.206 161.723C487.947 163.006 473.007 159.813 473.007 159.813C473.007 159.813 482.765 149.178 487.024 147.894C488.056 147.515 489.164 147.329 490.279 147.349C491.394 147.369 492.492 147.594 493.506 148.01C494.52 148.426 495.428 149.023 496.175 149.766C496.921 150.509 497.489 151.382 497.844 152.33C498.199 153.277 498.334 154.28 498.239 155.276C498.145 156.273 497.823 157.241 497.295 158.121C496.767 159.002 496.042 159.776 495.167 160.395C494.292 161.014 493.284 161.466 492.206 161.723V161.723Z" fill="black"/>
<path opacity="0.25" d="M465.273 191.239C460.876 190.417 449.773 180.901 449.773 180.901C449.773 180.901 464.188 176.136 468.585 176.954C470.586 177.445 472.303 178.601 473.386 180.187C474.47 181.774 474.838 183.671 474.416 185.492C473.993 187.313 472.813 188.921 471.114 189.989C469.415 191.057 467.326 191.504 465.273 191.239V191.239Z" fill="black"/>
<path opacity="0.25" d="M439.287 209.454C434.798 209.317 422.06 201.614 422.06 201.614C422.06 201.614 435.369 194.734 439.858 194.876C440.973 194.844 442.084 195.019 443.121 195.388C444.159 195.758 445.1 196.314 445.888 197.023C446.676 197.732 447.293 198.578 447.701 199.51C448.109 200.441 448.299 201.438 448.26 202.438C448.221 203.438 447.953 204.42 447.473 205.324C446.993 206.227 446.312 207.033 445.47 207.691C444.629 208.348 443.646 208.844 442.583 209.147C441.519 209.451 440.397 209.555 439.287 209.454V209.454Z" fill="black"/>
<path opacity="0.25" d="M459.097 150.891C459.668 154.888 469.4 165.542 469.4 165.542C469.4 165.542 475.81 153.024 475.234 149.032C474.836 147.211 473.68 145.594 472.002 144.51C470.323 143.425 468.247 142.953 466.195 143.189C464.143 143.426 462.268 144.353 460.95 145.783C459.632 147.213 458.969 149.039 459.097 150.891Z" fill="black"/>
<path opacity="0.25" d="M429.005 172.541C430.885 176.195 443.73 183.756 443.73 183.756C443.73 183.756 445.661 170.097 443.781 166.437C442.793 164.808 441.151 163.576 439.188 162.992C437.224 162.408 435.087 162.515 433.208 163.291C431.33 164.067 429.85 165.454 429.07 167.172C428.289 168.889 428.266 170.808 429.005 172.541Z" fill="black"/>
<path opacity="0.25" d="M402.978 197.183C404.145 201.075 415.375 210.468 415.375 210.468C415.375 210.468 419.859 197.297 418.697 193.405C418.037 191.641 416.652 190.168 414.824 189.288C412.995 188.408 410.861 188.187 408.857 188.668C406.852 189.15 405.128 190.299 404.036 191.881C402.944 193.463 402.565 195.359 402.978 197.183V197.183Z" fill="black"/>
</g>
<g opacity="0.1">
<path opacity="0.1" d="M383.372 174.711C383.372 174.711 385.186 140.484 406.142 121.392C414.99 113.437 420.72 103.123 422.473 91.9991C423.254 86.7076 423.493 81.3631 423.186 76.0325" stroke="#535461" stroke-width="2" stroke-miterlimit="10"/>
<path opacity="0.1" d="M436.327 63.9261C434.854 67.7362 422.901 76.3797 422.901 76.3797C422.901 76.3797 419.487 62.953 420.954 59.1475C421.759 57.4373 423.258 56.0654 425.149 55.3103C427.04 54.5551 429.181 54.4732 431.137 55.0812C433.093 55.6892 434.717 56.9416 435.681 58.5841C436.645 60.2267 436.876 62.1365 436.327 63.9261Z" fill="#6C63FF"/>
<path opacity="0.1" d="M440.877 88.9611C437.31 91.4372 422.055 92.8717 422.055 92.8717C422.055 92.8717 427.329 79.9339 430.87 77.4578C432.582 76.4122 434.673 75.99 436.72 76.277C438.766 76.564 440.614 77.5388 441.888 79.0032C443.162 80.4676 443.766 82.3119 443.579 84.1614C443.391 86.011 442.425 87.7271 440.877 88.9611V88.9611Z" fill="#6C63FF"/>
<path opacity="0.1" d="M426.386 124.814C421.933 125.349 407.936 119.67 407.936 119.67C407.936 119.67 419.772 110.89 424.241 110.355C426.307 110.228 428.349 110.811 429.953 111.985C431.557 113.159 432.603 114.837 432.878 116.677C433.153 118.517 432.636 120.382 431.433 121.893C430.231 123.405 428.431 124.449 426.401 124.814H426.386Z" fill="#6C63FF"/>
<path opacity="0.1" d="M408.603 149.726C404.318 150.932 389.456 147.442 389.456 147.442C389.456 147.442 399.463 136.998 403.753 135.797C404.794 135.432 405.909 135.263 407.026 135.301C408.144 135.339 409.241 135.582 410.249 136.016C411.257 136.451 412.155 137.066 412.886 137.824C413.617 138.583 414.167 139.468 414.501 140.425C414.834 141.382 414.944 142.391 414.825 143.388C414.705 144.385 414.358 145.349 413.805 146.22C413.252 147.092 412.504 147.852 411.61 148.453C410.715 149.055 409.692 149.485 408.603 149.717V149.726Z" fill="#6C63FF"/>
<path opacity="0.1" d="M405.633 88.5865C407.671 92.1864 420.776 99.3452 420.776 99.3452C420.776 99.3452 422.187 85.6399 420.17 82.0354C419.121 80.4356 417.433 79.2534 415.448 78.7284C413.463 78.2034 411.329 78.375 409.48 79.2083C407.631 80.0416 406.205 81.4744 405.49 83.2159C404.776 84.9575 404.827 86.8775 405.633 88.5865V88.5865Z" fill="#6C63FF"/>
<path opacity="0.1" d="M385.252 117.962C388.38 120.853 403.289 124.165 403.289 124.165C403.289 124.165 400.064 110.698 396.935 107.806C395.401 106.555 393.393 105.875 391.32 105.905C389.247 105.935 387.264 106.671 385.776 107.965C384.287 109.259 383.404 111.013 383.307 112.871C383.209 114.728 383.905 116.548 385.252 117.962V117.962Z" fill="#6C63FF"/>
<path opacity="0.1" d="M369.813 148.945C372.361 152.271 386.424 157.794 386.424 157.794C386.424 157.794 385.777 144.034 383.244 140.708C381.964 139.259 380.118 138.299 378.079 138.021C376.041 137.743 373.961 138.169 372.258 139.211C370.555 140.254 369.356 141.836 368.902 143.64C368.449 145.443 368.774 147.334 369.813 148.931V148.945Z" fill="#6C63FF"/>
</g>
<path opacity="0.1" d="M219.61 39.0601C219.61 39.0601 207.468 38.4068 208.91 46.0361C208.837 46.4232 208.901 46.8213 209.095 47.1734C209.289 47.5255 209.603 47.8134 209.991 47.996C209.991 47.996 209.991 47.4295 211.234 47.6214C211.669 47.6893 212.113 47.7092 212.553 47.6808C213.15 47.6436 213.717 47.4336 214.169 47.0823V47.0823C214.169 47.0823 217.582 45.8168 218.907 40.8144C218.907 40.8144 219.891 39.7225 219.85 39.4439L217.812 40.2296C217.812 40.2296 218.51 41.5545 217.96 42.6555C217.96 42.6555 217.893 40.2753 217.501 40.3301C217.419 40.3301 216.436 40.787 216.436 40.787C216.436 40.787 217.644 43.0986 216.732 44.7752C216.732 44.7752 217.078 41.9291 216.059 40.956L214.617 41.7098C214.617 41.7098 216.023 44.0945 215.071 46.0407C215.071 46.0407 215.315 43.0575 214.316 41.8926L213.007 42.8062C213.007 42.8062 214.332 45.159 213.516 46.7716C213.516 46.7716 213.415 43.2951 212.717 43.0347C212.222 43.4101 211.781 43.8381 211.402 44.3093C211.402 44.3093 212.304 46.0179 211.743 46.9178C211.743 46.9178 211.402 44.6016 211.117 44.5925C211.117 44.5925 209.975 46.1275 209.858 47.1782C209.913 46.2032 210.252 45.258 210.841 44.4372C210.184 44.5489 209.577 44.8299 209.094 45.2458C209.094 45.2458 209.272 44.1631 211.132 44.0671C211.132 44.0671 212.075 42.9022 212.324 42.8337C212.324 42.8337 210.485 42.692 209.374 43.1397C209.374 43.1397 210.352 42.1164 212.66 42.5778L213.955 41.6367C213.955 41.6367 211.534 41.3398 210.505 41.6641C210.505 41.6641 211.687 40.7504 214.301 41.422L215.707 40.6682C214.626 40.4535 213.517 40.3675 212.411 40.4124C212.411 40.4124 213.71 39.7865 216.12 40.4626L217.139 40.0606C217.139 40.0606 215.611 39.7956 215.183 39.75C214.755 39.7043 214.719 39.5992 214.719 39.5992C215.676 39.4561 216.659 39.5542 217.557 39.8824C217.557 39.8824 219.651 39.1835 219.61 39.0601Z" fill="#6C63FF"/>
<path opacity="0.1" d="M187.724 76.1878C187.724 76.1878 183.577 86.4439 192.142 87.3805C192.536 87.5534 192.98 87.6102 193.412 87.543C193.844 87.4757 194.241 87.2877 194.547 87.0059C194.547 87.0059 193.946 86.8277 194.501 85.8318C194.69 85.4752 194.83 85.0993 194.919 84.7125C195.049 84.1896 194.987 83.6429 194.74 83.1547V83.1547C194.74 83.1547 194.358 79.8608 189.385 77.3025C189.385 77.3025 188.494 76.1467 188.183 76.101L188.443 78.0837C188.443 78.0837 190.058 77.8598 191.082 78.6456C191.082 78.6456 188.534 78.0289 188.463 78.3806C188.463 78.4537 188.652 79.4268 188.652 79.4268C188.652 79.4268 191.464 79.0476 193.003 80.304C193.003 80.304 190.058 79.203 188.728 79.7969L189.126 81.2542C189.126 81.2542 192.076 80.7197 193.884 82.0948C193.884 82.0948 190.761 81.0349 189.233 81.5648L189.839 82.9354C189.839 82.9354 192.728 82.4785 194.226 83.6161C194.226 83.6161 190.481 82.7024 190.002 83.246C190.263 83.7789 190.597 84.2806 190.995 84.7399C190.995 84.7399 193.074 84.4475 193.879 85.1968C193.879 85.1968 191.306 84.8358 191.215 85.078C191.215 85.078 192.529 86.4942 193.62 86.9054C192.597 86.5824 191.687 86.0248 190.98 85.2881C190.918 85.8779 191.047 86.4711 191.352 86.9967C191.352 86.9967 190.246 86.5399 190.669 84.9226C190.669 84.9226 189.691 83.7805 189.686 83.5521C189.686 83.5521 189.019 85.0962 189.176 86.179C189.176 86.179 188.361 85.046 189.513 83.1912L188.871 81.8207C188.871 81.8207 187.852 83.8171 187.923 84.7902C187.923 84.7902 187.291 83.5201 188.738 81.4598L188.331 80.039C187.799 80.9025 187.393 81.8237 187.123 82.78C187.123 82.78 186.822 81.4826 188.234 79.6095L188.086 78.6273C188.086 78.6273 187.373 79.8517 187.2 80.2217C187.026 80.5918 186.904 80.5781 186.904 80.5781C187.025 79.7141 187.409 78.8968 188.015 78.2162C188.015 78.2162 187.867 76.1924 187.724 76.1878Z" fill="#6C63FF"/>
<path opacity="0.1" d="M268.25 67.5489C268.25 67.5489 264.097 77.8004 272.667 78.737C273.06 78.9101 273.503 78.9675 273.934 78.901C274.365 78.8346 274.762 78.6476 275.067 78.3669C275.067 78.3669 274.471 78.1888 275.021 77.1883C275.217 76.8324 275.364 76.4566 275.459 76.069C275.591 75.5473 275.526 75.0012 275.276 74.5157V74.5157C275.276 74.5157 274.894 71.2219 269.921 68.659C269.921 68.659 269.034 67.5032 268.724 67.4575L268.978 69.4448C268.978 69.4448 270.599 69.2164 271.618 70.0021C271.618 70.0021 269.07 69.3854 269.004 69.7417C269.004 69.8103 269.192 70.7879 269.192 70.7879C269.192 70.7879 272.005 70.4042 273.539 71.665C273.539 71.665 270.599 70.5595 269.264 71.1579L269.661 72.6107C269.661 72.6107 272.611 72.0762 274.425 73.4513C274.425 73.4513 271.302 72.3914 269.773 72.9259L270.379 74.2965C270.379 74.2965 273.269 73.8396 274.767 74.9772C274.767 74.9772 271.021 74.0635 270.543 74.6025C270.803 75.1345 271.135 75.6361 271.531 76.0964C271.531 76.0964 273.615 75.804 274.42 76.5533C274.42 76.5533 271.842 76.1924 271.755 76.4299C271.755 76.4299 273.07 77.8461 274.16 78.2573C273.136 77.9324 272.225 77.3733 271.516 76.6355C271.448 77.2328 271.578 77.8348 271.888 78.3669C271.888 78.3669 270.777 77.9101 271.2 76.2883C271.2 76.2883 270.227 75.1508 270.222 74.9178C270.222 74.9178 269.549 76.4573 269.712 77.5446C269.712 77.5446 268.897 76.4071 270.053 74.5569L269.406 73.1863C269.406 73.1863 268.387 75.1827 268.464 76.1604C268.464 76.1604 267.832 74.8858 269.279 72.8254L268.871 71.4046C268.338 72.2676 267.932 73.189 267.664 74.1457C267.664 74.1457 267.358 72.8528 268.769 70.9752L268.622 69.9976C268.622 69.9976 267.908 71.2219 267.74 71.5874C267.572 71.9529 267.445 71.9483 267.445 71.9483C267.562 71.0836 267.947 70.2656 268.555 69.5864C268.555 69.5864 268.387 67.5489 268.25 67.5489Z" fill="#6C63FF"/>
<path opacity="0.1" d="M136.675 54.7024C136.675 54.7024 132.522 64.9586 141.093 65.8905C141.485 66.0651 141.928 66.1233 142.36 66.0567C142.791 65.9902 143.188 65.8024 143.492 65.5205C143.492 65.5205 142.896 65.3423 143.447 64.3464C143.64 63.9897 143.787 63.6141 143.885 63.2271C144.014 62.7038 143.949 62.157 143.701 61.6693C143.701 61.6693 143.319 58.3755 138.346 55.8126C138.346 55.8126 137.46 54.6613 137.149 54.6156L137.404 56.5983C137.404 56.5983 139.019 56.3745 140.043 57.1603C140.043 57.1603 137.495 56.539 137.429 56.8953C137.429 56.9684 137.618 57.9415 137.618 57.9415C137.618 57.9415 140.43 57.5623 141.964 58.8186C141.964 58.8186 139.019 57.713 137.689 58.3115L138.086 59.7688C138.086 59.7688 141.037 59.2343 142.845 60.6094C142.845 60.6094 139.727 59.5496 138.198 60.0795L138.805 61.45C138.805 61.45 141.694 60.9932 143.192 62.1307C143.192 62.1307 139.442 61.217 138.968 61.7561C139.229 62.2896 139.56 62.7928 139.956 63.2546C139.956 63.2546 142.04 62.9576 142.84 63.7114C142.84 63.7114 140.267 63.3505 140.175 63.5926C140.175 63.5926 141.495 65.0043 142.585 65.42C141.56 65.097 140.648 64.5376 139.941 63.7982C139.874 64.3955 140.003 64.9975 140.313 65.5296C140.313 65.5296 139.202 65.0728 139.625 63.4556C139.625 63.4556 138.647 62.3135 138.647 62.085C138.647 62.085 137.974 63.6292 138.137 64.7119C138.137 64.7119 137.322 63.5789 138.474 61.7241L137.832 60.3536C137.832 60.3536 136.813 62.3546 136.884 63.3276C136.884 63.3276 136.252 62.0576 137.699 59.9973L137.297 58.5719C136.763 59.4348 136.357 60.3562 136.089 61.313C136.089 61.313 135.783 60.0201 137.195 58.1425L137.047 57.1648C137.047 57.1648 136.334 58.3892 136.165 58.7592C135.997 59.1293 135.87 59.1156 135.87 59.1156C135.987 58.2516 136.37 57.4339 136.976 56.7537C136.976 56.7537 136.833 54.707 136.675 54.7024Z" fill="#6C63FF"/>
<path opacity="0.1" d="M264.24 124.271C264.24 124.271 267.445 134.778 275.047 131.123C275.479 131.062 275.878 130.879 276.187 130.602C276.497 130.324 276.7 129.966 276.769 129.579C276.769 129.579 276.168 129.739 275.974 128.638C275.905 128.247 275.783 127.865 275.612 127.5C275.382 127.007 274.98 126.594 274.466 126.322V126.322C274.466 126.322 272.035 123.832 266.313 124.307C266.313 124.307 264.846 123.823 264.561 123.946L266.049 125.436C266.049 125.436 267.22 124.417 268.561 124.522C268.561 124.522 266.069 125.34 266.257 125.655C266.293 125.719 267.083 126.413 267.083 126.413C267.083 126.413 269.121 124.65 271.2 124.883C271.2 124.883 268.087 125.504 267.378 126.678L268.642 127.665C268.642 127.665 270.711 125.7 273.07 125.888C273.07 125.888 269.839 126.637 268.932 127.861L270.318 128.679C270.318 128.679 272.356 126.801 274.339 126.966C274.339 126.966 270.706 128.172 270.65 128.844C271.206 129.145 271.802 129.384 272.423 129.556C272.423 129.556 273.951 128.241 275.062 128.428C275.062 128.428 272.728 129.46 272.81 129.707C272.81 129.707 274.792 130.164 275.944 129.945C274.899 130.209 273.796 130.224 272.744 129.986C273.071 130.508 273.562 130.934 274.155 131.21C274.155 131.21 272.953 131.406 272.26 129.867C272.26 129.867 270.731 129.442 270.573 129.25C270.573 129.25 271.016 130.854 271.847 131.658C271.847 131.658 270.451 131.155 270.201 129.045L268.8 128.263C268.8 128.263 269.259 130.415 269.936 131.183C269.936 131.183 268.601 130.47 268.459 128.04L267.21 127.089C267.334 128.075 267.6 129.042 268 129.967C268 129.967 266.92 129.054 266.869 126.801L266.115 126.08C266.115 126.08 266.319 127.45 266.42 127.839C266.522 128.227 266.42 128.295 266.42 128.295C265.96 127.528 265.747 126.661 265.804 125.792C265.804 125.792 264.357 124.197 264.24 124.271Z" fill="#6C63FF"/>
<path d="M415.513 183.541C416.624 184.693 417.85 185.751 419.176 186.703L429.102 194.286C430.87 195.634 432.668 197.027 434.91 197.662C436.237 198.036 437.642 198.132 439.016 197.943C440.39 197.754 441.698 197.284 442.839 196.571L442.67 196.52L442.839 196.42C441.162 195.936 439.445 195.433 438.064 194.46C437.496 194.078 437.017 193.599 436.657 193.05C436.297 192.501 436.061 191.893 435.965 191.262V191.262C435.965 191.198 435.965 191.139 435.965 191.075C435.969 190.902 435.988 190.729 436.021 190.559C438.16 190.395 440.217 189.746 441.998 188.672L441.825 188.617L441.998 188.521C436.709 187 433.045 182.55 431.384 177.84C429.723 173.13 429.718 168.114 429.54 163.184C429.362 158.255 428.954 153.189 426.58 148.73C425.688 147.058 424.541 145.468 424.108 143.659C423.989 143.122 423.933 142.575 423.94 142.028C423.976 140.269 424.547 138.501 425.071 136.784C426.238 132.947 427.17 129.057 427.864 125.129C428.137 123.733 428.288 122.321 428.317 120.904C428.365 119.521 428.118 118.142 427.588 116.842C425.255 111.406 417.143 108.843 415.905 103.137C415.76 102.369 415.698 101.59 415.722 100.812C415.722 100.382 415.722 99.9574 415.722 99.5325C415.722 99.1076 415.722 98.6188 415.681 98.1985C415.329 94.1829 412.557 90.6971 409.882 87.4398C406.662 83.5201 403.259 79.4451 398.311 77.3573C394.469 75.7264 389.333 75.1873 384.753 75.5528C382.697 73.9627 380.444 72.5907 378.037 71.464C374.537 69.7189 370.904 68.0012 367.026 67.6174C362.109 67.1331 357.248 68.8235 352.316 69.1067C345.611 69.495 339.028 67.2793 332.322 66.8225C325.617 66.3656 317.898 68.3895 314.902 74.4426C314.2 75.9124 313.773 77.476 313.638 79.0705V79.0705C313.608 79.3766 313.587 79.6781 313.572 79.9842V80.0161C313.522 81.2521 313.561 82.4897 313.689 83.7211V83.8628C313.689 84.1095 313.74 84.3561 313.771 84.6028C313.771 84.6759 313.771 84.7445 313.796 84.8176C313.796 85.046 313.852 85.2744 313.883 85.5028L313.913 85.7175C313.954 86.0054 314 86.2932 314.041 86.581C314.118 87.1736 314.26 87.7581 314.464 88.3261C314.589 88.6544 314.771 88.9628 315.004 89.2398C315.732 90.0713 316.828 90.318 317.959 90.4733L318.851 90.5875C318.759 90.752 318.662 90.9164 318.576 91.0855C316.553 94.9071 315.509 99.0853 315.518 103.315C315.518 117.687 327.385 129.602 342.89 131.767L343.822 132.809C349.539 139.232 356.713 147.807 360.127 153.979C356.184 158.369 351.567 166.154 350.253 179.211L348.301 183.295C344.21 188.571 343.155 196.182 344.21 203.263C343.058 207.092 341.744 211.902 340.832 215.881C334.05 214.534 310.902 211.199 305.43 207.96L289.38 201.18C289.38 201.18 268.489 188.096 257.249 192.464C252.954 187.731 246.473 182.774 243.68 180.901C238.891 177.68 226.978 165.099 226.978 165.099L208.314 142.887C208.263 140.315 207.958 138.117 207.173 137.172C204.972 134.531 193.319 128.67 190.99 129.935C188.662 131.201 186.715 127.194 186.715 127.194L186.537 127.108C186.099 126.879 184.856 126.249 183.128 125.417C183.038 123.563 183.089 121.705 183.281 119.857C183.317 119.547 183.363 119.236 183.414 118.944C189.6 118.744 195.545 116.737 200.342 113.229C205.14 109.72 208.528 104.903 209.991 99.5097C210.072 99.2218 210.128 98.9249 210.194 98.6325C211.03 98.8064 211.901 98.7852 212.724 98.5708C213.548 98.3564 214.296 97.9561 214.897 97.4082C216.528 95.8366 216.599 93.4199 216.079 91.3367C215.56 89.2535 214.551 87.2571 214.296 85.1282C213.975 82.2273 215.116 79.1892 214.067 76.4482C213.185 74.1091 210.862 72.4097 208.386 71.2996C205.909 70.1894 203.199 69.5407 200.666 68.5311C198.251 67.5717 196.004 66.2834 193.497 65.5251C190.247 64.5428 186.751 64.5063 183.307 64.5794C181.146 63.7982 178.945 63.0535 176.632 62.8205C174.084 62.5601 171.282 63.0033 169.341 64.5246C167.812 65.7398 166.569 67.6905 164.495 67.7545C163.476 67.7864 162.559 67.3342 161.652 66.9458C159.079 65.8403 155.823 65.2144 153.5 66.6809C151.635 67.8504 150.952 70.0021 150.631 72.0077C150.31 74.0132 150.254 76.1193 149.174 77.9147C148.506 79.0202 147.492 79.9202 146.652 80.9253C144.524 83.4765 143.52 86.6421 143.834 89.8154V89.9068C143.712 89.45 143.594 89.0251 143.508 88.5774C143.508 88.9155 143.508 89.2489 143.559 89.587C143.78 91.1543 144.16 92.7003 144.695 94.2057L146.804 100.83C147.874 104.192 148.97 107.605 151.008 110.597C151.803 111.776 152.764 112.859 153.866 113.818C155.603 115.453 157.826 116.609 160.271 117.148C161.13 117.321 162.014 117.369 162.89 117.29C162.89 117.386 162.865 117.477 162.844 117.573C162.656 117.541 162.462 117.505 162.284 117.482C161.456 117.327 160.599 117.347 159.782 117.541C155.757 118.825 154.534 122.731 154.177 124.266C154.096 124.659 154.07 124.896 154.07 124.896C154.07 124.896 154.136 125.125 154.213 125.513L154.177 125.646C154.096 126.034 154.07 126.276 154.07 126.276C154.07 126.276 154.136 126.505 154.213 126.902L153.163 126.925L135.61 128.981C131.6 128.734 127.784 128.675 125.741 129.113C125.568 129.147 125.398 129.192 125.231 129.246C122.683 130.036 111.01 137.259 100.534 143.906C100.534 143.723 100.534 143.545 100.504 143.371L97.5231 145.272C97.5231 145.45 97.5231 145.637 97.5231 145.824C96.7792 146.281 96.0404 146.766 95.3271 147.227C92.1221 149.283 89.2128 151.138 87.0473 152.558C84.4079 154.258 82.7724 155.331 82.7724 155.331C82.7724 155.331 81.8043 155.615 81.1623 156.953C80.3368 158.666 80.0515 162.111 83.0322 168.89C88.3415 180.956 89.5032 189.115 89.5032 189.115C88.0628 189.25 86.649 189.557 85.2996 190.029C83.4602 190.686 81.5393 191.801 80.7394 193.683C80.2258 194.998 80.2133 196.428 80.7037 197.749C83.1596 205.561 123.815 249.921 123.815 249.921L124.324 249.962C126.409 250.127 128.506 250.127 130.591 249.962C132.492 249.784 134.27 249.377 135.085 248.518C135.085 248.518 144.099 258.893 157.336 251.826C157.245 261.237 156.98 268.14 158.646 271.616C161.239 277.016 161.239 289.31 161.239 289.31L163.705 289.388C163.573 289.844 163.425 290.301 163.267 290.758C162.131 294.125 160.455 298.195 158.681 299.169C155.696 300.813 157.112 329.083 157.234 331.522C157.234 331.618 157.234 331.668 157.234 331.668L157.061 343.089V344.003C156.691 343.557 156.359 343.087 156.068 342.596C156.068 342.596 151.268 346.708 151.181 355.388C151.095 364.068 151.268 364.36 151.268 364.36C151.268 364.36 170.63 363.689 174.263 364.885C177.896 366.082 208.279 363.844 208.279 363.844C208.279 363.844 209.405 361.222 206.164 359.207C211.331 358.873 216.966 357.987 220.268 355.84C227.528 351.139 205.619 347.475 204.09 346.731C202.562 345.986 194.99 339.997 191.862 337.754C190.916 337.134 189.798 336.761 188.631 336.675L189.024 326.438C193.686 321.727 198.735 295.756 198.735 295.756C200.386 294.522 201.104 291.521 201.4 289.689C202.003 289.51 202.53 289.169 202.91 288.712C203.29 288.255 203.505 287.705 203.525 287.135V287.135C208.859 287.295 215.57 287.259 216.859 286.112C219.06 284.157 218.8 277.491 218.8 277.491L215.692 206.936L215.488 206.667C216.002 203.437 216.013 200.159 215.519 196.927C222.499 198.713 227.931 199.928 227.931 199.928C227.931 199.928 238.437 201.664 245.81 203.126C244.603 204.275 243.692 205.648 243.14 207.147C236.516 224.05 274.084 223.351 274.084 223.351L291.82 230.706L333.571 242.94C320.155 239.391 304.829 235.215 294.399 232.351C293.371 232.069 292.327 231.842 291.27 231.67C281.701 230.117 271.76 233.241 265.666 240.135C265.595 240.222 265.529 240.3 265.452 240.382C263.993 242.084 263.18 244.16 263.132 246.307C263.085 248.453 263.805 250.557 265.187 252.31C266.782 254.334 268.917 257.025 271.419 260.154C266.125 261.589 257.366 265.586 262.691 275.865C270.069 290.114 289.874 298.25 289.874 298.25C289.874 298.25 302.821 301.585 306.179 305.263C307.121 306.295 310.765 308.584 315.529 311.343C318.586 314.244 320.98 316.14 322.402 316.561C328.078 318.237 339.13 326.282 346.905 332.317L345.738 346.735L345.662 347.603L345.183 347.238C345.183 347.238 341.744 353.633 331.777 355.776C329.778 356.179 328.008 357.214 326.789 358.691L326.753 358.732L326.458 359.116L326.234 358.965C324.196 361.537 323.248 365.283 330.942 366.315C342.982 367.923 356.418 365.626 356.418 365.626L368.422 355.676C369.756 356.682 371.322 357.411 373.008 357.809C381.981 359.636 407.182 368.38 407.182 368.38C407.182 365.927 429.453 334.368 429.453 334.368C459.515 283.348 426.824 245.22 423.212 241.25L422.891 240.903L422.61 236.663L422.549 235.69C422.549 235.69 438.773 229.258 432.556 226.197C426.34 223.136 422.875 208.421 417.021 202.295C412.435 197.516 412.7 186.424 412.216 176.972C412.742 179.306 413.871 181.497 415.513 183.368C415.548 183.409 415.589 183.441 415.625 183.482L415.192 183.144C415.299 183.29 415.401 183.418 415.513 183.541ZM215.611 179.622C217.7 181.636 221.348 184.213 223.763 185.849C220.869 184.583 218.617 183.514 216.879 182.651C216.472 181.636 216.044 180.622 215.611 179.622V179.622ZM153.81 131.813C153.311 133.154 152.402 134.343 151.186 135.244L150.167 131.301C151.502 131.493 152.745 131.671 153.81 131.813ZM357.457 240.135C357.86 239.359 358.278 238.596 358.701 237.851C360.487 237.33 362.063 236.348 363.23 235.028C364.118 237.791 364.776 240.61 365.197 243.461C365.197 243.594 365.197 243.667 365.197 243.667C365.175 244.816 364.982 245.958 364.621 247.061C364.153 248.395 363.297 249.651 361.742 249.802C361.095 249.861 357.911 249.172 353.147 248.007C351.766 247.669 350.248 247.289 348.627 246.878C351.17 246.727 354.706 245.444 357.457 240.135ZM397.328 143.741C396.375 142.371 394.388 141.494 391.957 140.977C391.514 140.712 390.826 140.292 389.95 139.721C385.67 136.911 377.125 130.584 373.207 122.503C374.299 122.23 375.366 121.88 376.396 121.456C377.997 120.799 379.508 119.978 380.901 119.012C381.369 118.683 381.828 118.341 382.266 117.984C383.389 117.076 384.413 116.074 385.323 114.992C385.685 114.535 386.037 114.101 386.342 113.622C386.842 112.918 387.295 112.189 387.698 111.438C388.625 109.684 389.341 107.846 389.833 105.956C390.031 105.197 390.205 104.425 390.342 103.649C390.48 102.872 390.612 102.091 390.709 101.305C391.026 98.5325 391.146 95.7447 391.071 92.9585C391.071 92.826 391.071 92.689 391.071 92.5565C391.071 92.5062 391.071 92.456 391.071 92.4103C391.056 89.5858 390.715 86.7703 390.052 84.009C390.281 84.0866 390.51 84.1643 390.729 84.2556C391.098 84.4175 391.449 84.6086 391.779 84.8267C391.697 84.7216 391.606 84.6165 391.519 84.5115C392.997 85.3703 394.097 86.7089 395.086 88.0429C399.614 94.3723 402.506 101.53 403.55 108.991C404.594 116.452 403.763 124.028 401.119 131.164C400.375 133.124 399.483 135.075 399.284 137.135C398.566 144.495 406.418 150.11 409.337 157.026C410.8 160.494 411.029 164.336 411.222 168.137C409.021 158.511 400.976 149.036 397.343 143.76L397.328 143.741Z" fill="url(#paint0_linear)"/>
<path d="M202.562 289.273C202.562 289.273 202.18 294.984 199.759 296.811C199.759 296.811 194.791 322.623 190.206 327.306L189.441 329.932L170.334 327.991L174.156 305.149L177.722 284.134L202.562 289.273Z" fill="#FFC1C8"/>
<path opacity="0.03" d="M202.562 289.273C202.562 289.273 202.18 294.984 199.759 296.811C199.759 296.811 194.791 322.623 190.206 327.306L189.441 329.932L170.334 327.991L174.156 305.149L177.722 284.134L202.562 289.273Z" fill="black"/>
<path d="M181.972 327.625L190.206 327.301L189.768 338.923L183.465 342.71L172.112 340.481L176.255 324.948L181.972 327.625Z" fill="#FF748F"/>
<path opacity="0.03" d="M181.972 327.625L190.206 327.301L189.768 338.923L183.465 342.71L172.112 340.481L176.255 324.948L181.972 327.625Z" fill="black"/>
<path d="M183.465 338.032C183.465 338.032 189.931 336.324 192.998 338.553C196.065 340.782 203.525 346.726 205.018 347.471C206.511 348.215 228.038 351.856 220.93 356.534C213.822 361.212 195.571 359.878 195.571 359.878C195.571 359.878 183.633 356.754 183.302 356.607C182.97 356.461 175.659 353.263 175.43 353.04C175.2 352.816 177.498 337.964 177.498 337.964L183.465 338.032Z" fill="#5D618C"/>
<path opacity="0.03" d="M183.465 338.032C183.465 338.032 189.931 336.324 192.998 338.553C196.065 340.782 203.525 346.726 205.018 347.471C206.511 348.215 228.038 351.856 220.93 356.534C213.822 361.212 195.571 359.878 195.571 359.878C195.571 359.878 183.633 356.754 183.302 356.607C182.97 356.461 175.659 353.263 175.43 353.04C175.2 352.816 177.498 337.964 177.498 337.964L183.465 338.032Z" fill="black"/>
<path d="M164.729 183.628L164.347 204.862L163.481 250.158L162.972 250.556C147.813 262.32 137.113 249.871 137.113 249.871C136.308 250.725 134.566 251.131 132.691 251.305C130.64 251.47 128.576 251.47 126.525 251.305L126.016 251.264C126.016 251.264 86.0078 207.147 83.5876 199.38C83.1075 198.067 83.12 196.648 83.6233 195.342C84.413 193.487 86.3034 192.381 88.1122 191.728C89.4391 191.258 90.8308 190.95 92.2495 190.814C92.2495 190.814 91.1031 182.705 85.8805 170.713C82.9456 163.975 83.2309 160.553 84.0411 158.835C84.6729 157.506 85.6257 157.223 85.6257 157.223C85.6257 157.223 87.2358 156.158 89.8293 154.482C91.9846 153.07 94.8226 151.224 97.9817 149.182L100.911 147.3C111.718 140.347 124.742 132.16 127.407 131.311C127.573 131.256 127.743 131.212 127.916 131.178C133.383 129.995 151.731 132.453 151.731 132.453L164.729 183.628Z" fill="#6C63FF"/>
<path opacity="0.1" d="M164.729 183.628L164.347 204.862C146.224 200.07 129.374 168.315 127.152 165.811C125.251 163.637 127.203 139.42 127.921 131.187C133.389 130.004 151.737 132.462 151.737 132.462L164.729 183.628Z" fill="black"/>
<path d="M372.743 142.275C372.743 142.275 358.604 148.785 356.82 174.368C356.82 174.368 354.528 187.388 353.254 189.672C351.98 191.956 345.866 213.542 346.63 216.169C346.63 216.169 345.356 218.796 340.643 217.654C335.93 216.512 310.454 212.971 304.722 209.545L288.926 202.807C288.926 202.807 258.1 183.276 251.604 200.065C245.107 216.854 282.048 216.178 282.048 216.178L299.499 223.488L352.362 239.126C352.362 239.126 359.368 241.981 364.081 232.844C367.097 227.088 370.678 221.584 374.781 216.398C374.781 216.398 385.481 189.444 385.354 184.875C385.226 180.307 396.818 169.457 396.818 169.457C396.818 169.457 399.111 140.676 380.259 141.247L372.743 142.275Z" fill="#FFC1C7"/>
<path opacity="0.03" d="M372.743 142.275C372.743 142.275 358.604 148.785 356.82 174.368C356.82 174.368 354.528 187.388 353.254 189.672C351.98 191.956 345.866 213.542 346.63 216.169C346.63 216.169 345.356 218.796 340.643 217.654C335.93 216.512 310.454 212.971 304.722 209.545L288.926 202.807C288.926 202.807 258.1 183.276 251.604 200.065C245.107 216.854 282.048 216.178 282.048 216.178L299.499 223.488L352.362 239.126C352.362 239.126 359.368 241.981 364.081 232.844C367.097 227.088 370.678 221.584 374.781 216.398C374.781 216.398 385.481 189.444 385.354 184.875C385.226 180.307 396.818 169.457 396.818 169.457C396.818 169.457 399.111 140.676 380.259 141.247L372.743 142.275Z" fill="black"/>
<path d="M223.197 164.496C223.962 165.295 227.528 166.944 227.528 166.944C227.528 166.944 239.248 179.448 243.961 182.646C248.674 185.844 264.087 198.065 260.969 202.692C257.85 207.32 254.345 206.288 254.345 206.288L226.764 189.156C226.764 189.156 217.083 182.934 215.111 179.964C213.139 176.995 210.714 170.777 210.714 170.777L223.197 164.496Z" fill="#FFC1C8"/>
<path opacity="0.03" d="M223.197 164.496C223.962 165.295 227.528 166.944 227.528 166.944C227.528 166.944 239.248 179.448 243.961 182.646C248.674 185.844 264.087 198.065 260.969 202.692C257.85 207.32 254.345 206.288 254.345 206.288L226.764 189.156C226.764 189.156 217.083 182.934 215.111 179.964C213.139 176.995 210.714 170.777 210.714 170.777L223.197 164.496Z" fill="black"/>
<path d="M207.723 143.138L227.528 166.949L209.695 173.176L202.307 153.244L207.723 143.138Z" fill="#DCE6F2"/>
<path opacity="0.03" d="M207.723 143.138L227.528 166.949L209.695 173.176L202.307 153.244L207.723 143.138Z" fill="black"/>
<path d="M212.88 203.844L216.446 208.526L219.503 278.652C219.503 278.652 219.758 285.276 217.593 287.218C215.427 289.159 197.721 287.903 197.721 287.903C197.721 287.903 198.358 216.407 198.613 215.036C198.868 213.666 212.88 203.844 212.88 203.844Z" fill="#575988"/>
<path opacity="0.1" d="M212.88 203.844L216.446 208.526L219.503 278.652C219.503 278.652 219.758 285.276 217.593 287.218C215.427 289.159 197.721 287.903 197.721 287.903C197.721 287.903 198.358 216.407 198.613 215.036C198.868 213.666 212.88 203.844 212.88 203.844Z" fill="black"/>
<path d="M189.029 292.489C187.869 295.046 186.507 297.526 184.953 299.909C184.953 299.909 181.641 316.853 180.229 318.415C179.21 319.557 178.741 328.082 178.573 332.527C178.512 334.135 178.487 335.209 178.487 335.209L159.013 343.533L158.926 332.532C158.926 332.532 158.926 332.482 158.926 332.386C158.804 329.96 157.397 301.864 160.348 300.228C162.08 299.264 163.731 295.203 164.847 291.873C165.698 289.301 166.233 287.149 166.233 287.149C166.233 287.149 187.867 285.888 189.671 287.967C190.333 288.707 189.875 290.507 189.029 292.489Z" fill="#FFC1C8"/>
<path opacity="0.1" d="M189.029 292.49C180.255 292.325 169.259 291.992 164.816 291.85C165.667 289.278 166.202 287.126 166.202 287.126C166.202 287.126 187.836 285.865 189.64 287.944C190.333 288.707 189.875 290.507 189.029 292.49Z" fill="black"/>
<path d="M163.456 188.539C163.456 188.539 157.469 217.092 158.615 235.48C159.762 253.868 157.723 267.45 160.271 272.827C162.819 278.204 162.819 290.415 162.819 290.415C162.819 290.415 197.466 291.558 201.033 291.101C204.6 290.644 204.472 288.245 204.472 288.245C204.472 288.245 202.052 269.277 204.345 263.338C206.638 257.399 206.256 239.24 206.256 239.24L215.937 210.002C215.937 210.002 218.866 196.868 212.752 191.5C206.638 186.132 163.456 188.539 163.456 188.539Z" fill="#575988"/>
<path d="M369.049 339.412L367.52 341.422L358.069 354.031L350.044 356.201L344.057 350.947L344.347 347.48L345.84 329.476C345.84 329.476 308.798 309.936 305.486 306.282C302.174 302.627 289.436 299.315 289.436 299.315C289.436 299.315 269.946 291.206 262.686 277.044C255.425 262.881 274.787 260.711 274.787 260.711L347.522 323.08L369.049 339.412Z" fill="#FFC1C7"/>
<path opacity="0.1" d="M367.546 341.417L358.094 354.026L350.069 356.196L344.082 350.943L344.373 347.475L350.961 352.542L363.317 339.636L367.546 341.417Z" fill="black"/>
<path d="M377.966 346.721L354.91 366.023C354.91 366.023 341.662 368.307 329.816 366.708C322.244 365.685 323.701 361.962 325.694 359.399L325.729 359.353C326.922 357.887 328.667 356.858 330.641 356.457C340.444 354.337 343.828 347.973 343.828 347.973L350.961 353.455L363.317 340.545L372.453 344.392L377.966 346.721Z" fill="#575988"/>
<path d="M377.966 346.941L354.91 366.251C354.91 366.251 341.662 368.536 329.816 366.937C322.244 365.913 323.192 362.19 325.184 359.627C327.475 361.256 330.225 362.282 333.128 362.592C339.624 363.163 349.432 362.592 349.432 362.592L372.453 344.624L377.966 346.941Z" fill="white"/>
<path d="M187.617 115.595C185.742 116.436 184.881 119.031 184.535 121.991C183.949 127.044 184.896 133.129 184.896 133.129C184.896 133.129 159.42 126.884 162.141 125.664C163.705 124.965 164.536 119.876 164.959 115.686C165.275 112.589 165.366 109.981 165.366 109.981C165.366 109.981 192.713 113.311 187.617 115.595Z" fill="#FFC1C8"/>
<path d="M390.408 143.312C390.408 143.312 359.495 169.503 360.514 161.892C360.657 160.832 360.25 159.365 359.445 157.634C356.586 151.457 348.683 141.868 342.503 134.856C337.968 129.712 334.35 125.952 334.35 125.952C334.35 125.952 372.743 97.0199 369.686 113.466C369.049 117.216 369.631 121.052 371.362 124.513C375.189 132.59 383.667 138.944 387.901 141.749C389.43 142.759 390.408 143.312 390.408 143.312Z" fill="#FFC1C7"/>
<path opacity="0.1" d="M365.442 118.487C364.886 119.104 362.828 121.269 362.216 121.84C356.408 127.263 355.633 135.089 346.589 135.089C345.226 135.089 343.865 135.012 342.513 134.856C337.978 129.712 334.361 125.952 334.361 125.952C334.361 125.952 372.743 97.0198 369.686 113.466C368.962 117.368 363.826 115.07 365.442 118.487Z" fill="black"/>
<path d="M378.516 105.545C378.517 111.208 376.645 116.744 373.137 121.452C369.628 126.161 364.641 129.832 358.806 131.999C352.971 134.167 346.55 134.734 340.356 133.63C334.161 132.525 328.471 129.798 324.005 125.794C319.539 121.79 316.497 116.688 315.265 111.134C314.034 105.579 314.666 99.8223 317.084 94.5906C319.501 89.3589 323.595 84.8875 328.847 81.7419C334.099 78.5963 340.273 76.9178 346.589 76.9187C350.786 76.9042 354.945 77.6348 358.826 79.0682C362.707 80.5017 366.233 82.6097 369.201 85.2707C372.169 87.9318 374.52 91.0932 376.119 94.5728C377.717 98.0524 378.532 101.781 378.516 105.545V105.545Z" fill="#FFC1C7"/>
<path opacity="0.1" d="M390.408 143.312C390.408 143.312 359.495 169.503 360.514 161.892C360.657 160.832 360.25 159.365 359.444 157.634L363.913 148.186C369.388 143.886 376.409 141.502 383.688 141.471C385.012 141.47 386.335 141.551 387.647 141.713L387.901 141.749C389.43 142.759 390.408 143.312 390.408 143.312Z" fill="black"/>
<path d="M426.753 335.186C426.753 335.186 404.843 366.553 404.843 368.993C404.843 368.993 380.045 360.313 371.215 358.485C362.385 356.658 354.059 340.061 354.059 340.061C354.059 340.061 330.621 320.261 321.449 317.52C313.669 315.195 276.28 267.907 265.142 253.64C263.778 251.894 263.069 249.804 263.116 247.673C263.164 245.542 263.966 243.48 265.407 241.784L265.615 241.542C268.563 238.217 272.467 235.677 276.906 234.194C281.345 232.711 286.151 232.342 290.806 233.127C291.84 233.298 292.86 233.523 293.864 233.803C309.903 238.248 337.683 245.887 351.695 249.336C356.382 250.492 359.516 251.163 360.153 251.122C361.681 250.981 362.522 249.752 362.986 248.404C363.34 247.308 363.53 246.174 363.551 245.033C363.551 245.033 363.551 244.959 363.551 244.827C363.122 241.923 362.447 239.051 361.534 236.238C359.898 231.213 357.065 225.315 352.362 222.496C348.459 220.162 345.356 215.013 343.731 209.029C341.545 200.947 342.049 191.331 346.926 185.035L351.639 175.067L359.521 158.392L363.913 149.1C369.388 144.8 376.409 142.416 383.688 142.384C385.012 142.383 386.335 142.464 387.647 142.627C391.025 143.047 393.945 143.956 395.162 145.747C398.897 151.229 407.391 161.279 409.088 171.33C410.784 181.381 408.751 197.827 414.524 203.921C420.297 210.016 423.696 224.63 429.81 227.677C435.924 230.724 419.961 237.115 419.961 237.115L420.022 238.079L420.297 242.296C420.297 242.296 420.409 242.41 420.613 242.639C424.17 246.586 456.305 284.481 426.753 335.186Z" fill="#F02B53"/>
<path d="M420.638 242.639C413.943 243.895 399.3 246.632 392.767 247.833L391.621 248.043C391.239 248.112 390.811 248.176 390.347 248.235C383.784 249.044 369.548 248.646 363.032 248.409C363.385 247.312 363.576 246.178 363.597 245.037C363.597 245.037 363.597 244.964 363.597 244.832C368.555 244.544 380.304 243.703 390.373 241.848C391.193 241.698 392.003 241.538 392.793 241.392C393.934 241.154 395.045 240.903 396.105 240.638C405.134 238.354 414.667 238.052 420.052 238.098L420.328 242.314C420.328 242.314 420.409 242.41 420.638 242.639Z" fill="#575988"/>
<path d="M392.742 241.373V247.833L391.596 248.043C391.213 248.112 390.785 248.176 390.322 248.235V241.867C391.142 241.698 391.952 241.538 392.742 241.373Z" fill="#FF6584"/>
<path opacity="0.1" d="M398.984 253.745C398.984 253.745 385.354 281.726 377.074 284.467C368.794 287.208 348.158 296.916 348.158 296.916C348.158 296.916 360.005 306.282 372.361 296.003C384.717 285.724 402.55 258.313 398.984 253.745Z" fill="black"/>
<path opacity="0.1" d="M413.887 249.985C413.887 249.985 415.161 260.606 413.378 262.548C411.594 264.49 413.887 249.985 413.887 249.985Z" fill="black"/>
<path opacity="0.1" d="M421.275 256.943C421.275 256.943 428.154 321.586 394.016 321.928C394.016 321.938 425.988 293.49 421.275 256.943Z" fill="black"/>
<path opacity="0.1" d="M429.937 272.475C429.937 272.475 439.746 306.396 426.88 310.279C426.88 310.288 433.631 292.7 429.937 272.475Z" fill="black"/>
<path opacity="0.1" d="M368.922 263.795C368.285 263.795 342.426 267.793 348.031 270.99C353.636 274.188 368.922 263.795 368.922 263.795Z" fill="black"/>
<path opacity="0.1" d="M386.755 218.006C386.755 218.006 407.9 234.795 403.824 236.622Z" fill="black"/>
<path opacity="0.1" d="M384.972 223.374C384.972 223.374 397.2 236.851 395.799 237.65Z" fill="black"/>
<path opacity="0.1" d="M411.085 221.309C411.085 221.309 416.69 227.59 415.798 228.961Z" fill="black"/>
<path opacity="0.1" d="M416.69 218.006C416.69 218.006 424.715 223.593 422.931 225.772Z" fill="black"/>
<path d="M372.106 149.936C372.106 149.936 398.219 151.763 397.073 170.608C395.926 189.453 376.437 194.25 376.437 194.25L351.088 187.74C351.088 187.74 362.425 151.192 372.106 149.936Z" fill="#FFC1C7"/>
<path opacity="0.1" d="M293.884 233.803C309.924 238.248 337.703 245.887 351.715 249.336C350.797 249.756 349.791 249.999 348.762 250.05C347.732 250.101 346.703 249.959 345.738 249.633L292.875 233.995L290.806 233.127C291.846 233.297 292.874 233.523 293.884 233.803Z" fill="black"/>
<path opacity="0.1" d="M383.341 187.224C380.86 190.193 378.674 193.391 378.755 195.392C378.796 196.831 377.736 200.499 376.32 204.844C372.671 215.756 367.717 226.282 361.544 236.238C359.908 231.213 357.075 225.315 352.372 222.496C348.469 220.162 345.366 215.013 343.741 209.029C344.979 204.698 346.156 201.057 346.64 200.189C347.914 197.905 350.207 184.885 350.207 184.885C350.422 181.585 350.904 178.304 351.649 175.067C353.498 167.15 356.642 161.819 359.531 158.392C363.016 154.226 366.155 152.791 366.155 152.791L373.67 151.763C382.332 151.503 386.51 157.41 388.523 163.883C390.989 171.928 388.926 180.535 383.341 187.224Z" fill="black"/>
<path d="M364.591 150.955C364.591 150.955 350.451 157.465 348.668 183.048C348.668 183.048 346.375 196.068 345.101 198.352C343.828 200.637 337.713 222.222 338.478 224.849C338.478 224.849 337.204 227.476 332.491 226.334C327.778 225.192 302.301 221.651 296.569 218.225L280.774 211.487C280.774 211.487 249.948 191.957 243.451 208.746C236.955 225.535 273.895 224.858 273.895 224.858L291.346 232.168L344.21 247.806C344.21 247.806 351.216 250.661 355.929 241.524C357.106 239.24 358.364 237.07 359.592 235.096C365.951 224.941 371.045 214.189 374.781 203.035C376.223 198.69 377.258 195.022 377.217 193.583C377.161 191.582 379.352 188.379 381.803 185.415C387.407 178.726 389.445 170.119 386.949 162.07C384.936 155.596 380.738 149.689 372.096 149.954L364.591 150.955Z" fill="#FFC1C7"/>
<path opacity="0.1" d="M187.617 115.595C185.742 116.436 184.881 119.031 184.535 121.991C184.204 121.991 183.872 121.991 183.541 121.991C176.691 122.002 170.076 119.752 164.959 115.668C165.275 112.571 165.366 109.962 165.366 109.962C165.366 109.962 192.713 113.311 187.617 115.595Z" fill="black"/>
<path d="M211.565 95.9508C211.565 100.92 209.921 105.778 206.842 109.91C203.763 114.042 199.386 117.263 194.265 119.165C189.145 121.066 183.51 121.564 178.074 120.594C172.638 119.625 167.644 117.232 163.725 113.718C159.806 110.204 157.137 105.727 156.056 100.853C154.974 95.9787 155.529 90.9266 157.65 86.3354C159.772 81.7441 163.363 77.8199 167.972 75.059C172.58 72.2981 177.999 70.8244 183.541 70.8244C190.969 70.8389 198.087 73.4908 203.339 78.1998C208.591 82.9088 211.549 89.2914 211.565 95.9508V95.9508Z" fill="#FFC1C8"/>
<path opacity="0.1" d="M221.032 194.355C221.032 194.355 206.383 199.609 201.797 201.436C197.212 203.263 170.971 199.038 170.971 199.038C170.971 199.038 157.341 192.87 158.488 186.703C159.634 180.535 147.533 160.329 147.533 160.329C147.533 160.329 147.151 142.398 152.501 138.972C157.851 135.545 155.813 128.35 155.813 128.35C155.813 128.35 155.838 128.113 155.92 127.724C156.251 126.198 157.448 122.315 161.418 121.041C162.221 120.847 163.065 120.827 163.879 120.981C167.685 121.498 173.937 124.038 179.108 126.381C183.388 128.323 186.929 130.127 187.74 130.548L187.913 130.634C187.913 130.634 189.824 134.632 192.116 133.375C194.409 132.119 205.874 137.944 208.039 140.571C210.205 143.198 208.676 155.532 208.294 158.616C207.912 161.7 210.459 170.837 213.262 176.081C216.064 181.326 221.032 194.355 221.032 194.355Z" fill="black"/>
<path d="M221.032 192.984C221.032 192.984 206.383 198.238 201.797 200.065C197.212 201.893 170.971 197.667 170.971 197.667C170.971 197.667 157.341 191.5 158.488 185.332C159.634 179.165 147.533 158.959 147.533 158.959C147.533 158.959 147.151 141.028 152.501 137.601C157.851 134.175 155.813 126.98 155.813 126.98C155.813 126.98 155.838 126.742 155.92 126.354C156.251 124.828 157.448 120.945 161.418 119.67C162.221 119.476 163.065 119.456 163.879 119.611C167.685 120.127 173.937 122.667 179.108 125.011C183.388 126.952 186.929 128.757 187.74 129.177L187.913 129.264C187.913 129.264 189.824 133.261 192.116 132.005C194.409 130.749 205.874 136.573 208.039 139.2C210.205 141.827 208.676 154.162 208.294 157.246C207.912 160.329 210.459 169.466 213.262 174.711C216.064 179.955 221.032 192.984 221.032 192.984Z" fill="#DCE6F2"/>
<path d="M173.605 175.442C173.605 175.442 161.035 193.715 158.997 194.707L159.762 201.103C159.762 201.103 177.682 197.749 178.787 193.259C179.893 188.768 179.297 175.213 179.297 175.213L173.605 175.442Z" fill="#575988"/>
<path opacity="0.2" d="M173.605 175.442C173.605 175.442 161.035 193.715 158.997 194.707L159.762 201.103C159.762 201.103 177.682 197.749 178.787 193.259C179.893 188.768 179.297 175.213 179.297 175.213L173.605 175.442Z" fill="black"/>
<path opacity="0.1" d="M191.291 152.161C191.291 152.161 193.518 159.872 197.023 162.499C200.529 165.126 191.291 152.161 191.291 152.161Z" fill="black"/>
<path d="M169.443 172.49C169.764 173.007 180.525 186.141 191.862 190.993C203.199 195.844 228.486 201.559 228.486 201.559C228.486 201.559 248.995 204.986 252.495 206.297C255.996 207.608 260.459 201.728 238.483 193.336C216.507 184.944 212.243 181.23 212.243 181.23C212.243 181.23 193.135 172.883 190.078 168.772C187.021 164.66 169.443 172.49 169.443 172.49Z" fill="#FFC1C8"/>
<path opacity="0.1" d="M177.468 236.385C177.85 236.156 187.021 227.362 188.168 231.131C189.314 234.9 177.468 236.385 177.468 236.385Z" fill="black"/>
<path opacity="0.1" d="M182.818 219.024C182.69 219.367 181.416 229.075 177.722 230.217Z" fill="black"/>
<path opacity="0.1" d="M186.639 221.66C186.639 221.66 183.327 232.054 179.124 232.73Z" fill="black"/>
<path opacity="0.1" d="M169.825 252.831C169.825 252.831 175.429 252.945 176.194 249.747Z" fill="black"/>
<path opacity="0.1" d="M177.468 273.626C178.232 273.741 190.206 280.593 187.149 281.964C184.091 283.334 177.468 273.626 177.468 273.626Z" fill="black"/>
<path opacity="0.1" d="M178.553 331.472V332.527C178.492 334.135 178.466 335.209 178.466 335.209L158.992 343.533L158.906 332.532C158.906 332.532 158.906 332.482 158.906 332.386V331.641L166.701 331.865L178.553 331.472Z" fill="black"/>
<path d="M182.196 347.466L165.952 353.04L158.661 349.175L158.737 343.884L158.906 332.527L166.701 332.751L178.553 332.381V340.335L182.196 347.466Z" fill="#FF748F"/>
<path opacity="0.1" d="M182.181 347.471L165.937 353.044L158.646 349.179L158.722 343.889C159.78 345.132 161.132 346.15 162.681 346.868C164.23 347.587 165.937 347.99 167.68 348.046C167.68 348.046 173.396 341.65 176.877 339.796C177.124 339.663 177.398 339.577 177.684 339.542C177.97 339.507 178.26 339.525 178.538 339.595V340.339L182.181 347.471Z" fill="black"/>
<path d="M167.695 348.955C167.695 348.955 161.071 349.033 157.749 343.382C157.749 343.382 153.026 347.471 152.939 356.091C152.852 364.712 153.026 365.009 153.026 365.009C153.026 365.009 172.087 364.342 175.654 365.53C179.22 366.717 209.14 364.488 209.14 364.488C209.14 364.488 211.127 359.805 202.093 358.17C193.059 356.534 185.6 347.914 185.35 347.544C185.1 347.174 180.377 338.864 176.897 340.691C173.417 342.518 167.695 348.955 167.695 348.955Z" fill="#5D618C"/>
<path opacity="0.1" d="M185.263 68.193L183.363 67.96L184.55 67.9326L185.263 68.193Z" fill="black"/>
<path opacity="0.1" d="M211.565 95.9508C211.566 97.8997 211.315 99.8421 210.816 101.739C210.391 101.641 209.984 101.487 209.608 101.282C209.063 100.967 208.518 100.533 207.876 100.583C207.5 100.636 207.147 100.782 206.857 101.004C203.841 102.982 201.599 106.234 197.93 106.865C198.298 105.902 198.347 104.865 198.073 103.877C197.295 104.579 196.34 105.102 195.29 105.404C194.239 105.706 193.123 105.778 192.035 105.613C192.3 105.043 192.331 104.406 192.122 103.818C189.538 105.115 186.849 106.234 184.076 107.166C183.979 106.709 183.888 106.289 183.791 105.851C179.888 107.559 180.194 113.357 176.291 115.065C173.967 116.084 170.686 115.353 169.081 117.189C169.02 117.263 168.964 117.336 168.908 117.413C164.737 115.126 161.307 111.9 158.957 108.057C156.607 104.213 155.419 99.8847 155.512 95.5022C155.605 91.1196 156.975 86.8351 159.486 83.0741C161.997 79.313 165.561 76.2064 169.825 74.0627C174.09 71.9189 178.905 70.8127 183.794 70.8538C188.682 70.895 193.474 72.082 197.693 74.2971C201.911 76.5122 205.41 79.6783 207.842 83.4809C210.274 87.2835 211.554 91.5903 211.555 95.9737L211.565 95.9508Z" fill="black"/>
<path d="M185.263 67.2748C182.909 66.4022 180.52 65.5251 177.987 65.2647C175.455 65.0043 172.724 65.4474 170.813 66.9596C169.285 68.1656 168.087 70.1026 166.049 70.1575C165.056 70.1894 164.138 69.7417 163.247 69.3534C160.699 68.257 157.515 67.6357 155.217 69.0884C153.382 70.2534 152.694 72.3914 152.394 74.3878C152.093 76.3842 152.022 78.4994 150.962 80.2583C150.305 81.3547 149.306 82.2501 148.481 83.2506C146.383 85.7927 145.397 88.936 145.709 92.086C145.922 93.6436 146.294 95.1805 146.82 96.6772L148.899 103.26C149.953 106.604 151.028 109.994 153.036 112.968C155.043 115.942 158.131 118.501 161.902 119.268C164.174 119.725 166.926 119.35 168.199 117.601C168.525 117.144 168.734 116.655 169.091 116.23C170.671 114.403 173.977 115.129 176.301 114.11C180.204 112.402 179.898 106.604 183.801 104.896L184.091 106.207C186.861 105.274 189.548 104.156 192.132 102.863C192.34 103.451 192.311 104.087 192.05 104.658C193.137 104.821 194.252 104.748 195.301 104.446C196.351 104.144 197.305 103.622 198.083 102.922C198.357 103.91 198.308 104.947 197.94 105.91C201.609 105.275 203.851 102.022 206.867 100.044C207.159 99.8256 207.511 99.682 207.886 99.6284C208.533 99.5782 209.073 100.012 209.619 100.323C210.563 100.837 211.674 101.049 212.769 100.923C213.865 100.798 214.881 100.343 215.651 99.633C217.256 98.0706 217.328 95.6676 216.813 93.5935C216.298 91.5195 215.285 89.5413 215.065 87.4261C214.744 84.5435 215.865 81.5329 214.836 78.7918C213.965 76.4665 211.682 74.7807 209.231 73.6752C206.781 72.5696 204.136 71.9254 201.634 70.9341C199.26 69.9793 197.049 68.7001 194.583 67.9463C191.016 66.8545 187.138 66.9413 183.373 67.0327" fill="#794F6A"/>
<path d="M185.747 152.371C185.747 152.371 189.824 127.779 154.921 128.994L137.342 131.091C137.342 131.091 154.111 133.796 158.146 134.193L158.574 134.248C162.309 134.86 175.221 134.097 185.747 152.371Z" fill="#6C63FF"/>
<path opacity="0.1" d="M163.456 250.442V250.158C177.768 239.062 163.456 250.442 163.456 250.442Z" fill="black"/>
<path d="M132.665 251.305C130.614 251.47 128.551 251.47 126.5 251.305L83.6233 195.351C84.413 193.496 86.3034 192.39 88.1122 191.737L132.665 251.305Z" fill="#575988"/>
<path d="M104.86 191.395L102.822 193.565C102.822 193.565 87.3632 170.54 84.0411 158.844C84.6729 157.515 85.6257 157.232 85.6257 157.232C85.6257 157.232 87.2358 156.167 89.8293 154.491C90.7923 159.991 94.0787 173.441 104.86 191.395Z" fill="#575988"/>
<path d="M116.197 184.304L112.121 186.36C100.993 174.683 100.045 155.066 100.147 147.25L103.082 145.358C103.479 155.624 116.197 184.304 116.197 184.304Z" fill="#575988"/>
<path opacity="0.1" d="M126.897 182.258C126.77 183.742 122.057 198.818 128.935 201.331C135.814 203.844 126.897 182.258 126.897 182.258Z" fill="black"/>
<path opacity="0.1" d="M141.673 208.184C141.928 208.983 144.221 235.023 149.189 232.967C154.157 230.912 151.482 201.217 151.482 201.217L141.673 208.184Z" fill="black"/>
<path opacity="0.1" d="M378.516 105.545C378.527 112.939 375.333 120.048 369.61 125.372C367.278 125.814 364.874 125.852 362.527 125.481C361.327 125.345 360.187 124.934 359.215 124.289C358.28 123.515 357.547 122.565 357.07 121.507C355.21 117.92 354.258 113.777 351.649 110.707C349.04 107.637 343.746 106.289 341.229 109.437C339.858 111.145 339.629 113.772 337.8 114.956C335.604 116.381 332.705 114.704 330.998 112.671C325.953 106.732 327.681 95.0554 318.061 93.4154L317.674 93.356C320.758 87.4584 325.994 82.6803 332.516 79.8105C339.038 76.9407 346.457 76.1508 353.547 77.5712C360.637 78.9916 366.975 82.5374 371.515 87.6231C376.055 92.7089 378.524 99.0306 378.516 105.545V105.545Z" fill="black"/>
<path d="M318.57 92.9905C317.011 92.721 315.202 92.7575 314.158 91.5514C313.541 90.8388 313.363 89.852 313.215 88.9154C312.589 84.8678 312.247 80.5232 314.046 76.8548C316.996 70.8382 324.588 68.828 331.186 69.2758C337.785 69.7235 344.261 71.93 350.859 71.56C355.71 71.2767 360.494 69.5955 365.33 70.0752C369.156 70.459 372.723 72.163 376.162 73.9036C379.382 75.5299 382.674 77.2797 384.956 80.1029C388.309 84.2374 388.941 89.9479 389.033 95.3067C389.145 101.597 388.65 108.13 385.705 113.667C381.436 121.703 371.913 126.486 363.037 125.047C361.837 124.911 360.696 124.5 359.725 123.855C358.792 123.08 358.062 122.13 357.585 121.073C355.72 117.482 354.767 113.343 352.158 110.268C349.55 107.194 344.256 105.855 341.739 109.003C340.368 110.707 340.139 113.338 338.309 114.522C336.113 115.942 333.214 114.266 331.507 112.237C326.463 106.294 328.19 94.626 318.57 92.9905Z" fill="#945B79"/>
<path d="M396.11 79.7101C400.966 81.7887 404.334 85.8363 407.498 89.7332C410.132 92.9722 412.858 96.4351 413.204 100.428C413.342 102.063 413.072 103.726 413.418 105.334C414.636 111.013 422.59 113.558 424.913 118.967C425.994 121.516 425.652 124.353 425.178 127.048C424.497 130.947 423.58 134.81 422.432 138.62C421.744 140.904 420.965 143.28 421.489 145.601C421.892 147.401 423.018 148.981 423.915 150.626C426.253 155.062 426.656 160.092 426.834 164.994C427.013 169.896 427.008 174.884 428.643 179.562C430.279 184.24 433.886 188.663 439.088 190.175C437.341 191.243 435.316 191.888 433.208 192.048C432.898 193.578 433.871 195.136 435.247 196.105C436.622 197.073 438.304 197.576 439.944 198.055C438.825 198.764 437.537 199.23 436.183 199.417C434.828 199.604 433.444 199.507 432.138 199.133C429.963 198.494 428.164 197.123 426.427 195.78L416.659 188.247C415.354 187.3 414.148 186.248 413.057 185.104C406.739 178.064 410.509 167.397 406.983 158.94C404.109 152.065 396.385 146.482 397.093 139.168C397.287 137.122 398.163 135.185 398.897 133.229C401.499 126.135 402.317 118.613 401.29 111.202C400.264 103.791 397.419 96.676 392.961 90.3682C391.845 88.8149 390.551 87.2525 388.691 86.4531C385.863 85.2424 381.823 85.7632 380.218 83.3465C379.367 82.0719 379.199 79.8288 379.122 78.3989C384.309 77.3345 391.259 77.6314 396.11 79.7101Z" fill="#945B79"/>
<path opacity="0.1" d="M147.976 157.058C150.361 143.006 169.952 137.93 180.352 148.671C183.358 151.786 186.023 155.199 187.531 158.612C192.626 170.147 193.008 171.175 193.008 171.175C193.008 171.175 161.545 176.657 161.8 180.768L147.533 160.325C147.533 160.325 147.64 159.045 147.976 157.058Z" fill="black"/>
<path d="M147.976 155.688C150.361 141.635 169.952 136.56 180.352 147.3C183.358 150.416 186.023 153.828 187.531 157.241C192.626 168.776 193.008 169.804 193.008 169.804C193.008 169.804 161.545 175.286 161.8 179.398L147.533 158.954C147.533 158.954 147.64 157.675 147.976 155.688Z" fill="#DCE6F2"/>
<path opacity="0.1" d="M156.832 137.656C157.214 138.227 172.245 154.674 180.143 157.017C188.04 159.361 156.832 137.656 156.832 137.656Z" fill="black"/>
<path opacity="0.1" d="M92.2495 190.824C92.2495 190.824 131.992 232.853 137.088 249.871Z" fill="black"/>
<path opacity="0.1" d="M93.7781 151.992C93.7781 151.992 102.44 192.194 119.254 209.097C136.069 226 153.393 254.782 153.393 254.782" stroke="black" stroke-width="2" stroke-miterlimit="10"/>
<g opacity="0.1">
<path opacity="0.1" d="M216.579 93.5022C216.613 94.8384 216.098 96.1392 215.132 97.1569C214.362 97.867 213.346 98.3218 212.25 98.4471C211.154 98.5724 210.043 98.3608 209.099 97.8467C208.554 97.5361 208.014 97.1021 207.367 97.1523C206.991 97.2059 206.639 97.3495 206.347 97.5681C203.479 99.4503 201.308 102.484 197.94 103.32C198.06 104.127 197.969 104.948 197.675 105.718C201.344 105.083 203.586 101.83 206.602 99.8523C206.894 99.6338 207.246 99.4901 207.621 99.4366C208.268 99.3863 208.808 99.8203 209.354 100.131C210.298 100.645 211.409 100.857 212.505 100.731C213.6 100.606 214.616 100.151 215.386 99.4411C216.961 97.8879 217.058 95.5488 216.579 93.5022Z" fill="black"/>
<path opacity="0.1" d="M214.546 84.9318C214.587 85.3064 214.658 85.6764 214.74 86.0465C214.74 83.7623 215.347 81.3867 214.74 79.1938C214.75 81.0577 214.331 83.0313 214.546 84.9318Z" fill="black"/>
<path opacity="0.1" d="M197.573 100.428C196.795 101.127 195.841 101.65 194.792 101.952C193.742 102.254 192.628 102.327 191.541 102.164C191.802 101.592 191.83 100.957 191.622 100.369C189.039 101.662 186.351 102.779 183.582 103.713L183.291 102.401C179.388 104.11 179.694 109.907 175.791 111.616C173.468 112.635 170.186 111.899 168.581 113.736C168.225 114.151 168.016 114.649 167.69 115.106C166.416 116.856 163.665 117.235 161.392 116.774C157.611 116.006 154.529 113.448 152.526 110.474C150.524 107.5 149.444 104.11 148.389 100.766L146.31 94.1829C145.969 93.0864 145.622 91.99 145.398 90.8707C145.398 91.2088 145.398 91.5423 145.454 91.8758C145.667 93.4335 146.039 94.9703 146.565 96.4671L148.644 103.05C149.698 106.394 150.774 109.784 152.781 112.758C154.789 115.732 157.876 118.29 161.647 119.058C163.919 119.515 166.671 119.14 167.945 117.391C168.271 116.934 168.48 116.445 168.836 116.02C170.416 114.193 173.723 114.919 176.046 113.9C179.949 112.192 179.643 106.394 183.546 104.686L183.837 105.997C186.601 105.063 189.283 103.945 191.862 102.653C192.07 103.241 192.041 103.877 191.78 104.448C192.814 104.602 193.873 104.542 194.878 104.275C195.882 104.007 196.806 103.539 197.579 102.904C197.796 102.09 197.794 101.241 197.573 100.428V100.428Z" fill="black"/>
</g>
<path opacity="0.1" d="M187.74 130.548C184.998 131.964 178.629 135.116 177.34 134.577C175.965 134.006 160.954 129.296 155.94 127.724C156.271 126.198 157.469 122.315 161.438 121.041C162.242 120.847 163.085 120.827 163.899 120.981L179.124 126.381C183.388 128.323 186.929 130.127 187.74 130.548Z" fill="black"/>
<path d="M187.74 129.177C184.998 130.593 178.629 133.746 177.34 133.206C175.965 132.635 160.954 127.925 155.94 126.354C156.271 124.828 157.469 120.945 161.438 119.67C162.242 119.476 163.085 119.456 163.899 119.611L179.124 125.011C183.388 126.952 186.929 128.757 187.74 129.177Z" fill="#DCE6F2"/>
<path opacity="0.1" d="M389.048 94.7631C388.9 99.9117 388.121 105.06 385.731 109.56C381.461 117.596 371.938 122.379 363.062 120.94C361.862 120.804 360.722 120.393 359.75 119.748C358.818 118.973 358.087 118.023 357.61 116.966C355.745 113.375 354.793 109.236 352.184 106.161C349.575 103.087 344.281 101.748 341.764 104.896C340.393 106.6 340.164 109.231 338.335 110.415C336.139 111.835 333.24 110.159 331.533 108.13C326.488 102.191 328.216 90.5098 318.596 88.8743C317.037 88.6048 315.228 88.6414 314.183 87.4353C313.567 86.7226 313.389 85.7358 313.241 84.7993C313.068 83.6983 312.92 82.5745 312.833 81.4461C312.656 83.9402 312.793 86.4442 313.241 88.9109C313.389 89.8474 313.567 90.8342 314.183 91.5469C315.228 92.7529 317.037 92.7164 318.596 92.9859C328.216 94.6214 326.488 106.289 331.533 112.242C333.235 114.247 336.118 115.924 338.335 114.526C340.164 113.343 340.373 110.711 341.764 109.007C344.281 105.86 349.575 107.203 352.184 110.273C354.793 113.343 355.75 117.486 357.61 121.077C358.087 122.134 358.818 123.084 359.75 123.859C360.722 124.505 361.862 124.916 363.062 125.052C371.938 126.491 381.461 121.708 385.731 113.672C388.676 108.135 389.17 101.602 389.058 95.3113C389.048 95.1103 389.048 94.9275 389.048 94.7631Z" fill="black"/>
<g opacity="0.1">
<path opacity="0.1" d="M422.366 116.692C423.446 119.241 423.105 122.078 422.631 124.773C421.949 128.669 421.032 132.529 419.884 136.336C419.197 138.62 418.417 140.996 418.942 143.316C419.344 145.116 420.47 146.697 421.367 148.342C423.706 152.778 424.108 157.807 424.287 162.709C424.465 167.611 424.46 172.6 426.095 177.278C427.155 180.466 429.18 183.329 431.945 185.547C430.484 183.792 429.367 181.827 428.643 179.736C427.008 175.058 427.008 170.069 426.834 165.167C426.661 160.265 426.253 155.235 423.915 150.804C423.038 149.146 421.877 147.565 421.489 145.779C420.98 143.458 421.744 141.078 422.432 138.794C423.581 134.976 424.498 131.106 425.178 127.199C425.652 124.504 425.994 121.662 424.913 119.113C424.042 117.071 422.366 115.458 420.547 113.891C421.309 114.736 421.922 115.68 422.366 116.692V116.692Z" fill="black"/>
<path opacity="0.1" d="M439.088 190.358C437.726 189.954 436.446 189.355 435.298 188.585C433.856 189.257 432.28 189.667 430.661 189.791C430.35 191.321 431.323 192.879 432.699 193.848C432.972 194.045 433.262 194.224 433.565 194.382C433.211 193.713 433.092 192.962 433.224 192.231C435.325 192.064 437.343 191.42 439.088 190.358V190.358Z" fill="black"/>
<path opacity="0.1" d="M386.128 84.2054C384.187 83.3739 381.675 83.3557 379.769 82.6476C379.877 82.965 380.022 83.2713 380.203 83.5612C381.808 85.9734 385.848 85.4526 388.676 86.6678C389.033 86.8285 389.374 87.0165 389.695 87.2297C388.811 85.9668 387.584 84.9261 386.128 84.2054V84.2054Z" fill="black"/>
<path opacity="0.1" d="M435.736 196.639C433.784 197.385 431.597 197.478 429.576 196.9C427.4 196.26 425.601 194.889 423.864 193.546L414.096 186.013C413.632 185.657 413.174 185.296 412.725 184.93C412.827 185.054 412.929 185.182 413.041 185.305C414.132 186.45 415.338 187.502 416.644 188.448L426.411 195.986C428.149 197.324 429.947 198.7 432.123 199.339C433.429 199.712 434.814 199.808 436.168 199.62C437.522 199.432 438.81 198.966 439.929 198.256C438.454 197.894 437.043 197.35 435.736 196.639Z" fill="black"/>
<path opacity="0.1" d="M404.95 87.4536C407.584 90.6926 410.31 94.1554 410.657 98.1483C410.794 99.7838 410.524 101.447 410.871 103.055C411.421 105.627 413.362 107.559 415.533 109.4C414.484 108.272 413.758 106.931 413.418 105.494C413.072 103.882 413.342 102.219 413.204 100.583C412.858 96.5904 410.147 93.1275 407.498 89.8931C405.582 87.5312 403.585 85.1191 401.236 83.1181C402.545 84.5069 403.763 85.9871 404.95 87.4536Z" fill="black"/>
</g>
<path opacity="0.1" d="M382.597 77.9832C382.597 77.9832 379.54 82.5516 388.202 86.3571L388.712 85.1374L382.597 77.9832Z" fill="black"/>
<path d="M382.088 77.9832C382.088 77.9832 379.031 82.5516 387.693 86.3571L388.202 85.1374L382.088 77.9832Z" fill="#FF6584"/>
<path d="M502.697 336.552C502.697 336.552 505.5 339.837 501.408 344.775C497.317 349.714 493.944 353.912 495.294 357.005C495.294 357.005 501.47 347.799 506.504 347.672C511.538 347.544 508.226 342.089 502.697 336.552Z" fill="#2ED148"/>
<path opacity="0.1" d="M502.697 336.552C502.942 336.869 503.136 337.215 503.273 337.58C508.175 342.747 510.784 347.567 506.071 347.685C501.684 347.8 496.42 354.835 495.156 356.612C495.197 356.749 495.248 356.882 495.304 357.019C495.304 357.019 501.48 347.813 506.514 347.685C511.548 347.557 508.226 342.089 502.697 336.552Z" fill="#39DB49"/>
<path d="M507.905 340.737C507.905 341.893 507.757 342.829 507.579 342.829C507.4 342.829 507.258 341.915 507.258 340.737C507.258 339.558 507.436 340.125 507.614 340.125C507.793 340.125 507.905 339.581 507.905 340.737Z" fill="#FFD037"/>
<path d="M509.688 342.116C508.557 342.669 507.569 343.003 507.487 342.861C507.406 342.719 508.246 342.158 509.377 341.605C510.508 341.052 510.065 341.454 510.152 341.605C510.238 341.756 510.824 341.564 509.688 342.116Z" fill="#FFD037"/>
<path d="M487.896 336.552C487.896 336.552 485.093 339.837 489.185 344.775C493.276 349.714 496.649 353.912 495.299 357.005C495.299 357.005 489.129 347.799 484.09 347.672C479.05 347.544 482.388 342.089 487.896 336.552Z" fill="#2ED148"/>
<path opacity="0.1" d="M487.896 336.552C487.651 336.869 487.458 337.215 487.32 337.58C482.418 342.747 479.81 347.567 484.523 347.685C488.91 347.8 494.173 354.835 495.437 356.612C495.395 356.75 495.344 356.886 495.284 357.019C495.284 357.019 489.114 347.813 484.074 347.685C479.035 347.557 482.388 342.089 487.896 336.552Z" fill="black"/>
<path d="M482.709 340.737C482.709 341.893 482.857 342.829 483.035 342.829C483.213 342.829 483.356 341.915 483.356 340.737C483.356 339.558 483.178 340.125 482.999 340.125C482.821 340.125 482.709 339.581 482.709 340.737Z" fill="#FFD037"/>
<path d="M480.925 342.116C482.057 342.669 483.04 343.003 483.127 342.861C483.213 342.719 482.367 342.158 481.236 341.605C480.105 341.052 480.548 341.454 480.462 341.605C480.375 341.756 479.794 341.564 480.925 342.116Z" fill="#FFD037"/>
<path d="M483.6 356.589C483.6 356.589 491.427 356.37 493.791 354.867C496.155 353.364 505.831 351.559 506.417 353.953C507.003 356.347 518.177 365.964 509.342 366.028C500.507 366.092 488.813 364.794 486.459 363.51C484.105 362.227 483.6 356.589 483.6 356.589Z" fill="#762424"/>
<path opacity="0.2" d="M509.495 365.214C500.659 365.278 488.966 363.981 486.612 362.697C484.818 361.715 484.105 358.202 483.865 356.585H483.6C483.6 356.585 484.11 362.245 486.454 363.533C488.798 364.822 500.501 366.114 509.337 366.05C511.884 366.05 512.766 365.219 512.72 364.013C512.353 364.758 511.39 365.214 509.495 365.214Z" fill="black"/>
<path d="M133.822 348.535C134.757 347.853 135.439 346.932 135.778 345.895C136.028 344.844 135.529 343.583 134.413 343.199C133.159 342.77 131.819 343.551 130.805 344.337C129.791 345.122 128.625 346.022 127.295 345.853C127.979 345.298 128.49 344.593 128.78 343.808C129.069 343.022 129.126 342.183 128.946 341.372C128.888 341.036 128.729 340.72 128.487 340.458C127.794 339.791 126.53 340.079 125.695 340.604C123.045 342.272 122.306 345.502 122.296 348.403C122.026 347.356 122.25 346.265 122.245 345.205C122.24 344.145 121.909 342.92 120.9 342.363C120.277 342.054 119.574 341.896 118.862 341.906C117.67 341.865 116.345 341.975 115.53 342.756C114.511 343.725 114.781 345.355 115.662 346.411C116.544 347.466 117.879 348.151 119.107 348.887C120.095 349.414 120.938 350.133 121.573 350.993C121.647 351.114 121.708 351.241 121.756 351.372H129.19C130.87 350.618 132.428 349.664 133.822 348.535V348.535Z" fill="#2DB53B"/>
<path d="M74.4977 355.739C74.4977 355.739 67.3643 333.948 75.8377 317.904C79.4504 311.196 80.5409 303.619 78.9458 296.309C78.1542 292.843 77.0115 289.45 75.532 286.171" stroke="#535461" stroke-width="2" stroke-miterlimit="10"/>
<path d="M80.826 276.034C80.826 278.702 75.4301 286.45 75.4301 286.45C75.4301 286.45 70.0342 278.684 70.0342 276.034C70.0342 274.751 70.6027 273.52 71.6146 272.613C72.6266 271.706 73.999 271.196 75.4301 271.196C76.8612 271.196 78.2336 271.706 79.2455 272.613C80.2575 273.52 80.826 274.751 80.826 276.034V276.034Z" fill="#6C63FF"/>
<path d="M89.7426 290.827C88.1224 293.07 78.9 296.944 78.9 296.944C78.9 296.944 79.063 287.807 80.6833 285.573C81.4751 284.526 82.6926 283.799 84.0751 283.547C85.4575 283.296 86.8949 283.539 88.0794 284.226C89.2639 284.913 90.1013 285.989 90.4122 287.222C90.7231 288.456 90.4827 289.75 89.7426 290.827V290.827Z" fill="#6C63FF"/>
<path d="M89.3503 316.113C86.6906 317.314 76.5459 316.483 76.5459 316.483C76.5459 316.483 81.8348 308.68 84.4945 307.474C85.1289 307.173 85.8238 306.988 86.5387 306.931C87.2537 306.873 87.9742 306.944 88.6581 307.14C89.342 307.335 89.9755 307.651 90.5216 308.069C91.0677 308.486 91.5154 308.997 91.8384 309.572C92.1614 310.147 92.3533 310.774 92.4029 311.416C92.4524 312.058 92.3586 312.702 92.1269 313.311C91.8952 313.92 91.5302 314.482 91.0535 314.963C90.5767 315.444 89.9977 315.835 89.3503 316.113Z" fill="#6C63FF"/>
<path d="M84.25 335.182C81.8552 336.771 71.7004 337.466 71.7004 337.466C71.7004 337.466 75.4403 328.973 77.8147 327.383C78.38 326.968 79.0335 326.66 79.7357 326.477C80.4378 326.295 81.1739 326.243 81.8993 326.324C82.6246 326.404 83.3242 326.616 83.9555 326.947C84.5867 327.277 85.1365 327.719 85.5715 328.245C86.0066 328.772 86.3177 329.373 86.4861 330.01C86.6545 330.648 86.6766 331.31 86.5511 331.955C86.4256 332.601 86.1551 333.217 85.7561 333.766C85.357 334.315 84.8377 334.786 84.2296 335.15L84.25 335.182Z" fill="#6C63FF"/>
<path d="M67.5732 297.46C69.7081 299.324 79.6643 301.252 79.6643 301.252C79.6643 301.252 77.2236 292.384 75.0785 290.521C74.5748 290.059 73.9732 289.692 73.309 289.443C72.6449 289.193 71.9317 289.065 71.2115 289.066C70.4913 289.067 69.7786 289.198 69.1155 289.45C68.4524 289.702 67.8523 290.07 67.3506 290.534C66.8489 290.997 66.4557 291.546 66.1942 292.147C65.9326 292.749 65.8081 293.391 65.8279 294.037C65.8477 294.682 66.0114 295.318 66.3094 295.906C66.6074 296.494 67.0337 297.022 67.563 297.46H67.5732Z" fill="#6C63FF"/>
<path d="M61.9328 319.832C64.5925 321.033 74.7372 320.206 74.7372 320.206C74.7372 320.206 69.4534 312.399 66.7886 311.197C66.1562 310.911 65.4673 310.74 64.7611 310.693C64.0549 310.646 63.3453 310.724 62.6727 310.922C62.0002 311.121 61.3778 311.437 60.8413 311.851C60.3047 312.266 59.8645 312.771 59.5457 313.338C59.2268 313.904 59.0356 314.522 58.9831 315.155C58.9305 315.789 59.0175 316.425 59.2392 317.028C59.4608 317.631 59.8128 318.189 60.275 318.67C60.7371 319.151 61.3005 319.546 61.9328 319.832V319.832Z" fill="#6C63FF"/>
<path d="M59.7622 342.253C62.157 343.839 72.3118 344.538 72.3118 344.538C72.3118 344.538 68.5719 336.04 66.1975 334.451C65.0452 333.761 63.6414 333.496 62.2768 333.709C60.9123 333.922 59.6914 334.598 58.867 335.596C58.0427 336.594 57.6779 337.838 57.8484 339.071C58.0188 340.303 58.7113 341.43 59.7826 342.217L59.7622 342.253Z" fill="#6C63FF"/>
<path d="M80.826 276.034C80.826 278.702 75.4301 286.45 75.4301 286.45C75.4301 286.45 70.0342 278.684 70.0342 276.034C70.0342 274.751 70.6027 273.52 71.6146 272.613C72.6266 271.706 73.999 271.196 75.4301 271.196C76.8612 271.196 78.2336 271.706 79.2455 272.613C80.2575 273.52 80.826 274.751 80.826 276.034V276.034Z" fill="#35CF57"/>
<path d="M89.7426 290.827C88.1224 293.07 78.9 296.944 78.9 296.944C78.9 296.944 79.063 287.807 80.6833 285.573C81.4751 284.526 82.6926 283.799 84.0751 283.547C85.4575 283.296 86.8949 283.539 88.0794 284.226C89.2639 284.913 90.1013 285.989 90.4122 287.222C90.7231 288.456 90.4827 289.75 89.7426 290.827V290.827Z" fill="#35CF57"/>
<path d="M89.3503 316.113C86.6906 317.314 76.5459 316.483 76.5459 316.483C76.5459 316.483 81.8348 308.68 84.4945 307.474C85.1289 307.173 85.8238 306.988 86.5387 306.931C87.2537 306.873 87.9742 306.944 88.6581 307.14C89.342 307.335 89.9755 307.651 90.5216 308.069C91.0677 308.486 91.5154 308.997 91.8384 309.572C92.1614 310.147 92.3533 310.774 92.4029 311.416C92.4524 312.058 92.3586 312.702 92.1269 313.311C91.8952 313.92 91.5302 314.482 91.0535 314.963C90.5767 315.444 89.9977 315.835 89.3503 316.113Z" fill="#2DB53B"/>
<path d="M84.25 335.182C81.8552 336.771 71.7004 337.466 71.7004 337.466C71.7004 337.466 75.4403 328.973 77.8147 327.383C78.38 326.968 79.0335 326.66 79.7357 326.477C80.4378 326.295 81.1739 326.243 81.8993 326.324C82.6246 326.404 83.3242 326.616 83.9555 326.947C84.5867 327.277 85.1365 327.719 85.5715 328.245C86.0066 328.772 86.3177 329.373 86.4861 330.01C86.6545 330.648 86.6766 331.31 86.5511 331.955C86.4256 332.601 86.1551 333.217 85.7561 333.766C85.357 334.315 84.8377 334.786 84.2296 335.15L84.25 335.182Z" fill="#35CF57"/>
<path d="M67.5732 297.46C69.7081 299.324 79.6643 301.252 79.6643 301.252C79.6643 301.252 77.2236 292.384 75.0785 290.521C74.5748 290.059 73.9732 289.692 73.309 289.443C72.6449 289.193 71.9317 289.065 71.2115 289.066C70.4913 289.067 69.7786 289.198 69.1155 289.45C68.4524 289.702 67.8523 290.07 67.3506 290.534C66.8489 290.997 66.4557 291.546 66.1942 292.147C65.9326 292.749 65.8081 293.391 65.8279 294.037C65.8477 294.682 66.0114 295.318 66.3094 295.906C66.6074 296.494 67.0337 297.022 67.563 297.46H67.5732Z" fill="#35CF57"/>
<path d="M61.9328 319.832C64.5925 321.033 74.7372 320.206 74.7372 320.206C74.7372 320.206 69.4534 312.399 66.7886 311.197C66.1562 310.911 65.4673 310.74 64.7611 310.693C64.0549 310.646 63.3453 310.724 62.6727 310.922C62.0002 311.121 61.3778 311.437 60.8413 311.851C60.3047 312.266 59.8645 312.771 59.5457 313.338C59.2268 313.904 59.0356 314.522 58.9831 315.155C58.9305 315.789 59.0175 316.425 59.2392 317.028C59.4608 317.631 59.8128 318.189 60.275 318.67C60.7371 319.151 61.3005 319.546 61.9328 319.832V319.832Z" fill="#35CF57"/>
<path d="M59.7622 342.253C62.157 343.839 72.3118 344.538 72.3118 344.538C72.3118 344.538 68.5719 336.04 66.1975 334.451C65.0452 333.761 63.6414 333.496 62.2768 333.709C60.9123 333.922 59.6914 334.598 58.867 335.596C58.0427 336.594 57.6779 337.838 57.8484 339.071C58.0188 340.303 58.7113 341.43 59.7826 342.217L59.7622 342.253Z" fill="#2DB53B"/>
<path d="M57.5763 354.369C57.5763 354.369 66.2943 352.816 68.6177 350.746C70.9412 348.677 81.4068 345.054 82.5685 347.64C83.7303 350.225 98.2619 359.024 88.3822 360.577C78.5025 362.131 65.1326 362.647 62.2232 361.61C59.3138 360.573 57.5763 354.369 57.5763 354.369Z" fill="#982323"/>
<path opacity="0.2" d="M88.3822 359.614C78.4974 361.167 65.1326 361.683 62.2232 360.651C60.0119 359.86 58.4731 356.082 57.8668 354.314L57.5763 354.369C57.5763 354.369 59.3189 360.577 62.2232 361.61C65.1275 362.642 78.4974 362.131 88.3822 360.577C91.2305 360.121 92.0457 359.074 91.74 357.745C91.4852 358.613 90.5019 359.275 88.3822 359.614Z" fill="black"/>
</g>
<defs>
<filter id="filter0_d" x="109.053" y="357.75" width="363.475" height="25.2504" filterUnits="userSpaceOnUse" color-interpolation-filters="sRGB">
<feFlood flood-opacity="0" result="BackgroundImageFix"/>
<feColorMatrix in="SourceAlpha" type="matrix" values="0 0 0 0 0 0 0 0 0 0 0 0 0 0 0 0 0 0 127 0"/>
<feOffset dy="4"/>
<feGaussianBlur stdDeviation="2"/>
<feColorMatrix type="matrix" values="0 0 0 0 0 0 0 0 0 0 0 0 0 0 0 0 0 0 0.25 0"/>
<feBlend mode="normal" in2="BackgroundImageFix" result="effect1_dropShadow"/>
<feBlend mode="normal" in="SourceGraphic" in2="effect1_dropShadow" result="shape"/>
</filter>
<linearGradient id="paint0_linear" x1="261.585" y1="368.38" x2="261.585" y2="62.7155" gradientUnits="userSpaceOnUse">
<stop stop-color="#808080" stop-opacity="0.25"/>
<stop offset="0.54" stop-color="#808080" stop-opacity="0.12"/>
<stop offset="1" stop-color="#808080" stop-opacity="0.1"/>
</linearGradient>
<clipPath id="clip0">
<rect width="559" height="375" fill="white"/>
</clipPath>
</defs>
</svg>
