<svg width="302" height="276" viewBox="0 0 302 276" fill="none" xmlns="http://www.w3.org/2000/svg">
<g id="pirate">
<g id="Group">
<g id="Group_2">
<path id="Vector" d="M241.925 138C241.925 126.842 251.857 117.765 264.066 117.765H279.859C292.068 117.765 302 126.842 302 138C302 149.158 292.068 158.235 279.859 158.235H264.066C251.857 158.235 241.925 149.158 241.925 138Z" fill="#FF8856"/>
</g>
</g>
<g id="Group_3">
<g id="Group_4">
<path id="Vector_2" d="M0 138C0 126.842 9.93205 117.765 22.1408 117.765H45.61C57.8181 117.765 67.7507 126.842 67.7507 138C67.7507 149.158 57.8187 158.235 45.61 158.235H22.1408C9.93205 158.235 0 149.158 0 138Z" fill="#FDBF00"/>
</g>
</g>
<g id="Group_5">
<g id="Group_6">
<path id="Vector_3" d="M214.101 195.669C222.734 187.779 236.78 187.779 245.413 195.669L257.773 206.965C266.406 214.854 266.406 227.692 257.773 235.581C249.141 243.47 235.094 243.47 226.462 235.581L214.101 224.285C205.469 216.395 205.469 203.558 214.101 195.669Z" fill="#FF8856"/>
</g>
</g>
<g id="Group_7">
<g id="Group_8">
<path id="Vector_4" d="M213.658 80.7361C205.026 72.8467 205.026 60.0094 213.658 52.12L226.462 40.419C235.094 32.5297 249.141 32.5297 257.773 40.419C266.406 48.3084 266.406 61.1457 257.773 69.0351L244.97 80.7361C236.338 88.6254 222.291 88.6254 213.658 80.7361Z" fill="#FF8856"/>
</g>
</g>
<g id="Group_9">
<g id="Group_10">
<path id="Vector_5" d="M44.2266 235.581C35.5941 227.692 35.5941 214.854 44.2266 206.965L60.72 191.891C69.3525 184.002 83.3986 184.002 92.0318 191.891C100.665 199.781 100.664 212.618 92.0318 220.508L75.5384 235.581C66.9058 243.47 52.8597 243.47 44.2266 235.581Z" fill="#FDBF00"/>
</g>
</g>
<g id="Group_11">
<path id="Vector_6" d="M44.2266 40.419C52.8591 32.5297 66.9058 32.5297 75.5384 40.419L92.7698 56.167C101.402 64.0563 101.402 76.8931 92.7698 84.783C84.1373 92.6729 70.0906 92.6723 61.458 84.783L44.2266 69.0351C35.5941 61.1457 35.5941 48.3089 44.2266 40.419Z" fill="#FDBF00"/>
</g>
<g id="Group_12">
<g id="Group_13">
<path id="Vector_7" d="M151 65.5601C138.791 65.5601 128.859 56.4831 128.859 45.3255V20.2346C128.859 9.07697 138.791 0 151 0C163.209 0 173.141 9.07697 173.141 20.2346V45.3255C173.141 56.4831 163.209 65.5601 151 65.5601Z" fill="#FDBF00"/>
</g>
</g>
<path id="Vector_8" d="M151 0V65.5601C163.209 65.5601 173.141 56.4831 173.141 45.3255V20.2346C173.141 9.07697 163.209 0 151 0Z" fill="#FF8856"/>
<g id="Group_14">
<g id="Group_15">
<path id="Vector_9" d="M151 276C138.791 276 128.859 266.923 128.859 255.765V233.103C128.859 221.946 138.791 212.868 151 212.868C163.209 212.868 173.141 221.945 173.141 233.103V255.765C173.141 266.923 163.209 276 151 276Z" fill="#FDBF00"/>
</g>
</g>
<path id="Vector_10" d="M151 212.868V276C163.209 276 173.141 266.923 173.141 255.765V233.103C173.141 221.945 163.209 212.868 151 212.868Z" fill="#FF8856"/>
<g id="Group_16">
<path id="Vector_11" d="M151 118.71C146.109 118.71 142.144 115.086 142.144 110.616V61.783C142.144 57.313 146.109 53.6891 151 53.6891C155.891 53.6891 159.856 57.313 159.856 61.783V110.616C159.856 115.086 155.891 118.71 151 118.71Z" fill="#007A9F"/>
</g>
<g id="Group_17">
<path id="Vector_12" d="M236.021 145.959H181.849C176.958 145.959 172.993 142.335 172.993 137.865C172.993 133.395 176.958 129.771 181.849 129.771H236.021C240.912 129.771 244.877 133.395 244.877 137.865C244.877 142.335 240.912 145.959 236.021 145.959Z" fill="#00607F"/>
</g>
<g id="Group_18">
<path id="Vector_13" d="M151 221.501C146.109 221.501 142.144 217.878 142.144 213.408V164.17C142.144 159.7 146.109 156.076 151 156.076C155.891 156.076 159.856 159.7 159.856 164.17V213.408C159.856 217.878 155.891 221.501 151 221.501Z" fill="#007A9F"/>
</g>
<path id="Vector_14" d="M151 156.076V221.501C155.891 221.501 159.856 217.878 159.856 213.408V164.17C159.856 159.7 155.891 156.076 151 156.076Z" fill="#00607F"/>
<g id="Group_19">
<path id="Vector_15" d="M120.259 145.959H71.2933C66.4022 145.959 62.437 142.335 62.437 137.865C62.437 133.395 66.4022 129.771 71.2933 129.771H120.259C125.15 129.771 129.115 133.395 129.115 137.865C129.115 142.335 125.15 145.959 120.259 145.959Z" fill="#007A9F"/>
</g>
<g id="Group_20">
<path id="Vector_16" d="M170.456 128.178C168.189 128.178 165.922 127.388 164.194 125.807C160.735 122.647 160.735 117.522 164.194 114.361L209.389 73.0566C212.847 69.8957 218.455 69.8957 221.914 73.0566C225.372 76.2176 225.372 81.342 221.914 84.5029L176.718 125.807C174.989 127.388 172.722 128.178 170.456 128.178Z" fill="#00607F"/>
</g>
<g id="Group_21">
<path id="Vector_17" d="M208.029 198.078C205.762 198.078 203.495 197.288 201.767 195.707L167.827 164.689C164.368 161.528 164.368 156.404 167.827 153.243C171.285 150.082 176.893 150.082 180.352 153.243L214.291 184.261C217.75 187.422 217.75 192.546 214.291 195.707C212.562 197.288 210.295 198.078 208.029 198.078V198.078Z" fill="#00607F"/>
</g>
<g id="Group_22">
<path id="Vector_18" d="M90.1867 201.537C87.9201 201.537 85.6535 200.747 83.9247 199.166C80.466 196.005 80.466 190.88 83.9247 187.719L123.659 151.406C127.117 148.245 132.725 148.245 136.183 151.406C139.642 154.567 139.642 159.692 136.183 162.852L96.4493 199.166C94.72 200.747 92.4533 201.537 90.1867 201.537Z" fill="#007A9F"/>
</g>
<g id="Group_23">
<path id="Vector_19" d="M129.109 125.953C126.842 125.953 124.576 125.163 122.847 123.582L83.6295 87.7405C80.1708 84.5796 80.1708 79.4551 83.6295 76.2942C87.0876 73.1333 92.6954 73.1333 96.1541 76.2942L135.372 112.135C138.83 115.296 138.83 120.421 135.372 123.582C133.642 125.162 131.376 125.953 129.109 125.953Z" fill="#007A9F"/>
</g>
<path id="Vector_20" d="M151 53.6891V118.71C155.891 118.71 159.856 115.086 159.856 110.616V61.783C159.856 57.313 155.891 53.6891 151 53.6891Z" fill="#00607F"/>
<g id="Group_24">
<path id="Vector_21" d="M151 33.1848C87.8415 33.1848 36.4585 80.1441 36.4585 137.865C36.4585 195.586 87.8415 242.545 151 242.545C214.158 242.545 265.542 195.586 265.542 137.865C265.542 80.1441 214.158 33.1848 151 33.1848ZM151 209.709C107.653 209.709 72.3879 177.48 72.3879 137.865C72.3879 98.2501 107.653 66.0204 151 66.0204C194.347 66.0204 229.612 98.2501 229.612 137.865C229.612 177.48 194.347 209.709 151 209.709V209.709Z" fill="#FFDE46"/>
</g>
<g id="Group_25">
<g id="Group_26">
<path id="Vector_22" d="M151 170.24C131.467 170.24 115.575 155.717 115.575 137.865C115.575 120.013 131.467 105.49 151 105.49C170.533 105.49 186.425 120.013 186.425 137.865C186.425 155.717 170.533 170.24 151 170.24Z" fill="#FDBF00"/>
</g>
</g>
<path id="Vector_23" d="M151 33.1848V66.0204C194.347 66.0204 229.612 98.2495 229.612 137.865C229.612 177.48 194.347 209.709 151 209.709V242.545C214.158 242.545 265.542 195.586 265.542 137.865C265.542 80.1441 214.158 33.1848 151 33.1848V33.1848Z" fill="#FFCD00"/>
<path id="Vector_24" d="M151 105.49V170.24C170.533 170.24 186.425 155.717 186.425 137.865C186.425 120.013 170.533 105.49 151 105.49Z" fill="#FF8856"/>
</g>
</svg>
