<svg width="551" height="391" viewBox="0 0 551 391" fill="none" xmlns="http://www.w3.org/2000/svg">
<g id="undraw_project_completed_w0oq 1" clip-path="url(#clip0)">
<g id="man">
<path id="Vector" d="M358.817 170C358.817 170 334.103 187.146 346.46 191.042C358.817 194.939 366.761 177.014 366.761 177.014L358.817 170Z" fill="#FFB8B8"/>
<path id="Vector_2" d="M364.296 160.326L359 168.12C359 168.12 367.827 168.12 369.592 179.81L376.653 172.016L364.296 160.326Z" fill="#CFCCE0"/>
<path id="Vector_3" d="M481.69 338.017L482.573 361.398L471.981 366.853L467.568 364.515L468.45 338.017H481.69Z" fill="#FFB8B8"/>
<path id="Vector_4" d="M419.021 331.782L420.786 356.721L396.072 366.074L397.837 352.825C397.837 352.825 404.898 342.693 403.133 331.782H419.021Z" fill="#FFB8B8"/>
<path id="Vector_5" d="M456.976 143.96C456.976 143.96 471.098 176.692 473.746 196.955C476.394 217.218 480.807 270.993 480.807 270.993L489.634 340.355L464.92 343.473L454.328 273.331L430.496 203.969L425.2 273.331L420.786 336.458L397.837 337.238L396.072 271.773L386.363 188.383L391.659 148.636L456.976 143.96Z" fill="#121122"/>
<path id="Vector_6" d="M470.216 362.956C470.216 362.956 471.663 349.867 482.414 357.191L484.338 355.942L493.165 373.088C493.165 373.088 503.757 386.337 485.221 387.895C466.685 389.454 468.45 373.088 468.45 373.088L466.685 366.074L467.568 361.48L470.216 362.956Z" fill="#2F2E41"/>
<path id="Vector_7" d="M419.021 347.369C421.194 348.466 422.994 350.056 424.236 351.975C425.478 353.894 426.115 356.071 426.082 358.28C426.082 366.074 425.2 366.853 425.2 366.853L411.96 369.97C411.96 369.97 403.133 369.191 397.837 373.867C392.541 378.543 366.061 381.661 366.061 375.426C366.061 369.191 388.128 359.06 388.128 359.06C388.128 359.06 394.681 349.288 399.348 350.277C404.016 351.266 405.781 352.825 405.781 353.604C405.781 354.383 403.133 359.839 403.133 359.839C403.133 359.839 418.138 356.722 419.021 347.369Z" fill="#2F2E41"/>
<path id="Vector_8" d="M417.256 48.1002C429.443 48.1002 439.322 39.377 439.322 28.6165C439.322 17.8559 429.443 9.13281 417.256 9.13281C405.069 9.13281 395.189 17.8559 395.189 28.6165C395.189 39.377 405.069 48.1002 417.256 48.1002Z" fill="#FFB8B8"/>
<path id="Vector_9" d="M433.585 33.6822L443.294 53.1659L416.814 86.6778C416.814 86.6778 415.049 50.0485 409.753 43.8137C404.457 37.579 433.585 33.6822 433.585 33.6822Z" fill="#FFB8B8"/>
<path id="Vector_10" d="M421.228 74.2084L425.641 64.0769L429.171 64.856L433.585 61.7386L439.764 44.5932L448.59 50.0485L460.065 152.143L388.569 153.702L398.279 82.7811L407.105 62.5182L413.477 55.0811L417.697 66.4148L421.228 74.2084Z" fill="#CFCCE0"/>
<path id="Vector_11" d="M441.529 117.852L444.23 47.3535C444.23 47.3535 449.473 47.7105 451.238 50.0485C453.004 52.3865 482.131 57.0626 482.131 57.0626L476.836 129.542C476.836 129.542 498.902 187.214 490.958 190.331C483.014 193.448 468.892 192.669 468.892 192.669L441.529 117.852Z" fill="#575A89"/>
<path id="Vector_12" d="M398.72 108.889L408.083 61.3762L387.245 73.8186L392.541 108.11L388.128 131.49C388.128 131.49 371.357 196.176 376.653 198.514C381.949 200.852 388.128 198.514 388.128 198.514L398.72 133.049V108.889Z" fill="#575A89"/>
<path id="Vector_13" d="M393.424 72.2599L387.245 73.8186L384.597 104.993L380.184 132.27L359 165.782C359 165.782 369.592 159.547 374.005 177.472L397.335 141.608L393.424 72.2599Z" fill="#575A89"/>
<path id="Vector_14" d="M462.272 160.326C462.272 160.326 437.557 177.472 449.914 181.368C462.272 185.265 470.216 167.34 470.216 167.34L462.272 160.326Z" fill="#FFB8B8"/>
<path id="Vector_15" d="M477.277 168.899L469.333 177.472L458.741 161.105L463.154 154.091L477.277 168.899Z" fill="#CFCCE0"/>
<path id="Vector_16" d="M475.511 59.7904L482.573 56.673C482.573 56.673 487.869 62.9077 488.751 68.3632C489.634 73.8186 494.047 80.8327 494.047 84.7295C494.047 88.6262 506.405 125.255 506.405 125.255L478.159 175.913C478.159 175.913 471.981 157.209 458.741 155.65L480.807 128.373L468.45 108.889L475.511 59.7904Z" fill="#575A89"/>
<path id="Vector_17" d="M435.729 10.0527L439.89 8.58182C439.89 8.58182 431.189 0.12417 419.084 0.859651L422.489 -2.4499C422.489 -2.4499 414.166 -5.39166 406.601 2.33051C402.624 6.38987 398.022 11.1615 395.153 16.5366H390.697L392.557 20.1525L386.047 23.7685L392.729 23.119C392.331 25.0991 392.27 27.1206 392.547 29.1167C392.834 31.1133 393.988 32.9336 395.766 34.1932V34.1932C395.766 34.1932 400.927 24.7616 400.927 23.2907V26.968C400.927 26.968 405.088 23.6585 405.088 21.4521L407.357 24.0262L408.492 19.9812L422.489 24.0262L420.219 20.7167L428.92 21.8199L425.515 17.7749C425.515 17.7749 435.35 22.5553 435.729 26.6003C436.107 30.6452 438.986 34.478 438.986 34.478C438.986 34.478 446.699 15.5686 435.729 10.0527Z" fill="#982338"/>
<path id="Vector_18" d="M435.35 28.2268C436.715 28.2268 437.822 27.0056 437.822 25.4991C437.822 23.9926 436.715 22.7714 435.35 22.7714C433.985 22.7714 432.879 23.9926 432.879 25.4991C432.879 27.0056 433.985 28.2268 435.35 28.2268Z" fill="#FFB8B8"/>
</g>
<g id="file-2">
<path id="Vector_19" d="M102.136 160.627H25.9405V141.775H65.7133L102.136 160.627Z" fill="#6C63FF"/>
<path id="Vector_20" d="M25.7312 158.04V213.118H273.158V158.04H25.7312ZM122.232 203.877H41.8496V196.114H122.232V203.877ZM257.04 189.461H41.8496V181.698H257.04V189.461ZM257.04 175.044H41.8496V167.281H257.04V175.044Z" fill="#54EF1D"/>
</g>
<g id="file-1">
<path id="Vector_21" d="M102.136 71.541H25.9405V52.6885H65.7133L102.136 71.541Z" fill="#6C63FF"/>
<path id="Vector_22" d="M25.7312 70.0623V125.141H273.158V70.0623H25.7312ZM122.232 115.899H41.8496V108.137H122.232V115.899ZM168.703 101.483H41.8496V93.7201H168.703L168.703 101.483ZM257.04 87.0664H41.8496V79.3036H257.04V87.0664Z" fill="#FE2A2A"/>
</g>
<g id="file-3">
<path id="Vector_23" d="M102.136 247.866H25.9405V229.014H65.7133L102.136 247.866Z" fill="#6C63FF"/>
<path id="Vector_24" d="M25.7312 244.169V299.248H273.158V244.169H25.7312ZM168.703 290.007H41.8496V282.244H168.703V290.007ZM168.703 275.59H41.8496V267.827H168.703V275.59ZM257.04 261.173H41.8496V253.411H257.04V261.173Z" fill="#E19E1C"/>
</g>
<path id="checkbox-1" d="M343.284 112.942H308.116V81.8911H331.98V82.6303H308.954V112.203H342.446V97.4167H343.284V112.942Z" fill="#3F3D56"/>
<path id="tick-1" d="M325.519 104.843C324.706 102.724 314.515 95.522 320.76 94.3114L325.881 100.341L349.426 79.552L351.794 81.6428L325.519 104.843Z" fill="#3C3AB5"/>
<path id="checkbox-2" d="M343.284 200.92H308.116V169.869H331.98V170.608H308.954V200.181H342.446V185.394H343.284V200.92Z" fill="#3F3D56"/>
<path id="tick-2" d="M325.519 192.821C324.706 190.702 314.515 183.5 320.76 182.289L325.881 188.318L349.426 167.53L351.794 169.62L325.519 192.821Z" fill="#2E2895"/>
<path id="checkbox-3" d="M343.284 288.528H308.116V257.477H331.98V258.216H308.954V287.789H342.446V273.002H343.284V288.528Z" fill="#3F3D56"/>
<path id="tick-3" d="M325.519 280.429C324.706 278.31 314.515 271.108 320.76 269.897L325.881 275.926L349.426 255.138L351.794 257.229L325.519 280.429Z" fill="#2E2895"/>
</g>
<defs>
<clipPath id="clip0">
<rect width="551" height="391" fill="white"/>
</clipPath>
</defs>
</svg>
