<svg width="569" height="396" viewBox="0 0 569 396" fill="none" xmlns="http://www.w3.org/2000/svg">
<g id="undraw_wind_turbine_x2k4 1" clip-path="url(#clip0)">
<path id="Vector" d="M280.998 135.801H273.752V145.483H280.998V135.801Z" fill="white"/>
<path id="Vector_2" d="M282.013 125.575V141.039H272.593V125.879C275.582 124.462 278.953 124.353 282.013 125.575V125.575Z" fill="#6C63FF"/>
<path id="Vector_3" d="M286.888 159.065L290.065 151.934L282.116 147.69L278.939 154.821L286.888 159.065Z" fill="white"/>
<path id="Vector_4" d="M275.665 154.818L272.488 147.687L264.54 151.931L267.717 159.062L275.665 154.818Z" fill="white"/>
<path id="Vector_5" d="M285.778 390.631H267.301L273.17 152.382H279.909L285.778 390.631Z" fill="white"/>
<g id="wing-1">
<path id="Vector_6" d="M286.286 111.896C285.699 115.424 283.714 122.874 277.303 122.689C272.409 122.552 268.639 117.875 268.768 112.517L270.613 39.5494L271.215 15.7533C271.215 15.7533 274.388 9.16992 277.547 38.6836V38.7925L286.32 108.776C286.461 109.811 286.449 110.865 286.286 111.896Z" fill="white"/>
<path id="Vector_7" d="M282.013 118.98H272.593V141.039H282.013V118.98Z" fill="white"/>
<path id="Vector_8" d="M277.562 38.7979C274.264 37.747 272.021 38.5474 270.598 39.5548L271.2 15.7588C271.2 15.7588 274.373 9.17537 277.532 38.689L277.562 38.7979Z" fill="#6C63FF"/>
<path id="Vector_9" d="M304.191 174.74C301.55 172.617 296.308 167.4 299.267 161.171C301.525 156.417 307.016 154.751 311.358 157.228L370.452 191.033L389.725 202.054C389.725 202.054 393.734 208.044 368.119 198.242L368.025 198.21L306.723 176.156C305.816 175.832 304.962 175.355 304.191 174.74V174.74Z" fill="white"/>
<path id="Vector_10" d="M286.273 148.497L282.144 157.767L300.253 167.437L304.383 158.167L286.273 148.497Z" fill="white"/>
<path id="Vector_11" d="M368.025 198.204C370.332 195.416 370.661 192.857 370.452 191.033L389.725 202.054C389.725 202.054 393.734 208.044 368.119 198.242L368.025 198.204Z" fill="#6C63FF"/>
<path id="Vector_12" d="M294.84 164.541L282.142 157.762L286.271 148.505L298.705 155.148C298.56 158.705 297.177 162.066 294.84 164.541V164.541Z" fill="#6C63FF"/>
<path id="Vector_13" d="M250.415 174.74C253.056 172.617 258.298 167.4 255.339 161.171C253.081 156.417 247.59 154.751 243.248 157.228L184.154 191.033L164.881 202.054C164.881 202.054 160.872 208.044 186.487 198.242L186.581 198.21L247.883 176.162C248.79 175.836 249.644 175.357 250.415 174.74V174.74Z" fill="white"/>
<path id="Vector_14" d="M268.333 148.495L250.223 158.165L254.353 167.435L272.462 157.765L268.333 148.495Z" fill="white"/>
<path id="Vector_15" d="M186.581 198.204C184.273 195.416 183.945 192.857 184.154 191.033L164.881 202.054C164.881 202.054 160.872 208.044 186.487 198.242L186.581 198.204Z" fill="#6C63FF"/>
<path id="Vector_16" d="M259.765 164.541L272.463 157.762L268.335 148.505L255.901 155.148C256.046 158.705 257.428 162.066 259.765 164.541V164.541Z" fill="#6C63FF"/>
<path id="Vector_17" d="M277.303 156.188C280.704 156.188 283.46 153.17 283.46 149.447C283.46 145.724 280.704 142.706 277.303 142.706C273.902 142.706 271.145 145.724 271.145 149.447C271.145 153.17 273.902 156.188 277.303 156.188Z" fill="#6C63FF"/>
</g>
<path id="Vector_18" d="M420.214 104.125H413.843V119.051H420.214V104.125Z" fill="white"/>
<path id="Vector_19" d="M419.528 115.506H414.624V122.057H419.528V115.506Z" fill="white"/>
<path id="Vector_20" d="M423.095 124.099L420.302 130.369L432.556 136.912L435.349 130.642L423.095 124.099Z" fill="white"/>
<path id="Vector_21" d="M423.516 131.252L425.666 126.426L420.288 123.555L418.138 128.38L423.516 131.252Z" fill="white"/>
<path id="Vector_22" d="M410.965 124.102L398.712 130.645L401.505 136.914L413.758 130.371L410.965 124.102Z" fill="white"/>
<path id="Vector_23" d="M415.921 128.376L413.771 123.551L408.394 126.422L410.543 131.248L415.921 128.376Z" fill="white"/>
<path id="Vector_24" d="M422.766 287.916L410.202 290.334L414.231 126.729H418.792L422.766 287.916Z" fill="white"/>
<g id="wing-3">
<path id="Vector_25" d="M423.104 99.339C422.711 101.724 421.368 106.761 417.031 106.636C415.434 106.555 413.931 105.787 412.849 104.499C411.766 103.211 411.192 101.507 411.252 99.7582L412.505 50.391L412.908 34.2946C412.908 34.2946 415.057 29.8403 417.195 49.8083V49.8791L423.129 97.2534C423.221 97.9457 423.212 98.6495 423.104 99.339V99.339Z" fill="white"/>
<path id="Vector_26" d="M417.205 49.8846C414.972 49.1767 413.455 49.7158 412.505 50.3964L412.908 34.3001C412.908 34.3001 415.057 29.8458 417.195 49.8138L417.205 49.8846Z" fill="#FF9B63"/>
<path id="Vector_27" d="M420.214 108.585V119.04H413.843V108.797C415.864 107.836 418.144 107.76 420.214 108.585Z" fill="#FF9B63"/>
<path id="Vector_28" d="M435.205 141.851C433.42 140.418 429.869 136.89 431.873 132.675C432.639 131.138 433.929 129.995 435.462 129.495C436.994 128.995 438.645 129.179 440.055 130.007L480.034 152.877L493.07 160.332C493.07 160.332 495.786 164.4 478.457 157.751H478.393L436.916 142.836C436.302 142.609 435.725 142.276 435.205 141.851V141.851Z" fill="white"/>
<path id="Vector_29" d="M478.408 157.729C479.969 155.845 480.193 154.113 480.049 152.877L493.085 160.332C493.085 160.332 495.801 164.4 478.472 157.751L478.408 157.729Z" fill="#FF9B63"/>
<path id="Vector_30" d="M428.894 134.957L420.284 130.366L423.074 124.099L431.495 128.591C431.401 130.999 430.471 133.276 428.894 134.957V134.957Z" fill="#FF9B63"/>
<path id="Vector_31" d="M398.837 141.851C400.623 140.418 404.174 136.89 402.17 132.675C401.404 131.138 400.114 129.995 398.581 129.495C397.048 128.995 395.397 129.179 393.988 130.007L354.009 152.877L340.972 160.332C340.972 160.332 338.257 164.4 355.585 157.751H355.65L397.126 142.836C397.741 142.609 398.318 142.276 398.837 141.851V141.851Z" fill="white"/>
<path id="Vector_32" d="M355.65 157.729C354.088 155.845 353.864 154.113 354.009 152.877L340.972 160.332C340.972 160.332 338.257 164.4 355.585 157.751L355.65 157.729Z" fill="#FF9B63"/>
<path id="Vector_33" d="M405.164 134.957L413.754 130.366L410.963 124.099L402.543 128.591C402.642 131.002 403.58 133.279 405.164 134.957V134.957Z" fill="#FF9B63"/>
<path id="Vector_34" d="M417.031 129.305C419.333 129.305 421.199 127.262 421.199 124.741C421.199 122.221 419.333 120.178 417.031 120.178C414.729 120.178 412.863 122.221 412.863 124.741C412.863 127.262 414.729 129.305 417.031 129.305Z" fill="#FF9B63"/>
</g>
<path id="Vector_35" d="M135.137 104.125H128.766V119.051H135.137V104.125Z" fill="white"/>
<path id="Vector_36" d="M134.451 115.506H129.547V122.057H134.451V115.506Z" fill="white"/>
<path id="Vector_37" d="M138.02 124.101L135.227 130.37L147.48 136.913L150.273 130.644L138.02 124.101Z" fill="white"/>
<path id="Vector_38" d="M138.438 131.25L140.587 126.425L135.21 123.553L133.06 128.379L138.438 131.25Z" fill="white"/>
<path id="Vector_39" d="M125.887 124.1L113.634 130.643L116.427 136.913L128.68 130.37L125.887 124.1Z" fill="white"/>
<path id="Vector_40" d="M130.848 128.38L128.698 123.554L123.32 126.426L125.47 131.251L130.848 128.38Z" fill="white"/>
<path id="Vector_41" d="M137.689 287.916H125.185L129.159 126.729H133.715L137.689 287.916Z" fill="white"/>
<g id="wing-2">
<path id="Vector_42" d="M138.027 99.339C137.634 101.724 136.291 106.761 131.954 106.636C130.358 106.555 128.855 105.787 127.773 104.499C126.692 103.211 126.119 101.507 126.18 99.7582L127.428 50.391L127.831 34.2946C127.831 34.2946 129.98 29.8403 132.118 49.8083V49.8791L138.057 97.2534C138.145 97.9462 138.135 98.6495 138.027 99.339Z" fill="white"/>
<path id="Vector_43" d="M132.128 49.8846C129.9 49.1767 128.378 49.7158 127.428 50.3964L127.831 34.3001C127.831 34.3001 129.98 29.8458 132.118 49.8138L132.128 49.8846Z" fill="#FF6388"/>
<path id="Vector_44" d="M135.137 108.585V119.04H128.766V108.797C130.787 107.836 133.067 107.76 135.137 108.585Z" fill="#FF6388"/>
<path id="Vector_45" d="M150.143 141.851C148.358 140.418 144.811 136.89 146.816 132.675C147.581 131.139 148.87 129.996 150.402 129.496C151.934 128.996 153.584 129.18 154.993 130.007L194.972 152.877L208.013 160.332C208.013 160.332 210.724 164.4 193.395 157.751H193.331L151.859 142.836C151.243 142.609 150.664 142.276 150.143 141.851V141.851Z" fill="white"/>
<path id="Vector_46" d="M193.331 157.729C194.892 155.845 195.116 154.113 194.972 152.877L208.013 160.332C208.013 160.332 210.724 164.4 193.395 157.751L193.331 157.729Z" fill="#FF6388"/>
<path id="Vector_47" d="M143.817 134.957L135.227 130.366L138.022 124.099L146.438 128.591C146.341 131.002 145.403 133.281 143.817 134.957V134.957Z" fill="#FF637F"/>
<path id="Vector_48" d="M113.76 141.851C115.551 140.418 119.097 136.89 117.093 132.675C116.327 131.138 115.037 129.995 113.504 129.495C111.971 128.995 110.32 129.179 108.911 130.007L68.9316 152.877L55.8953 160.332C55.8953 160.332 53.1796 164.4 70.5082 157.751H70.5729L112.049 142.836C112.664 142.609 113.241 142.276 113.76 141.851Z" fill="white"/>
<path id="Vector_49" d="M70.5729 157.729C69.0161 155.845 68.7923 154.113 68.9316 152.877L55.8953 160.332C55.8953 160.332 53.1796 164.4 70.5082 157.751L70.5729 157.729Z" fill="#FF6388"/>
<path id="Vector_50" d="M120.087 134.957L128.677 130.366L125.886 124.099L117.466 128.591C117.567 131.001 118.505 133.278 120.087 134.957Z" fill="#FF637F"/>
<path id="Vector_51" d="M131.954 129.305C134.256 129.305 136.122 127.262 136.122 124.741C136.122 122.221 134.256 120.178 131.954 120.178C129.652 120.178 127.786 122.221 127.786 124.741C127.786 127.262 129.652 129.305 131.954 129.305Z" fill="#FF63B7"/>
</g>
<path id="Vector_52" d="M553.427 331.952C549.171 348.952 539.932 363.951 527.131 374.642C514.33 385.333 498.676 391.125 482.576 391.126H108.016C90.7042 391.115 73.7345 385.851 58.991 375.918C44.2474 365.986 32.307 351.773 24.4958 334.86C24.4958 334.86 78.7846 252.647 219.776 306.359C336.829 350.951 390.819 308.782 405.796 293.176C407.417 291.494 409.332 290.189 411.426 289.339C413.521 288.489 415.75 288.113 417.981 288.232C446.665 289.718 546.026 297.331 553.442 331.941L553.427 331.952Z" fill="#3FDF46"/>
<path id="Vector_53" d="M134.372 381.249C134.372 381.249 130.437 380.742 127.876 378.651L127.682 378.482C127.837 378.228 127.949 377.946 128.015 377.649C127.74 377.063 127.595 376.414 127.592 375.754C127.6 375.136 127.485 374.522 127.254 373.957V370.897C127.254 370.897 126.404 369.906 126.319 367.385C126.234 364.864 126.15 352.437 126.15 352.437C126.019 351.787 125.99 351.116 126.065 350.455C126.15 349.018 126.15 348.479 126.15 348.479C125.872 347.643 125.785 346.746 125.896 345.865C126.15 344.776 125.299 343.523 125.299 343.523L126.573 336.684C126.573 336.684 127.279 313.057 125.225 305.934V305.891C125.225 305.891 125.225 305.831 125.225 305.804C125.399 301.208 122.852 293.557 124.295 288.248C125.737 282.939 125.906 281.763 125.906 281.763C125.906 281.763 119.55 264.294 117.948 260.156C116.839 257.302 115.69 254.166 114.556 252.38C114.457 252.224 114.357 252.077 114.258 251.939C114.203 251.862 114.148 251.786 114.093 251.721C114.44 251.088 114.649 250.376 114.705 249.641C114.795 248.356 114.626 246.874 115.481 245.965C115.808 245.673 116.159 245.416 116.531 245.197C117.186 244.725 117.707 244.062 118.037 243.283C118.366 242.504 118.491 241.639 118.396 240.787C118.217 239.431 117.505 238.304 116.695 237.209C116.972 235.548 116.862 233.837 116.373 232.236C115.884 230.635 115.033 229.195 113.899 228.05V228.05C113.899 227.881 113.899 227.707 113.899 227.538C113.923 226.291 113.573 225.069 112.905 224.059L113.143 224.244C113.009 224.113 112.88 223.988 112.741 223.863C112.544 223.646 112.32 223.462 112.074 223.318C110.188 221.907 107.984 221.092 105.702 220.962C103.421 220.832 101.152 221.393 99.1423 222.583C98.1362 223.172 97.272 224.013 96.6206 225.039C95.2926 227.282 95.6258 230.185 94.9394 232.733C94.273 235.167 92.7012 237.182 91.3981 239.305C90.095 241.429 89.0057 243.945 89.4981 246.428C89.8513 248.23 91.0251 249.848 90.9903 251.694C90.9319 252.661 90.567 253.575 89.9586 254.279C89.3502 254.982 88.5365 255.432 87.6578 255.549H87.6131C87.4485 255.577 87.2822 255.591 87.1157 255.592C88.6973 256.785 90.662 257.226 92.5868 257.504C92.547 257.667 92.5073 257.83 92.4724 257.999C90.9157 264.43 89.528 272.598 89.528 272.598C89.528 272.598 90.4581 280.875 88.5083 287.36C86.5586 293.846 86.8123 307.17 86.8123 307.17C86.8123 307.17 92.2387 304.105 92.5769 306.081C92.9151 308.058 92.5769 308.603 92.5769 308.603C92.5769 308.603 93.686 309.218 94.9892 309.762L94.9345 310.552L94.6957 314.092C94.6044 314.834 94.708 315.589 94.9942 316.27C95.4617 317.261 94.9942 319.962 94.9942 319.962C94.9942 319.962 94.5962 320.234 94.9942 321.497C95.3921 322.76 94.6808 324.557 94.6808 324.557C94.6808 324.557 94.1834 331.31 94.1188 332.725C94.0541 334.141 92.4227 338.22 92.4227 338.22C92.4227 338.22 93.8651 340.196 92.4227 340.469C90.9803 340.741 90.8112 343.191 90.8112 343.191C90.8112 343.191 89.1151 344.721 89.1151 345.261C89.1151 345.261 81.4854 353.728 79.7048 367.679C79.7048 367.679 77.9241 369.481 78.1778 371.191C78.322 372.16 78.0336 372.493 77.755 372.601C78.0684 372.645 78.4116 372.868 78.2524 373.691C77.9988 375.128 77.3223 378.194 77.3223 378.194H77.4417C76.054 379.953 74.0247 382.899 73.7163 385.485C73.7163 385.594 73.7064 385.703 73.6865 385.812L72.9205 387.701L79.6202 390.969L80.2121 389.977C80.2121 389.977 83.1964 393.669 86.5735 394.475C87.157 394.614 87.7522 394.685 88.3492 394.688C90.234 394.652 92.0975 394.244 93.8502 393.484C93.8502 393.484 96.3072 390.157 89.9458 389.526C89.9458 389.526 86.2204 384.843 86.5586 382.86C86.6862 382.026 86.7643 381.184 86.7924 380.339C86.7924 380.154 86.7924 379.973 86.7924 379.795L87.2251 379.866L87.3047 378.357C87.4907 378.102 87.5813 377.779 87.5584 377.453C87.5584 376.827 87.061 376.734 87.5584 376.364C88.0557 375.994 88.0557 376.364 88.0557 375.466C88.0557 374.567 87.7175 374.834 88.4785 373.936C89.2395 373.037 88.3939 371.414 88.3939 371.414C88.3939 371.414 90.1746 369.971 90.09 368.082C90.0055 366.192 95.7701 354.218 96.9538 353.766C98.1376 353.314 98.2271 350.973 98.2271 350.973C98.2271 350.973 99.8386 351.332 100.346 350.973C100.853 350.613 102.465 347.825 102.465 347.825C102.465 347.825 108.931 329.997 108.995 323.245L109.418 321.715C109.418 321.715 111.88 325.227 111.537 327.748C111.194 330.27 113.417 332.067 113.417 332.067V339.723C113.666 341.057 113.802 342.413 113.825 343.774C113.74 345.032 114.82 346.295 114.412 347.373C114.004 348.451 114.412 350.346 114.412 350.346C114.412 350.346 114.322 352.868 114.412 353.586C114.501 354.305 114.079 362.588 116.287 366.192C116.287 366.192 117.217 368.801 116.287 370.51C115.357 372.22 117.132 373.936 117.132 373.936C117.132 373.936 116.033 375.912 117.132 377.355C117.763 378.267 118.046 379.411 117.923 380.546C117.481 382.376 117.152 384.777 117.893 386.449V386.487L118.092 389.057L124.588 388.513V387.075C124.588 387.075 129.025 388.366 133.158 387.663C135.386 387.287 137.525 386.329 138.833 384.282C138.868 384.309 141.494 379.359 134.372 381.249Z" fill="url(#paint0_linear)"/>
<path id="Vector_54" d="M137.664 384.352C136.401 386.394 134.337 387.347 132.193 387.723C128.214 388.42 123.922 387.135 123.922 387.135V388.583L117.65 389.128L117.456 386.569V386.525C116.73 384.837 117.063 382.398 117.5 380.563C117.711 379.696 117.97 378.845 118.276 378.014C118.276 378.014 123.678 372.994 125.478 376.762C125.869 377.541 126.411 378.217 127.065 378.744C129.552 380.824 133.337 381.33 133.337 381.33C140.201 379.424 137.664 384.352 137.664 384.352Z" fill="#65617D"/>
<path id="Vector_55" opacity="0.1" d="M120.962 379.424C120.962 379.424 120.962 384.086 124.071 383.999C127.179 383.911 127.597 382.142 126.612 380.944C125.944 380.095 125.367 379.165 124.892 378.172L120.962 379.424Z" fill="black"/>
<path id="Vector_56" d="M94.1934 393.484C92.5008 394.241 90.6945 394.647 88.8665 394.682C88.2895 394.678 87.7144 394.609 87.1505 394.475C83.8778 393.664 81.0129 389.988 81.0129 389.988L80.4409 390.979L73.975 387.75L74.7061 385.861L74.736 385.54C75.0344 382.964 76.9941 380.029 78.337 378.275C79.0681 377.323 79.6202 376.724 79.6202 376.724L87.3992 377.976C87.3992 377.976 87.429 379.065 87.3992 380.394C87.373 381.235 87.2966 382.074 87.1704 382.904C86.8471 384.875 90.4431 389.536 90.4431 389.536C96.5659 390.179 94.1934 393.484 94.1934 393.484Z" fill="#65617D"/>
<path id="Vector_57" d="M78.6354 372.672C78.5042 372.721 78.3638 372.732 78.2276 372.705C78.3608 372.669 78.4987 372.658 78.6354 372.672Z" fill="#444053"/>
<path id="Vector_58" opacity="0.1" d="M87.3992 377.992C87.3992 377.992 87.429 379.081 87.3992 380.41L78.2475 378.776C78.2475 378.776 78.2922 378.586 78.3569 378.27C79.088 377.317 79.6401 376.718 79.6401 376.718L87.3992 377.992Z" fill="black"/>
<path id="Vector_59" opacity="0.1" d="M127.05 378.722C125.667 382.223 117.441 381.396 117.441 381.396C117.482 381.113 117.497 380.827 117.486 380.541C117.696 379.675 117.955 378.823 118.261 377.992C118.261 377.992 123.663 372.972 125.464 376.74C125.854 377.519 126.396 378.196 127.05 378.722V378.722Z" fill="black"/>
<path id="Vector_60" d="M127.184 377.726C126.369 381.755 117.441 380.862 117.441 380.862C117.612 379.664 117.348 378.44 116.705 377.453C115.64 376.021 116.705 374.05 116.705 374.05C116.705 374.05 114.984 372.346 115.889 370.641C116.794 368.937 115.889 366.339 115.889 366.339C113.755 362.756 114.168 354.507 114.079 353.815C113.989 353.124 114.079 350.591 114.079 350.591C114.079 350.591 113.676 348.707 114.079 347.629C114.481 346.551 113.432 345.299 113.512 344.046C113.489 342.691 113.357 341.341 113.119 340.011V332.388C113.119 332.388 110.975 330.596 111.303 328.086C111.631 325.576 109.254 322.096 109.254 322.096L108.846 323.621C108.767 330.34 102.544 348.087 102.544 348.087C102.544 348.087 100.988 350.869 100.495 351.229C100.003 351.588 98.4509 351.229 98.4509 351.229C98.4509 351.229 98.3664 353.559 97.2224 354.006C96.0784 354.452 90.5078 366.372 90.5924 368.256C90.6769 370.14 88.951 371.572 88.951 371.572C88.951 371.572 89.7717 373.206 89.0356 374.083C88.2995 374.959 88.6227 374.709 88.6227 375.607C88.6227 376.506 88.6227 376.152 88.1254 376.5C87.628 376.849 88.1254 376.952 88.1254 377.589C88.1487 377.911 88.0598 378.23 87.8767 378.482L87.8021 379.991L78.2176 378.308C78.2176 378.308 78.8742 375.259 79.1179 373.821C79.2621 372.983 78.9289 372.759 78.6205 372.732C78.894 372.623 79.1726 372.291 79.0333 371.333C78.7846 369.628 80.5254 367.837 80.5254 367.837C82.2464 353.94 89.6125 345.511 89.6125 345.511C89.6125 344.967 91.2489 343.453 91.2489 343.453C91.2489 343.453 91.413 341.03 92.8057 340.763C94.1984 340.496 92.8057 338.519 92.8057 338.519C92.8057 338.519 94.3625 334.49 94.4421 333.074C94.5217 331.658 94.9842 324.906 94.9842 324.906C94.9842 324.906 95.6706 323.114 95.2876 321.862C94.9046 320.61 95.2876 320.337 95.2876 320.337C95.2876 320.337 95.7502 317.647 95.2876 316.662C95.0133 315.987 94.9135 315.243 94.9991 314.511L95.2329 310.982L95.5711 305.728C95.5711 305.728 121.042 300.914 123.847 304.764C124.151 305.239 124.375 305.77 124.509 306.332C126.498 313.411 125.812 336.94 125.812 336.94L124.583 343.752C124.583 343.752 125.404 345.01 125.16 346.083C125.05 346.959 125.134 347.852 125.404 348.686C125.404 348.686 125.404 349.23 125.319 350.657C125.248 351.315 125.276 351.981 125.404 352.628C125.404 352.628 125.483 364.994 125.568 367.505C125.653 370.015 126.468 371.001 126.468 371.001V374.05C126.689 374.616 126.799 375.226 126.792 375.841C126.788 376.494 126.922 377.139 127.184 377.726V377.726Z" fill="#444053"/>
<path id="Vector_61" opacity="0.1" d="M88.8664 394.693C88.2895 394.689 87.7144 394.62 87.1505 394.486C83.8778 393.675 81.0129 389.999 81.0129 389.999L80.4409 390.99L73.975 387.761L74.7061 385.861L74.736 385.539L81.4207 389.27C81.4207 389.27 86.7576 392.068 88.8664 394.693Z" fill="black"/>
<path id="Vector_62" opacity="0.1" d="M132.183 387.723C128.204 388.42 123.912 387.135 123.912 387.135V388.583L117.64 389.128L117.446 386.569C119.435 386.607 122.633 386.645 124.026 386.525C126.782 386.52 129.526 386.923 132.183 387.723V387.723Z" fill="black"/>
<path id="Vector_63" opacity="0.1" d="M81.8385 370.363C82.1654 370.331 82.4947 370.378 82.8034 370.5C83.1263 370.711 83.4325 370.951 83.7186 371.218C83.9334 371.344 84.1366 371.491 84.3254 371.659C84.5641 371.915 84.6636 372.297 84.9024 372.552C85.3401 373.026 86.0613 372.917 86.6432 373.146C86.7078 373.146 86.7775 373.206 86.7874 373.277C86.7974 373.347 86.7427 373.407 86.688 373.451C86.544 373.541 86.3811 373.588 86.2154 373.588C86.0498 373.588 85.8869 373.541 85.7429 373.451C85.4544 373.272 85.1885 373.052 84.9521 372.797C84.4978 372.356 83.978 372.002 83.4152 371.752C82.6443 371.42 81.3013 371.327 80.8139 370.5C81.0427 370.309 81.5401 370.369 81.8385 370.363Z" fill="black"/>
<path id="Vector_64" opacity="0.1" d="M81.182 372.248C81.355 372.301 81.5219 372.376 81.6794 372.471L82.5199 372.934C81.923 372.977 81.3273 372.832 80.804 372.514C80.6182 372.432 80.4371 372.338 80.2618 372.231C80.5672 372.181 80.8782 372.186 81.182 372.248Z" fill="black"/>
<path id="Vector_65" opacity="0.1" d="M82.2911 373.816C82.4747 373.807 82.6584 373.824 82.8383 373.865C83.1549 373.986 83.4484 374.171 83.7037 374.409C84.3169 374.952 85.084 375.243 85.8723 375.232C85.7172 375.311 85.5453 375.343 85.3749 375.324H83.6142C83.1562 375.357 82.6995 375.241 82.3011 374.992C82.0027 374.834 80.7692 374.447 80.7592 373.995C80.7493 373.544 81.9927 373.816 82.2911 373.816Z" fill="black"/>
<path id="Vector_66" opacity="0.1" d="M122.355 376.103C122.893 376.168 123.436 376.184 123.976 376.152C124.546 376.135 125.1 375.946 125.578 375.607C126.05 375.21 125.951 374.801 125.349 374.774C124.789 374.802 124.24 374.95 123.733 375.21C123.47 375.325 123.217 375.466 122.977 375.629C122.852 375.689 122.444 376.108 122.355 376.103Z" fill="black"/>
<path id="Vector_67" opacity="0.1" d="M124.315 377.083C124.265 377.301 124.056 377.421 123.867 377.502C123.404 377.694 122.918 377.811 122.425 377.851C122.3 377.851 121.952 377.851 121.997 377.638C122.042 377.426 122.559 377.491 122.683 377.475C123.234 377.384 123.779 377.253 124.315 377.083V377.083Z" fill="black"/>
<path id="Vector_68" opacity="0.1" d="M119.4 376.729C120.088 376.642 120.784 376.793 121.39 377.159C121.408 377.172 121.422 377.191 121.43 377.214C121.433 377.221 121.435 377.23 121.435 377.238C121.435 377.247 121.433 377.255 121.43 377.263C121.366 377.393 121.269 377.499 121.151 377.569C121.032 377.639 120.897 377.669 120.763 377.655C120.497 377.621 120.237 377.549 119.987 377.442C119.573 377.296 119.14 377.224 118.704 377.23C118.511 377.249 118.316 377.249 118.122 377.23C117.545 377.121 117.734 376.865 118.177 376.811C118.583 376.76 118.992 376.733 119.4 376.729V376.729Z" fill="black"/>
<path id="Vector_69" opacity="0.1" d="M96.9091 341.509C96.0884 340.879 95.1156 340.531 94.1138 340.507C95.1282 340.438 96.1284 340.796 96.9091 341.509Z" fill="black"/>
<path id="Vector_70" opacity="0.1" d="M96.1431 337.893C96.8809 337.898 97.6034 338.124 98.2321 338.546L97.4761 338.318C97.0212 338.16 96.553 338.052 96.0784 337.996C95.8049 337.969 95.5313 337.996 95.2578 337.964C94.9842 337.931 94.636 337.877 94.3277 337.866C94.9295 337.898 95.5363 337.86 96.1431 337.893Z" fill="black"/>
<path id="Vector_71" opacity="0.1" d="M98.6051 339.614C98.8339 339.663 99.1025 339.772 99.1522 340.028C99.1522 339.875 97.5308 339.374 97.3318 339.303C96.9986 339.173 95.9292 338.661 95.6855 339.015C96.6256 339.292 97.6402 339.396 98.6051 339.614Z" fill="black"/>
<path id="Vector_72" opacity="0.1" d="M100.883 331.653C101.958 331.257 102.927 330.576 103.703 329.671C103.695 330.074 103.596 330.469 103.414 330.821C103.233 331.172 102.975 331.469 102.664 331.685C102.033 332.104 101.336 332.388 100.61 332.524C99.8835 332.66 99.1753 332.892 98.5007 333.215C98.1774 333.395 97.1677 334.441 96.8494 334.386C96.4465 334.321 97.0881 333.624 97.2373 333.499C98.3017 332.589 99.6496 332.186 100.883 331.653Z" fill="black"/>
<path id="Vector_73" opacity="0.1" d="M120.942 343.278C120.594 343.148 116.366 344.046 116.625 343.148C116.784 342.603 118.157 342.799 118.5 342.816C119.33 342.841 120.153 342.997 120.942 343.278V343.278Z" fill="black"/>
<path id="Vector_74" d="M116.386 236.115C116.386 238.472 115.641 240.758 114.277 242.583C112.913 244.408 111.015 245.66 108.904 246.127C106.793 246.594 104.599 246.247 102.695 245.145C100.791 244.043 99.2936 242.254 98.4572 240.081C97.6207 237.908 97.4966 235.485 98.1059 233.224C98.7152 230.962 100.02 229.001 101.8 227.673C103.58 226.345 105.724 225.732 107.87 225.937C110.015 226.143 112.03 227.155 113.571 228.801C114.466 229.751 115.176 230.887 115.659 232.144C116.143 233.4 116.39 234.751 116.386 236.115V236.115Z" fill="#FBBEBE"/>
<path id="Vector_75" d="M111.875 240.324C111.875 240.324 108.846 250.006 110.567 251.977C112.288 253.948 98.2022 255.113 98.2022 255.113C98.2022 255.113 104.096 243.553 103.524 240.683C102.952 237.813 111.875 240.324 111.875 240.324Z" stroke="#6C63FF" stroke-miterlimit="10"/>
<path id="Vector_76" opacity="0.1" d="M124.489 306.359C124.489 306.593 124.489 306.817 124.489 307.034C124.325 311.608 116.874 320.838 115.153 319.314C113.432 317.789 101.724 314.74 101.724 314.74C101.724 314.74 100.003 311.783 98.2022 311.783C97.18 311.686 96.1797 311.402 95.2428 310.944L95.5811 305.689C95.5811 305.689 121.042 300.914 123.847 304.764C124.146 305.249 124.364 305.79 124.489 306.359V306.359Z" fill="black"/>
<path id="Vector_77" d="M124.484 306.201C124.399 308.494 122.494 311.951 120.39 314.641C118.286 317.331 116.008 319.237 115.148 318.453C114.518 318.003 113.836 317.65 113.119 317.402C109.244 315.839 101.724 313.879 101.724 313.879C101.724 313.879 100.003 310.922 98.2022 310.922C96.4017 310.922 92.9649 308.951 92.9649 308.951C92.9649 308.951 93.2931 308.407 92.9649 306.441C92.6366 304.475 87.3992 307.53 87.3992 307.53C87.3992 307.53 87.1505 294.265 89.0356 287.807C90.9206 281.349 90.0303 273.105 90.0303 273.105C90.0303 273.105 91.3782 264.98 92.8405 258.56C93.7209 254.71 94.646 251.481 95.3523 250.969C97.2373 249.624 107.061 250.969 107.061 250.969C107.061 250.969 111.154 251.056 112.711 251.514C113.194 251.721 113.606 252.088 113.89 252.565C113.984 252.706 114.084 252.853 114.178 253.011C115.272 254.808 116.386 257.912 117.456 260.749C119.013 264.871 125.155 282.258 125.155 282.258C125.155 282.258 124.991 283.423 123.598 288.711C122.206 293.998 124.648 301.633 124.484 306.201Z" fill="#65617D"/>
<path id="Vector_78" d="M117.441 311.489L120.39 314.636C120.39 314.636 123.091 324.841 119.57 323.948C116.048 323.054 113.104 317.413 113.104 317.413L117.441 311.489Z" fill="#FBBEBE"/>
<path id="Vector_79" opacity="0.1" d="M124.892 283.075C117.928 282.988 116.133 272.32 116.133 272.32C116.133 272.32 115.635 261.746 114.74 259.796C114.243 258.707 114.019 256.028 113.919 253.85C115.014 255.647 116.123 258.751 117.197 261.588C118.754 265.688 124.892 283.075 124.892 283.075Z" fill="black"/>
<path id="Vector_80" d="M125.14 282.269C118.177 282.182 116.386 271.509 116.386 271.509C116.386 271.509 115.889 260.934 114.994 258.985C114.496 257.896 114.273 255.217 114.173 253.039C115.267 254.836 116.381 257.939 117.451 260.776C118.998 264.882 125.14 282.269 125.14 282.269Z" fill="#65617D"/>
<path id="Vector_81" opacity="0.1" d="M112.676 255.957C112.676 255.957 110.627 249.864 107.269 255.957C103.912 262.051 103.833 269.761 103.833 269.761L103.261 286.609C103.261 286.609 104.325 288.852 104.285 290.105C104.245 291.357 106.275 294.946 106.275 294.946C106.275 294.946 106.772 302.025 108.647 303.19L110.448 309.016C110.448 309.016 110.532 312.872 111.761 314.396C112.989 315.921 112.343 318.274 112.343 318.274L119.619 315.486C119.619 315.486 118.799 315.807 119.619 313.4C120.44 310.993 119.122 307.851 119.122 307.851C119.122 307.851 114.457 296.737 113.885 295.125C113.313 293.514 112.492 291.63 112.82 289.745C113.148 287.861 112.885 267.877 113.318 264.833C113.75 261.789 112.676 255.957 112.676 255.957Z" fill="black"/>
<path id="Vector_82" d="M113.432 255.113C113.432 255.113 111.383 249.02 108.025 255.113C104.668 261.207 104.589 268.917 104.589 268.917L104.017 285.765C104.017 285.765 105.081 288.008 105.041 289.261C105.001 290.513 107.031 294.102 107.031 294.102C107.031 294.102 107.528 301.181 109.403 302.346L111.204 308.172C111.204 308.172 111.288 312.028 112.517 313.552C113.745 315.077 113.104 317.429 113.104 317.429L120.375 314.636C120.375 314.636 119.555 314.963 120.375 312.556C121.196 310.149 119.878 307.007 119.878 307.007C119.878 307.007 115.213 295.893 114.641 294.281C114.069 292.67 113.248 290.786 113.576 288.901C113.904 287.017 113.646 267.033 114.074 263.984C114.501 260.934 113.432 255.113 113.432 255.113Z" fill="#444053"/>
<path id="Vector_83" opacity="0.1" d="M113.571 307.818C113.881 307.859 114.182 307.956 114.462 308.107C114.685 308.238 114.879 308.428 115.098 308.564C115.355 308.723 115.644 308.809 115.939 308.815C115.61 308.815 115.282 308.853 114.944 308.859C114.741 308.87 114.537 308.842 114.342 308.777C114.163 308.678 113.996 308.555 113.845 308.412C113.645 308.249 113.426 308.117 113.193 308.02C113.019 307.938 112.83 307.911 112.755 307.715C113.03 307.725 113.302 307.76 113.571 307.818V307.818Z" fill="black"/>
<path id="Vector_84" opacity="0.1" d="M116.342 310.225C116.65 310.225 116.958 310.149 117.272 310.127C117.722 310.109 118.173 310.135 118.62 310.204C117.962 310.565 117.222 310.708 116.491 310.617C116.28 310.557 116.06 310.557 115.849 310.617C115.62 310.721 114.959 311.543 114.899 310.813C114.84 310.084 115.964 310.242 116.342 310.225Z" fill="black"/>
<path id="Vector_85" opacity="0.1" d="M112.576 225.36L111.413 224.413C111.54 224.46 111.663 224.52 111.781 224.592C112.029 224.743 112.254 224.936 112.447 225.164C112.576 225.284 112.706 225.414 112.83 225.54L112.576 225.36Z" fill="black"/>
<path id="Vector_86" opacity="0.1" d="M113.899 252.576C113.686 253.11 113.342 253.57 112.905 253.904C112.643 254.101 112.343 254.227 112.029 254.275C111.583 254.319 111.134 254.267 110.706 254.122C110.163 253.971 109.626 253.789 109.1 253.578C108.071 253.113 107.016 252.721 105.941 252.401C104.305 251.993 102.4 252.14 101.226 253.447C100.197 254.596 99.9431 256.382 98.9135 257.531C97.5357 259.067 95.2777 258.974 93.323 258.674L92.8654 258.604C93.7457 254.754 94.6708 251.525 95.3771 251.013C97.2622 249.668 107.085 251.013 107.085 251.013C107.085 251.013 111.179 251.1 112.736 251.557C113.21 251.759 113.616 252.114 113.899 252.576V252.576Z" fill="black"/>
<path id="Vector_87" opacity="0.1" d="M97.7148 236.115C97.7147 234.105 98.256 232.14 99.271 230.465C100.286 228.791 101.73 227.481 103.421 226.7C105.113 225.92 106.977 225.703 108.781 226.076C110.584 226.45 112.247 227.398 113.561 228.801V228.801C113.591 230.582 113.238 232.406 113.696 234.122C114.118 235.717 115.188 237.002 116.153 238.331C115.652 240.785 114.343 242.952 112.475 244.415C110.606 245.878 108.311 246.536 106.027 246.261C103.744 245.987 101.633 244.8 100.099 242.927C98.5656 241.055 97.7166 238.629 97.7148 236.115V236.115Z" fill="black"/>
<path id="Vector_88" d="M112.805 225.006C110.994 223.209 108.713 222.081 106.284 221.782C103.855 221.483 101.402 222.028 99.2716 223.34C98.2928 223.93 97.4571 224.769 96.8345 225.785C95.5512 228.023 95.8795 230.909 95.208 233.446C94.5714 235.869 93.0494 237.873 91.791 239.981C90.5327 242.088 89.4832 244.604 89.9557 247.06C90.2989 248.857 91.4479 250.468 91.4081 252.303C91.3623 253.325 90.9668 254.29 90.3004 255.006C89.634 255.723 88.7456 256.138 87.812 256.17C89.3937 257.395 91.3683 257.803 93.2832 258.103C95.1981 258.402 97.491 258.495 98.8737 256.954C99.9033 255.81 100.157 254.019 101.187 252.875C102.36 251.563 104.265 251.416 105.902 251.83C107.538 252.244 109.045 253.109 110.667 253.572C111.095 253.713 111.544 253.763 111.99 253.719C113.387 253.512 114.198 251.813 114.307 250.278C114.397 248.998 114.228 247.522 115.058 246.619C115.367 246.328 115.7 246.071 116.053 245.851C116.691 245.369 117.195 244.705 117.512 243.931C117.828 243.157 117.945 242.303 117.849 241.462C117.466 238.423 114.462 236.528 113.676 233.582C113.218 231.873 113.571 230.048 113.541 228.268C113.512 226.487 112.9 224.456 111.368 223.857" fill="#444053"/>
<path id="Vector_89" opacity="0.1" d="M117.719 241.478C117.331 238.44 114.327 236.545 113.541 233.599C113.084 231.889 113.437 230.065 113.412 228.284C113.425 227.043 113.077 225.83 112.417 224.821L112.646 225.006C112.523 224.875 112.394 224.75 112.258 224.63C112.071 224.414 111.855 224.23 111.617 224.086C111.477 223.971 111.333 223.868 111.194 223.765L111.418 223.988L111.189 223.803C111.849 224.812 112.197 226.025 112.184 227.266C112.184 229.041 111.855 230.871 112.313 232.581C113.099 235.526 116.103 237.421 116.491 240.46C116.585 241.302 116.467 242.156 116.15 242.929C115.833 243.703 115.328 244.367 114.69 244.849C114.337 245.069 114.004 245.326 113.696 245.617C112.87 246.521 113.034 247.996 112.945 249.276C112.835 250.811 112.024 252.51 110.632 252.717C110.185 252.761 109.734 252.711 109.304 252.57C107.682 252.107 106.175 251.236 104.539 250.828C102.902 250.419 101.002 250.561 99.8237 251.873C98.7941 253.017 98.5405 254.803 97.5109 255.952C96.1332 257.493 93.8751 257.395 91.9253 257.101C90.6434 256.941 89.382 256.623 88.1652 256.153C88.0007 256.182 87.8344 256.197 87.6678 256.197C89.2494 257.422 91.224 257.83 93.1389 258.13C95.0538 258.429 97.3468 258.522 98.7245 256.981C99.7541 255.837 100.008 254.046 101.037 252.902C102.216 251.59 104.121 251.443 105.752 251.857C107.384 252.271 108.896 253.137 110.517 253.599C110.947 253.74 111.398 253.79 111.845 253.746C113.238 253.54 114.049 251.841 114.158 250.305C114.248 249.025 114.084 247.55 114.909 246.646C115.218 246.357 115.551 246.1 115.904 245.878C116.546 245.398 117.055 244.733 117.376 243.957C117.696 243.181 117.815 242.323 117.719 241.478Z" fill="black"/>
</g>
<defs>
<linearGradient id="paint0_linear" x1="106.125" y1="394.693" x2="106.125" y2="220.922" gradientUnits="userSpaceOnUse">
<stop stop-color="#808080" stop-opacity="0.25"/>
<stop offset="0.54" stop-color="#808080" stop-opacity="0.12"/>
<stop offset="1" stop-color="#808080" stop-opacity="0.1"/>
</linearGradient>
<clipPath id="clip0">
<rect width="569" height="396" fill="white"/>
</clipPath>
</defs>
</svg>
