<svg width="629" height="365" viewBox="0 0 629 365" fill="none" xmlns="http://www.w3.org/2000/svg">
<g id="undraw_wind_turbine_x2k4 1" clip-path="url(#clip0)">
<path id="Vector" d="M315.913 360.051H295.487L301.975 140.453H309.425L315.913 360.051Z" fill="white"/>
<g id="wing-1">
<path id="Vector_2" d="M315.459 98.1938C314.81 101.446 312.616 108.312 305.529 108.142C300.119 108.016 295.951 103.705 296.094 98.7659L298.134 31.5107L298.799 9.5775C298.799 9.5775 302.307 3.50947 305.798 30.7127V30.8131L315.497 95.3178C315.653 96.2722 315.64 97.2432 315.459 98.1938Z" fill="white"/>
<path id="Vector_3" d="M310.736 104.724H300.322V125.056H310.736V104.724Z" fill="white"/>
<path id="Vector_4" d="M305.815 30.8181C302.169 29.8494 299.69 30.5872 298.117 31.5158L298.782 9.58253C298.782 9.58253 302.29 3.51451 305.782 30.7177L305.815 30.8181Z" fill="#6C63FF"/>
<path id="Vector_5" d="M310.736 110.802V125.056H300.322V111.083C303.626 109.777 307.353 109.676 310.736 110.802V110.802Z" fill="#6C63FF"/>
<path id="Vector_6" d="M335.252 156.119C332.333 154.161 326.538 149.353 329.809 143.611C332.305 139.229 338.375 137.694 343.175 139.977L408.5 171.136L429.806 181.294C429.806 181.294 434.237 186.815 405.921 177.781L405.817 177.751L338.051 157.424C337.049 157.125 336.105 156.685 335.252 156.119V156.119Z" fill="white"/>
<path id="Vector_7" d="M315.445 131.93L310.88 140.474L330.899 149.387L335.464 140.843L315.445 131.93Z" fill="white"/>
<path id="Vector_8" d="M405.817 177.746C408.368 175.176 408.731 172.817 408.5 171.136L429.806 181.294C429.806 181.294 434.237 186.815 405.921 177.781L405.817 177.746Z" fill="#6C63FF"/>
<path id="Vector_9" d="M324.916 146.718L310.879 140.469L315.442 131.937L329.188 138.06C329.028 141.338 327.499 144.436 324.916 146.718V146.718Z" fill="#6C63FF"/>
<path id="Vector_10" d="M275.805 156.119C278.725 154.161 284.52 149.353 281.249 143.611C278.752 139.229 272.682 137.694 267.882 139.977L202.558 171.136L181.252 181.294C181.252 181.294 176.82 186.815 205.136 177.781L205.241 177.751L273.007 157.429C274.009 157.129 274.953 156.687 275.805 156.119V156.119Z" fill="white"/>
<path id="Vector_11" d="M295.613 131.928L275.593 140.841L280.158 149.385L300.178 140.472L295.613 131.928Z" fill="white"/>
<path id="Vector_12" d="M205.241 177.746C202.69 175.176 202.327 172.817 202.558 171.136L181.252 181.294C181.252 181.294 176.82 186.815 205.136 177.781L205.241 177.746Z" fill="#6C63FF"/>
<path id="Vector_13" d="M286.142 146.718L300.179 140.469L295.615 131.937L281.87 138.06C282.03 141.338 283.559 144.436 286.142 146.718V146.718Z" fill="#6C63FF"/>
<path id="Vector_14" d="M305.529 139.019C309.288 139.019 312.336 136.237 312.336 132.805C312.336 129.373 309.288 126.592 305.529 126.592C301.77 126.592 298.722 129.373 298.722 132.805C298.722 136.237 301.77 139.019 305.529 139.019Z" fill="#6C63FF"/>
</g>
<path id="Vector_15" d="M467.346 265.377L453.457 267.605L457.911 116.808H462.953L467.346 265.377Z" fill="white"/>
<g id="wing-3">
<path id="Vector_16" d="M479.097 130.746C477.123 129.426 473.197 126.174 475.413 122.289C476.26 120.872 477.686 119.819 479.38 119.358C481.075 118.897 482.9 119.067 484.458 119.83L528.653 140.91L543.064 147.781C543.064 147.781 546.066 151.53 526.91 145.402H526.838L480.988 131.655C480.309 131.445 479.671 131.138 479.097 130.746V130.746Z" fill="white"/>
<g id="wing-3_2">
<path id="Vector_17" d="M466.964 92.3432C466.529 94.5416 465.045 99.1842 460.25 99.0687C458.485 98.9944 456.823 98.2867 455.627 97.0995C454.43 95.9123 453.796 94.3418 453.861 92.7297L455.247 47.227L455.692 32.3907C455.692 32.3907 458.067 28.2852 460.432 46.69V46.7553L466.991 90.4209C467.092 91.0591 467.083 91.7077 466.964 92.3432V92.3432Z" fill="white"/>
<path id="Vector_18" d="M463.769 96.755H456.726V110.512H463.769V96.755Z" fill="white"/>
<path id="Vector_19" d="M460.443 46.7603C457.974 46.1078 456.297 46.6047 455.247 47.2321L455.692 32.3958C455.692 32.3958 458.067 28.2902 460.432 46.695L460.443 46.7603Z" fill="#FF63AE"/>
<path id="Vector_20" d="M463.769 100.866V110.502H456.726V101.061C458.959 100.175 461.481 100.105 463.769 100.866Z" fill="#FF63E6"/>
<path id="Vector_21" d="M466.954 115.165L463.866 120.944L477.412 126.975L480.499 121.196L466.954 115.165Z" fill="white"/>
<path id="Vector_22" d="M528.099 146.162C529.825 144.426 530.073 142.83 529.913 141.691L544.324 148.562C544.324 148.562 547.326 152.311 528.17 146.183L528.099 146.162Z" fill="#FF63AE"/>
<path id="Vector_23" d="M473.364 125.173L463.846 120.942L466.931 115.165L476.239 119.306C476.135 121.525 475.107 123.623 473.364 125.173V125.173Z" fill="#FF63E6"/>
<path id="Vector_24" d="M440.138 131.527C442.112 130.207 446.037 126.955 443.821 123.07C442.975 121.653 441.549 120.599 439.854 120.139C438.16 119.678 436.335 119.848 434.777 120.611L390.582 141.691L376.171 148.562C376.171 148.562 373.169 152.311 392.325 146.183H392.396L438.246 132.435C438.925 132.226 439.564 131.919 440.138 131.527V131.527Z" fill="white"/>
<path id="Vector_25" d="M453.545 115.168L439.999 121.198L443.087 126.977L456.632 120.946L453.545 115.168Z" fill="white"/>
<path id="Vector_26" d="M392.396 146.162C390.67 144.426 390.422 142.83 390.582 141.691L376.171 148.562C376.171 148.562 373.169 152.311 392.325 146.183L392.396 146.162Z" fill="#FF63AE"/>
<path id="Vector_27" d="M447.131 125.173L456.627 120.942L453.542 115.165L444.234 119.306C444.343 121.527 445.38 123.627 447.131 125.173V125.173Z" fill="#FF63E6"/>
<path id="Vector_28" d="M460.25 119.963C462.795 119.963 464.858 118.08 464.858 115.757C464.858 113.434 462.795 111.551 460.25 111.551C457.706 111.551 455.643 113.434 455.643 115.757C455.643 118.08 457.706 119.963 460.25 119.963Z" fill="#CF36C0"/>
</g>
</g>
<path id="Vector_29" d="M152.208 265.377H138.385L142.779 116.808H147.815L152.208 265.377Z" fill="white"/>
<g id="wing-2">
<path id="Vector_30" d="M152.964 89.3432C152.529 91.5416 151.045 96.1842 146.25 96.0687C144.485 95.9944 142.824 95.2865 141.628 94.0992C140.433 92.9118 139.8 91.3413 139.867 89.7297L141.247 44.227L141.692 29.3907C141.692 29.3907 144.067 25.2852 146.432 43.69V43.7553L152.997 87.4209C153.093 88.0595 153.082 88.7078 152.964 89.3432Z" fill="white"/>
<path id="Vector_31" d="M146.443 43.7603C143.979 43.1078 142.297 43.6047 141.247 44.2321L141.692 29.3958C141.692 29.3958 144.067 25.2902 146.432 43.695L146.443 43.7603Z" fill="#FF8863"/>
<path id="Vector_32" d="M149.769 97.8656V107.502H142.726V98.0613C144.959 97.1749 147.481 97.1048 149.769 97.8656Z" fill="#FFA563"/>
<path id="Vector_33" d="M166.357 128.527C164.383 127.207 160.463 123.955 162.679 120.07C163.525 118.653 164.95 117.6 166.643 117.139C168.337 116.678 170.161 116.848 171.718 117.611L215.913 138.691L230.329 145.562C230.329 145.562 233.326 149.311 214.17 143.183H214.099L168.254 129.435C167.573 129.226 166.933 128.919 166.357 128.527V128.527Z" fill="white"/>
<path id="Vector_34" d="M214.099 143.162C215.825 141.426 216.073 139.83 215.913 138.691L230.329 145.562C230.329 145.562 233.326 149.311 214.17 143.183L214.099 143.162Z" fill="#FF8863"/>
<path id="Vector_35" d="M159.364 122.173L149.868 117.942L152.958 112.165L162.261 116.306C162.154 118.528 161.117 120.628 159.364 122.173V122.173Z" fill="#FF8863"/>
<path id="Vector_36" d="M126.138 128.527C128.117 127.207 132.037 123.955 129.821 120.07C128.975 118.653 127.549 117.599 125.854 117.139C124.16 116.678 122.335 116.848 120.777 117.611L76.5819 138.691L62.171 145.562C62.171 145.562 59.1689 149.311 78.3248 143.183H78.3963L124.246 129.435C124.925 129.226 125.564 128.919 126.138 128.527Z" fill="white"/>
<path id="Vector_37" d="M78.3963 143.162C76.6753 141.426 76.4279 139.83 76.5819 138.691L62.171 145.562C62.171 145.562 59.1689 149.311 78.3248 143.183L78.3963 143.162Z" fill="#FF8863"/>
<path id="Vector_38" d="M133.131 122.173L142.627 117.942L139.542 112.165L130.234 116.306C130.346 118.527 131.383 120.625 133.131 122.173Z" fill="#FF8863"/>
<path id="Vector_39" d="M146.25 116.963C148.795 116.963 150.858 115.08 150.858 112.757C150.858 110.434 148.795 108.551 146.25 108.551C143.706 108.551 141.643 110.434 141.643 112.757C141.643 115.08 143.706 116.963 146.25 116.963Z" fill="#FFA563"/>
</g>
<path id="Vector_40" d="M611.785 305.966C607.08 321.635 596.867 335.459 582.716 345.314C568.565 355.168 551.261 360.506 533.462 360.508H119.406C100.269 360.497 81.5097 355.645 65.2115 346.49C48.9132 337.335 35.7138 324.236 27.0789 308.646C27.0789 308.646 87.0923 232.869 242.951 282.376C372.347 323.477 432.031 284.61 448.586 270.225C450.378 268.675 452.495 267.472 454.81 266.689C457.126 265.905 459.59 265.558 462.057 265.668C493.765 267.038 603.604 274.055 611.801 305.956L611.785 305.966Z" fill="#34E245"/>
<path id="Vector_41" d="M148.541 351.403C148.541 351.403 144.192 350.937 141.36 349.009L141.146 348.854C141.317 348.62 141.442 348.36 141.514 348.086C141.21 347.545 141.05 346.947 141.047 346.339C141.056 345.769 140.928 345.204 140.673 344.683V341.862C140.673 341.862 139.733 340.949 139.639 338.625C139.546 336.301 139.452 324.848 139.452 324.848C139.307 324.248 139.276 323.63 139.359 323.021C139.452 321.696 139.452 321.199 139.452 321.199C139.145 320.429 139.048 319.602 139.172 318.79C139.452 317.786 138.512 316.631 138.512 316.631L139.92 310.328C139.92 310.328 140.7 288.55 138.429 281.985V281.945C138.429 281.945 138.429 281.89 138.429 281.865C138.622 277.628 135.807 270.577 137.401 265.683C138.996 260.79 139.183 259.705 139.183 259.705C139.183 259.705 132.156 243.604 130.386 239.79C129.159 237.16 127.889 234.269 126.636 232.623C126.526 232.479 126.416 232.343 126.306 232.216C126.245 232.146 126.185 232.076 126.124 232.015C126.508 231.432 126.739 230.776 126.801 230.098C126.9 228.914 126.713 227.548 127.658 226.71C128.019 226.441 128.408 226.204 128.819 226.003C129.543 225.567 130.119 224.956 130.484 224.238C130.848 223.52 130.985 222.723 130.88 221.937C130.682 220.687 129.896 219.648 129 218.64C129.307 217.109 129.184 215.532 128.644 214.056C128.104 212.58 127.163 211.253 125.91 210.198V210.198C125.91 210.042 125.91 209.881 125.91 209.726C125.935 208.576 125.549 207.45 124.81 206.519L125.074 206.689C124.926 206.569 124.783 206.453 124.629 206.338C124.412 206.138 124.164 205.969 123.892 205.836C121.807 204.535 119.37 203.784 116.849 203.665C114.327 203.545 111.818 204.062 109.597 205.158C108.485 205.701 107.529 206.477 106.809 207.422C105.341 209.49 105.709 212.165 104.951 214.514C104.214 216.757 102.476 218.615 101.036 220.572C99.5953 222.529 98.3912 224.848 98.9355 227.137C99.3259 228.798 100.624 230.289 100.585 231.99C100.52 232.882 100.117 233.724 99.4446 234.373C98.772 235.022 97.8725 235.436 96.9012 235.544H96.8517C96.6697 235.569 96.486 235.583 96.3019 235.584C98.0503 236.683 100.222 237.09 102.35 237.346C102.306 237.496 102.262 237.647 102.223 237.802C100.503 243.73 98.9685 251.258 98.9685 251.258C98.9685 251.258 99.9967 258.887 97.8414 264.865C95.6861 270.843 95.9665 283.124 95.9665 283.124C95.9665 283.124 101.965 280.299 102.339 282.121C102.713 283.942 102.339 284.444 102.339 284.444C102.339 284.444 103.565 285.011 105.006 285.513L104.945 286.241L104.681 289.504C104.58 290.188 104.695 290.884 105.011 291.511C105.528 292.425 105.011 294.914 105.011 294.914C105.011 294.914 104.571 295.165 105.011 296.329C105.451 297.494 104.665 299.15 104.665 299.15C104.665 299.15 104.115 305.374 104.043 306.679C103.972 307.984 102.169 311.743 102.169 311.743C102.169 311.743 103.763 313.565 102.169 313.816C100.574 314.067 100.387 316.325 100.387 316.325C100.387 316.325 98.5122 317.736 98.5122 318.233C98.5122 318.233 90.0779 326.037 88.1095 338.896C88.1095 338.896 86.1411 340.557 86.4215 342.133C86.581 343.027 86.2621 343.333 85.9542 343.433C86.3006 343.473 86.6799 343.679 86.504 344.437C86.2236 345.762 85.4758 348.588 85.4758 348.588H85.6078C84.0738 350.209 81.8305 352.924 81.4896 355.308C81.4896 355.409 81.4786 355.509 81.4566 355.609L80.6099 357.351L88.016 360.362L88.6703 359.449C88.6703 359.449 91.9693 362.852 95.7026 363.595C96.3476 363.722 97.0055 363.788 97.6654 363.79C99.749 363.757 101.809 363.382 103.747 362.681C103.747 362.681 106.463 359.615 99.4304 359.032C99.4304 359.032 95.3122 354.716 95.6861 352.889C95.8271 352.12 95.9135 351.344 95.9445 350.565C95.9445 350.395 95.9445 350.227 95.9445 350.063L96.4228 350.129L96.5108 348.738C96.7164 348.503 96.8166 348.205 96.7912 347.905C96.7912 347.328 96.2414 347.243 96.7912 346.901C97.341 346.56 97.341 346.901 97.341 346.073C97.341 345.245 96.9672 345.491 97.8084 344.663C98.6496 343.835 97.7149 342.339 97.7149 342.339C97.7149 342.339 99.6833 341.009 99.5898 339.267C99.4964 337.526 105.869 326.489 107.177 326.072C108.486 325.656 108.585 323.498 108.585 323.498C108.585 323.498 110.366 323.829 110.927 323.498C111.488 323.166 113.269 320.597 113.269 320.597C113.269 320.597 120.417 304.164 120.489 297.941L120.956 296.53C120.956 296.53 123.678 299.768 123.298 302.091C122.919 304.415 125.377 306.071 125.377 306.071V313.128C125.651 314.358 125.802 315.608 125.827 316.862C125.734 318.022 126.927 319.186 126.476 320.18C126.025 321.174 126.476 322.92 126.476 322.92C126.476 322.92 126.377 325.244 126.476 325.907C126.575 326.569 126.108 334.203 128.549 337.526C128.549 337.526 129.577 339.93 128.549 341.506C127.521 343.082 129.484 344.663 129.484 344.663C129.484 344.663 128.269 346.485 129.484 347.815C130.18 348.655 130.494 349.709 130.358 350.756C129.869 352.442 129.506 354.656 130.325 356.197V356.232L130.545 358.601L137.726 358.099V356.774C137.726 356.774 142.63 357.963 147.199 357.316C149.662 356.97 152.027 356.086 153.473 354.199C153.511 354.224 156.414 349.662 148.541 351.403Z" fill="url(#paint0_linear)"/>
<path id="Vector_42" d="M152.181 354.264C150.784 356.146 148.502 357.025 146.133 357.371C141.734 358.013 136.989 356.829 136.989 356.829V358.164L130.056 358.666L129.841 356.307V356.267C129.038 354.711 129.407 352.462 129.891 350.771C130.123 349.973 130.41 349.188 130.748 348.422C130.748 348.422 136.72 343.795 138.71 347.268C139.142 347.986 139.74 348.61 140.464 349.095C143.213 351.012 147.397 351.479 147.397 351.479C154.985 349.722 152.181 354.264 152.181 354.264Z" fill="#65617D"/>
<path id="Vector_43" opacity="0.1" d="M133.718 349.722C133.718 349.722 133.718 354.018 137.154 353.938C140.59 353.858 141.052 352.227 139.964 351.122C139.225 350.34 138.587 349.483 138.061 348.568L133.718 349.722Z" fill="black"/>
<path id="Vector_44" d="M104.126 362.681C102.255 363.379 100.258 363.753 98.2373 363.785C97.5995 363.782 96.9638 363.718 96.3404 363.595C92.7225 362.847 89.5555 359.459 89.5555 359.459L88.9232 360.372L81.7755 357.396L82.5838 355.655L82.6167 355.358C82.9466 352.984 85.113 350.279 86.5975 348.663C87.4057 347.785 88.016 347.233 88.016 347.233L96.6153 348.387C96.6153 348.387 96.6483 349.391 96.6153 350.615C96.5863 351.391 96.5019 352.164 96.3624 352.929C96.005 354.746 99.9802 359.042 99.9802 359.042C106.749 359.635 104.126 362.681 104.126 362.681Z" fill="#65617D"/>
<path id="Vector_45" d="M86.9278 343.498C86.7826 343.543 86.6273 343.554 86.4765 343.529C86.624 343.495 86.7766 343.485 86.9278 343.498Z" fill="#444053"/>
<path id="Vector_46" opacity="0.1" d="M96.6153 348.402C96.6153 348.402 96.6482 349.406 96.6153 350.63L86.4985 349.125C86.4985 349.125 86.548 348.949 86.6194 348.658C87.4277 347.78 88.038 347.228 88.038 347.228L96.6153 348.402Z" fill="black"/>
<path id="Vector_47" opacity="0.1" d="M140.447 349.075C138.919 352.302 129.825 351.539 129.825 351.539C129.87 351.278 129.886 351.014 129.874 350.751C130.107 349.953 130.393 349.168 130.732 348.402C130.732 348.402 136.703 343.774 138.693 347.248C139.125 347.966 139.724 348.589 140.447 349.075V349.075Z" fill="black"/>
<path id="Vector_48" d="M140.596 348.156C139.694 351.87 129.825 351.047 129.825 351.047C130.014 349.943 129.722 348.815 129.011 347.905C127.834 346.585 129.011 344.768 129.011 344.768C129.011 344.768 127.109 343.197 128.109 341.626C129.11 340.055 128.109 337.661 128.109 337.661C125.751 334.359 126.207 326.755 126.108 326.117C126.009 325.48 126.108 323.146 126.108 323.146C126.108 323.146 125.663 321.41 126.108 320.416C126.553 319.422 125.393 318.268 125.481 317.113C125.456 315.864 125.31 314.62 125.047 313.394V306.368C125.047 306.368 122.677 304.716 123.04 302.402C123.403 300.089 120.775 296.882 120.775 296.882L120.324 298.287C120.236 304.48 113.357 320.837 113.357 320.837C113.357 320.837 111.637 323.402 111.092 323.733C110.548 324.065 108.832 323.733 108.832 323.733C108.832 323.733 108.739 325.882 107.474 326.293C106.21 326.705 100.052 337.691 100.145 339.428C100.239 341.165 98.3307 342.485 98.3307 342.485C98.3307 342.485 99.238 343.99 98.4242 344.798C97.6105 345.606 97.9679 345.376 97.9679 346.204C97.9679 347.032 97.9679 346.706 97.418 347.027C96.8682 347.348 97.418 347.443 97.418 348.031C97.4438 348.327 97.3455 348.621 97.1431 348.854L97.0606 350.244L86.4655 348.693C86.4655 348.693 87.1913 345.882 87.4607 344.557C87.6202 343.785 87.2518 343.579 86.9109 343.554C87.2133 343.453 87.5212 343.147 87.3672 342.264C87.0923 340.693 89.0167 339.042 89.0167 339.042C90.9191 326.233 99.062 318.463 99.062 318.463C99.062 317.962 100.871 316.566 100.871 316.566C100.871 316.566 101.052 314.333 102.592 314.087C104.131 313.841 102.592 312.019 102.592 312.019C102.592 312.019 104.313 308.305 104.401 307C104.489 305.695 105 299.471 105 299.471C105 299.471 105.759 297.82 105.336 296.666C104.912 295.511 105.336 295.26 105.336 295.26C105.336 295.26 105.847 292.781 105.336 291.873C105.032 291.251 104.922 290.565 105.017 289.89L105.275 286.638L105.649 281.794C105.649 281.794 133.805 277.357 136.906 280.906C137.242 281.344 137.49 281.834 137.638 282.351C139.837 288.876 139.078 310.563 139.078 310.563L137.72 316.842C137.72 316.842 138.627 318.002 138.358 318.99C138.237 319.798 138.329 320.621 138.627 321.39C138.627 321.39 138.627 321.891 138.534 323.206C138.455 323.813 138.486 324.427 138.627 325.023C138.627 325.023 138.715 336.422 138.809 338.735C138.902 341.049 139.804 341.958 139.804 341.958V344.768C140.048 345.29 140.17 345.852 140.161 346.42C140.157 347.021 140.306 347.616 140.596 348.156V348.156Z" fill="#444053"/>
<path id="Vector_49" opacity="0.1" d="M98.2373 363.795C97.5995 363.792 96.9638 363.728 96.3404 363.605C92.7225 362.857 89.5555 359.469 89.5555 359.469L88.9232 360.382L81.7755 357.406L82.5838 355.655L82.6167 355.358L90.0064 358.796C90.0064 358.796 95.906 361.376 98.2373 363.795Z" fill="black"/>
<path id="Vector_50" opacity="0.1" d="M146.122 357.371C141.723 358.013 136.978 356.829 136.978 356.829V358.164L130.045 358.666L129.83 356.307C132.03 356.342 135.565 356.377 137.104 356.267C140.151 356.262 143.184 356.633 146.122 357.371V357.371Z" fill="black"/>
<path id="Vector_51" opacity="0.1" d="M90.4682 341.37C90.8295 341.341 91.1936 341.383 91.5349 341.496C91.8918 341.69 92.2302 341.912 92.5466 342.158C92.784 342.274 93.0086 342.41 93.2173 342.565C93.4813 342.801 93.5912 343.152 93.8551 343.388C94.339 343.825 95.1362 343.724 95.7795 343.935C95.851 343.935 95.928 343.99 95.939 344.056C95.95 344.121 95.8895 344.176 95.829 344.216C95.6698 344.299 95.4898 344.342 95.3067 344.342C95.1235 344.342 94.9435 344.299 94.7843 344.216C94.4654 344.051 94.1715 343.849 93.9101 343.614C93.4079 343.207 92.8333 342.881 92.2112 342.65C91.3589 342.344 89.8744 342.259 89.3356 341.496C89.5885 341.32 90.1383 341.375 90.4682 341.37Z" fill="black"/>
<path id="Vector_52" opacity="0.1" d="M89.7425 343.107C89.9338 343.156 90.1183 343.225 90.2923 343.313L91.2215 343.739C90.5617 343.78 89.9031 343.645 89.3246 343.353C89.1192 343.277 88.9191 343.19 88.7253 343.092C89.0629 343.045 89.4067 343.05 89.7425 343.107Z" fill="black"/>
<path id="Vector_53" opacity="0.1" d="M90.9686 344.552C91.1714 344.545 91.3746 344.56 91.5734 344.598C91.9234 344.71 92.2478 344.88 92.5301 345.099C93.208 345.599 94.0559 345.868 94.9273 345.857C94.7559 345.931 94.5658 345.96 94.3775 345.943H92.4311C91.9248 345.973 91.42 345.866 90.9796 345.637C90.6497 345.491 89.2861 345.135 89.2751 344.718C89.2641 344.301 90.6387 344.552 90.9686 344.552Z" fill="black"/>
<path id="Vector_54" opacity="0.1" d="M135.257 346.66C135.852 346.721 136.452 346.736 137.049 346.706C137.679 346.69 138.291 346.516 138.82 346.204C139.342 345.837 139.232 345.461 138.567 345.436C137.948 345.462 137.341 345.598 136.78 345.837C136.49 345.944 136.21 346.073 135.944 346.224C135.807 346.279 135.356 346.665 135.257 346.66Z" fill="black"/>
<path id="Vector_55" opacity="0.1" d="M137.423 347.564C137.368 347.765 137.137 347.875 136.928 347.95C136.417 348.127 135.88 348.235 135.334 348.272C135.197 348.272 134.812 348.272 134.861 348.076C134.911 347.88 135.482 347.94 135.62 347.925C136.229 347.842 136.832 347.721 137.423 347.564V347.564Z" fill="black"/>
<path id="Vector_56" opacity="0.1" d="M131.991 347.238C132.751 347.158 133.52 347.296 134.19 347.634C134.211 347.646 134.226 347.664 134.234 347.684C134.238 347.691 134.24 347.699 134.24 347.707C134.24 347.715 134.238 347.722 134.234 347.729C134.164 347.849 134.057 347.948 133.926 348.012C133.795 348.076 133.646 348.104 133.498 348.091C133.204 348.06 132.915 347.994 132.64 347.895C132.182 347.76 131.703 347.694 131.221 347.699C131.007 347.717 130.792 347.717 130.578 347.699C129.94 347.599 130.149 347.363 130.638 347.313C131.088 347.266 131.539 347.241 131.991 347.238V347.238Z" fill="black"/>
<path id="Vector_57" opacity="0.1" d="M107.128 314.774C106.221 314.194 105.145 313.873 104.038 313.851C105.159 313.787 106.265 314.118 107.128 314.774Z" fill="black"/>
<path id="Vector_58" opacity="0.1" d="M106.281 311.442C107.097 311.446 107.896 311.654 108.59 312.044L107.755 311.833C107.252 311.688 106.734 311.588 106.21 311.537C105.907 311.512 105.605 311.537 105.303 311.507C105 311.477 104.615 311.427 104.274 311.417C104.94 311.447 105.61 311.412 106.281 311.442Z" fill="black"/>
<path id="Vector_59" opacity="0.1" d="M109.003 313.028C109.256 313.073 109.553 313.173 109.608 313.409C109.608 313.269 107.815 312.807 107.595 312.742C107.227 312.621 106.045 312.149 105.775 312.476C106.815 312.732 107.936 312.827 109.003 313.028Z" fill="black"/>
<path id="Vector_60" opacity="0.1" d="M111.521 305.69C112.71 305.326 113.781 304.698 114.639 303.863C114.629 304.235 114.52 304.599 114.319 304.923C114.119 305.247 113.834 305.521 113.489 305.72C112.793 306.106 112.022 306.368 111.219 306.493C110.416 306.618 109.633 306.832 108.887 307.13C108.53 307.296 107.414 308.26 107.062 308.21C106.617 308.149 107.326 307.507 107.491 307.391C108.667 306.553 110.158 306.182 111.521 305.69Z" fill="black"/>
<path id="Vector_61" opacity="0.1" d="M133.695 316.406C133.311 316.285 128.637 317.113 128.923 316.285C129.099 315.783 130.616 315.964 130.996 315.979C131.913 316.003 132.823 316.146 133.695 316.406V316.406Z" fill="black"/>
<path id="Vector_62" d="M128.659 217.631C128.659 219.804 127.835 221.911 126.327 223.593C124.82 225.275 122.721 226.429 120.387 226.859C118.054 227.29 115.629 226.97 113.524 225.954C111.419 224.939 109.764 223.29 108.839 221.287C107.915 219.284 107.777 217.051 108.451 214.966C109.125 212.882 110.567 211.074 112.535 209.85C114.502 208.626 116.872 208.061 119.244 208.25C121.616 208.44 123.843 209.373 125.547 210.89C126.536 211.765 127.321 212.813 127.856 213.971C128.39 215.129 128.664 216.374 128.659 217.631V217.631Z" fill="#FBBEBE"/>
<path id="Vector_63" d="M123.672 221.511C123.672 221.511 120.324 230.434 122.226 232.251C124.129 234.068 108.557 235.142 108.557 235.142C108.557 235.142 115.073 224.487 114.441 221.842C113.808 219.197 123.672 221.511 123.672 221.511Z" stroke="#6C63FF" stroke-miterlimit="10"/>
<path id="Vector_64" opacity="0.1" d="M137.616 282.376C137.616 282.592 137.616 282.798 137.616 282.999C137.434 287.215 129.198 295.722 127.296 294.317C125.393 292.911 112.45 290.101 112.45 290.101C112.45 290.101 110.548 287.375 108.557 287.375C107.427 287.286 106.322 287.025 105.286 286.603L105.66 281.759C105.66 281.759 133.805 277.357 136.906 280.906C137.237 281.353 137.477 281.852 137.616 282.376V282.376Z" fill="black"/>
<path id="Vector_65" d="M137.61 282.231C137.517 284.344 135.411 287.531 133.085 290.01C130.759 292.49 128.241 294.247 127.29 293.524C126.594 293.109 125.839 292.783 125.047 292.555C120.764 291.115 112.45 289.308 112.45 289.308C112.45 289.308 110.548 286.582 108.557 286.582C106.567 286.582 102.768 284.766 102.768 284.766C102.768 284.766 103.131 284.264 102.768 282.452C102.405 280.64 96.6153 283.456 96.6153 283.456C96.6153 283.456 96.3403 271.229 98.4242 265.277C100.508 259.324 99.5238 251.725 99.5238 251.725C99.5238 251.725 101.014 244.237 102.63 238.319C103.604 234.771 104.626 231.795 105.407 231.323C107.491 230.083 118.35 231.323 118.35 231.323C118.35 231.323 122.875 231.403 124.596 231.825C125.13 232.016 125.586 232.354 125.899 232.793C126.003 232.924 126.113 233.059 126.218 233.205C127.427 234.861 128.659 237.722 129.841 240.337C131.562 244.136 138.352 260.162 138.352 260.162C138.352 260.162 138.171 261.236 136.632 266.11C135.092 270.983 137.792 278.02 137.61 282.231Z" fill="#65617D"/>
<path id="Vector_66" d="M129.825 287.104L133.085 290.005C133.085 290.005 136.071 299.411 132.178 298.588C128.285 297.765 125.03 292.565 125.03 292.565L129.825 287.104Z" fill="#FBBEBE"/>
<path id="Vector_67" opacity="0.1" d="M138.061 260.915C130.364 260.835 128.379 251.002 128.379 251.002C128.379 251.002 127.829 241.255 126.839 239.459C126.289 238.455 126.042 235.985 125.932 233.978C127.142 235.634 128.368 238.495 129.555 241.11C131.276 244.889 138.061 260.915 138.061 260.915Z" fill="black"/>
<path id="Vector_68" d="M138.336 260.172C130.638 260.092 128.659 250.255 128.659 250.255C128.659 250.255 128.109 240.508 127.12 238.711C126.57 237.707 126.322 235.238 126.212 233.23C127.422 234.886 128.654 237.747 129.836 240.362C131.546 244.146 138.336 260.172 138.336 260.172Z" fill="#65617D"/>
<path id="Vector_69" opacity="0.1" d="M124.557 235.92C124.557 235.92 122.292 230.304 118.581 235.92C114.87 241.537 114.782 248.643 114.782 248.643L114.149 264.172C114.149 264.172 115.326 266.24 115.282 267.395C115.238 268.549 117.481 271.857 117.481 271.857C117.481 271.857 118.031 278.381 120.104 279.455L122.094 284.826C122.094 284.826 122.188 288.379 123.546 289.785C124.904 291.19 124.189 293.358 124.189 293.358L132.233 290.788C132.233 290.788 131.326 291.085 132.233 288.866C133.14 286.648 131.683 283.752 131.683 283.752C131.683 283.752 126.526 273.508 125.893 272.022C125.261 270.537 124.354 268.8 124.717 267.063C125.08 265.327 124.788 246.907 125.267 244.101C125.745 241.296 124.557 235.92 124.557 235.92Z" fill="black"/>
<path id="Vector_70" d="M125.393 235.142C125.393 235.142 123.128 229.526 119.417 235.142C115.705 240.759 115.617 247.866 115.617 247.866L114.985 263.394C114.985 263.394 116.162 265.462 116.118 266.617C116.074 267.771 118.317 271.079 118.317 271.079C118.317 271.079 118.867 277.603 120.94 278.677L122.93 284.048C122.93 284.048 123.023 287.601 124.381 289.007C125.74 290.412 125.03 292.58 125.03 292.58L133.069 290.005C133.069 290.005 132.161 290.307 133.069 288.088C133.976 285.87 132.519 282.974 132.519 282.974C132.519 282.974 127.361 272.73 126.729 271.244C126.097 269.759 125.19 268.022 125.553 266.285C125.915 264.549 125.63 246.129 126.102 243.318C126.575 240.508 125.393 235.142 125.393 235.142Z" fill="#444053"/>
<path id="Vector_71" opacity="0.1" d="M125.547 283.722C125.889 283.759 126.222 283.849 126.531 283.988C126.779 284.108 126.993 284.284 127.235 284.409C127.519 284.555 127.838 284.635 128.164 284.64C127.801 284.64 127.439 284.675 127.065 284.68C126.84 284.691 126.615 284.665 126.399 284.605C126.202 284.514 126.017 284.401 125.85 284.269C125.629 284.118 125.387 283.997 125.129 283.907C124.937 283.832 124.728 283.807 124.645 283.626C124.948 283.636 125.25 283.668 125.547 283.722V283.722Z" fill="black"/>
<path id="Vector_72" opacity="0.1" d="M128.61 285.94C128.95 285.94 129.291 285.87 129.638 285.85C130.136 285.833 130.634 285.857 131.128 285.92C130.4 286.253 129.583 286.385 128.775 286.301C128.542 286.246 128.298 286.246 128.065 286.301C127.812 286.397 127.081 287.155 127.015 286.482C126.949 285.81 128.192 285.955 128.61 285.94Z" fill="black"/>
<path id="Vector_73" opacity="0.1" d="M124.447 207.718L123.161 206.845C123.302 206.889 123.438 206.944 123.568 207.011C123.842 207.15 124.091 207.328 124.304 207.538C124.447 207.648 124.59 207.768 124.728 207.884L124.447 207.718Z" fill="black"/>
<path id="Vector_74" opacity="0.1" d="M125.91 232.803C125.674 233.296 125.293 233.72 124.81 234.028C124.521 234.209 124.19 234.326 123.843 234.369C123.35 234.41 122.853 234.363 122.38 234.229C121.779 234.089 121.186 233.922 120.604 233.727C119.466 233.299 118.3 232.937 117.113 232.643C115.304 232.266 113.198 232.402 111.9 233.606C110.762 234.665 110.482 236.312 109.344 237.371C107.821 238.786 105.324 238.701 103.164 238.425L102.658 238.359C103.631 234.811 104.654 231.835 105.434 231.363C107.518 230.123 118.377 231.363 118.377 231.363C118.377 231.363 122.902 231.443 124.623 231.865C125.147 232.05 125.596 232.378 125.91 232.803V232.803Z" fill="black"/>
<path id="Vector_75" opacity="0.1" d="M108.019 217.631C108.019 215.778 108.617 213.967 109.739 212.424C110.861 210.88 112.457 209.673 114.327 208.954C116.197 208.234 118.258 208.034 120.251 208.379C122.245 208.723 124.084 209.597 125.536 210.89V210.89C125.569 212.531 125.179 214.213 125.685 215.794C126.152 217.264 127.334 218.449 128.401 219.674C127.848 221.936 126.4 223.933 124.335 225.282C122.27 226.63 119.732 227.236 117.208 226.983C114.683 226.73 112.35 225.636 110.655 223.91C108.959 222.185 108.021 219.949 108.019 217.631V217.631Z" fill="black"/>
<path id="Vector_76" d="M124.7 207.392C122.698 205.736 120.176 204.696 117.491 204.42C114.807 204.145 112.095 204.647 109.74 205.856C108.658 206.4 107.734 207.173 107.045 208.11C105.627 210.172 105.99 212.833 105.248 215.171C104.544 217.405 102.861 219.252 101.47 221.194C100.079 223.137 98.9191 225.455 99.4414 227.719C99.8208 229.375 101.091 230.861 101.047 232.552C100.996 233.494 100.559 234.383 99.8224 235.044C99.0857 235.704 98.1036 236.087 97.0717 236.116C98.8201 237.245 101.003 237.622 103.12 237.898C105.237 238.174 107.771 238.259 109.3 236.839C110.438 235.785 110.718 234.133 111.856 233.079C113.154 231.87 115.26 231.734 117.069 232.116C118.878 232.497 120.544 233.295 122.336 233.722C122.81 233.852 123.306 233.898 123.799 233.857C125.344 233.667 126.24 232.101 126.361 230.685C126.46 229.506 126.273 228.146 127.191 227.313C127.532 227.045 127.9 226.808 128.291 226.605C128.995 226.161 129.553 225.549 129.903 224.836C130.253 224.122 130.382 223.335 130.276 222.56C129.852 219.759 126.531 218.012 125.663 215.297C125.157 213.721 125.547 212.04 125.514 210.398C125.481 208.757 124.805 206.885 123.111 206.333" fill="#444053"/>
<path id="Vector_77" opacity="0.1" d="M130.133 222.575C129.704 219.774 126.383 218.027 125.514 215.312C125.008 213.736 125.399 212.055 125.371 210.413C125.386 209.27 125 208.152 124.271 207.221L124.524 207.392C124.389 207.272 124.246 207.156 124.096 207.046C123.889 206.846 123.65 206.677 123.386 206.544C123.232 206.438 123.073 206.343 122.919 206.248L123.166 206.453L122.913 206.283C123.643 207.213 124.028 208.331 124.013 209.475C124.013 211.111 123.65 212.797 124.156 214.373C125.025 217.089 128.346 218.835 128.775 221.636C128.879 222.412 128.749 223.199 128.398 223.912C128.047 224.625 127.489 225.237 126.784 225.681C126.393 225.884 126.025 226.121 125.685 226.389C124.772 227.222 124.953 228.582 124.854 229.762C124.733 231.177 123.837 232.743 122.298 232.934C121.803 232.974 121.305 232.928 120.83 232.798C119.037 232.372 117.371 231.569 115.562 231.192C113.753 230.816 111.653 230.946 110.35 232.156C109.212 233.21 108.931 234.856 107.793 235.915C106.27 237.336 103.774 237.245 101.619 236.974C100.202 236.827 98.8071 236.534 97.462 236.101C97.2802 236.127 97.0963 236.141 96.9122 236.141C98.6606 237.27 100.843 237.647 102.96 237.923C105.077 238.199 107.612 238.284 109.135 236.864C110.273 235.81 110.553 234.159 111.691 233.105C112.995 231.895 115.1 231.759 116.904 232.141C118.707 232.522 120.379 233.32 122.171 233.747C122.647 233.877 123.145 233.923 123.639 233.882C125.179 233.692 126.075 232.126 126.196 230.71C126.295 229.531 126.113 228.171 127.026 227.338C127.368 227.071 127.736 226.834 128.126 226.63C128.836 226.187 129.399 225.575 129.753 224.859C130.107 224.144 130.238 223.354 130.133 222.575Z" fill="black"/>
</g>
<defs>
<linearGradient id="paint0_linear" x1="117.316" y1="363.795" x2="117.316" y2="203.628" gradientUnits="userSpaceOnUse">
<stop stop-color="#808080" stop-opacity="0.25"/>
<stop offset="0.54" stop-color="#808080" stop-opacity="0.12"/>
<stop offset="1" stop-color="#808080" stop-opacity="0.1"/>
</linearGradient>
<clipPath id="clip0">
<rect width="629" height="365" fill="white"/>
</clipPath>
</defs>
</svg>
